<?xml version="1.0" encoding="UTF-8" standalone="no"?><svg xmlns="http://www.w3.org/2000/svg" xmlns:xlink="http://www.w3.org/1999/xlink" contentScriptType="application/ecmascript" contentStyleType="text/css" height="1272px" preserveAspectRatio="none" style="width:381px;height:1272px;background:#FFFFFF;" version="1.1" viewBox="0 0 381 1272" width="381px" zoomAndPan="magnify"><defs><filter height="300%" id="f1npu5r4vgtkmz" width="300%" x="-1" y="-1"><feGaussianBlur result="blurOut" stdDeviation="2.0"/><feColorMatrix in="blurOut" result="blurOut2" type="matrix" values="0 0 0 0 0 0 0 0 0 0 0 0 0 0 0 0 0 0 .4 0"/><feOffset dx="4.0" dy="4.0" in="blurOut2" result="blurOut3"/><feBlend in="SourceGraphic" in2="blurOut3" mode="normal"/></filter></defs><g><!--MD5=[68985b732702cd7a8d1ae9f7e11b3260]
class ImportShipsUI--><rect codeLine="3" fill="#FEFECE" filter="url(#f1npu5r4vgtkmz)" height="48" id="ImportShipsUI" style="stroke:#A80036;stroke-width:1.5;" width="111" x="131.5" y="7"/><ellipse cx="146.5" cy="23" fill="#ADD1B2" rx="11" ry="11" style="stroke:#A80036;stroke-width:1.0;"/><path d="M148.5,19.5 Q148.7031,19 148.9375,18.75 Q149.1719,18.5 149.4375,18.5 Q149.9063,18.5 150.2031,18.7813 Q150.5,19.0625 150.5,19.7188 L150.5,21.2813 Q150.5,21.9375 150.2188,22.2188 Q149.9375,22.5 149.5,22.5 Q149.1094,22.5 148.8594,22.3281 Q148.6094,22.1563 148.5,21.7031 Q148.4531,21.3906 148.2813,21.2188 Q147.9688,20.8906 147.4063,20.7031 Q146.8438,20.5 146.2813,20.5 Q145.5781,20.5 144.9844,20.7813 Q144.4063,21.0625 143.9531,21.6875 Q143.5,22.3125 143.5,23.1719 L143.5,24.0938 Q143.5,25.125 144.3438,25.8125 Q145.1875,26.5 146.6875,26.5 Q147.5781,26.5 148.2031,26.2969 Q148.5625,26.1875 148.9688,25.8281 Q149.2344,25.625 149.375,25.5625 Q149.5156,25.5 149.6875,25.5 Q150.0156,25.5 150.25,25.7656 Q150.5,26.0156 150.5,26.375 Q150.5,26.7188 150.1563,27.125 Q149.6563,27.7188 148.8594,28.0469 Q147.8125,28.5 146.5313,28.5 Q145.0313,28.5 143.8281,27.9063 Q142.8594,27.4375 142.1719,26.4219 Q141.5,25.4063 141.5,24.2031 L141.5,23.1094 Q141.5,21.8594 142.0938,20.7656 Q142.7031,19.6719 143.75,19.0938 Q144.8125,18.5 146,18.5 Q146.7188,18.5 147.3438,18.75 Q147.9688,19 148.5,19.5 Z " fill="#000000"/><text fill="#000000" font-family="sans-serif" font-size="12" lengthAdjust="spacing" textLength="79" x="160.5" y="27.9102">ImportShipsUI</text><line style="stroke:#A80036;stroke-width:1.5;" x1="132.5" x2="241.5" y1="39" y2="39"/><line style="stroke:#A80036;stroke-width:1.5;" x1="132.5" x2="241.5" y1="47" y2="47"/><!--MD5=[d8a5c6f12add15b22e781f1f574c705d]
class ShipController--><rect codeLine="7" fill="#FEFECE" filter="url(#f1npu5r4vgtkmz)" height="117.1797" id="ShipController" style="stroke:#A80036;stroke-width:1.5;" width="159" x="107.5" y="116"/><ellipse cx="144.1" cy="132" fill="#ADD1B2" rx="11" ry="11" style="stroke:#A80036;stroke-width:1.0;"/><path d="M146.1,128.5 Q146.3031,128 146.5375,127.75 Q146.7719,127.5 147.0375,127.5 Q147.5063,127.5 147.8031,127.7813 Q148.1,128.0625 148.1,128.7188 L148.1,130.2813 Q148.1,130.9375 147.8188,131.2188 Q147.5375,131.5 147.1,131.5 Q146.7094,131.5 146.4594,131.3281 Q146.2094,131.1563 146.1,130.7031 Q146.0531,130.3906 145.8813,130.2188 Q145.5688,129.8906 145.0063,129.7031 Q144.4438,129.5 143.8813,129.5 Q143.1781,129.5 142.5844,129.7813 Q142.0063,130.0625 141.5531,130.6875 Q141.1,131.3125 141.1,132.1719 L141.1,133.0938 Q141.1,134.125 141.9438,134.8125 Q142.7875,135.5 144.2875,135.5 Q145.1781,135.5 145.8031,135.2969 Q146.1625,135.1875 146.5688,134.8281 Q146.8344,134.625 146.975,134.5625 Q147.1156,134.5 147.2875,134.5 Q147.6156,134.5 147.85,134.7656 Q148.1,135.0156 148.1,135.375 Q148.1,135.7188 147.7563,136.125 Q147.2563,136.7188 146.4594,137.0469 Q145.4125,137.5 144.1313,137.5 Q142.6313,137.5 141.4281,136.9063 Q140.4594,136.4375 139.7719,135.4219 Q139.1,134.4063 139.1,133.2031 L139.1,132.1094 Q139.1,130.8594 139.6938,129.7656 Q140.3031,128.6719 141.35,128.0938 Q142.4125,127.5 143.6,127.5 Q144.3188,127.5 144.9438,127.75 Q145.5688,128 146.1,128.5 Z " fill="#000000"/><text fill="#000000" font-family="sans-serif" font-size="12" lengthAdjust="spacing" textLength="79" x="162.9" y="136.9102">ShipController</text><line style="stroke:#A80036;stroke-width:1.5;" x1="108.5" x2="265.5" y1="148" y2="148"/><line style="stroke:#A80036;stroke-width:1.5;" x1="108.5" x2="265.5" y1="156" y2="156"/><ellipse cx="118.5" cy="167" fill="#84BE84" rx="3" ry="3" style="stroke:#038048;stroke-width:1.0;"/><text fill="#000000" font-family="sans-serif" font-size="11" lengthAdjust="spacing" textLength="78" x="127.5" y="171.4189">importShips(file)</text><ellipse cx="118.5" cy="180.8359" fill="#84BE84" rx="3" ry="3" style="stroke:#038048;stroke-width:1.0;"/><text fill="#000000" font-family="sans-serif" font-size="11" lengthAdjust="spacing" textLength="79" x="127.5" y="185.2549">getDetails(code)</text><ellipse cx="118.5" cy="194.6719" fill="#84BE84" rx="3" ry="3" style="stroke:#038048;stroke-width:1.0;"/><text fill="#000000" font-family="sans-serif" font-size="11" lengthAdjust="spacing" textLength="45" x="127.5" y="199.0908">getFiles()</text><ellipse cx="118.5" cy="208.5078" fill="#84BE84" rx="3" ry="3" style="stroke:#038048;stroke-width:1.0;"/><text fill="#000000" font-family="sans-serif" font-size="11" lengthAdjust="spacing" textLength="50" x="127.5" y="212.9268">getShips()</text><ellipse cx="118.5" cy="222.3438" fill="#84BE84" rx="3" ry="3" style="stroke:#038048;stroke-width:1.0;"/><text fill="#000000" font-family="sans-serif" font-size="11" lengthAdjust="spacing" textLength="133" x="127.5" y="226.7627">getTopNShips(n, start, end)</text><!--MD5=[ea2206eefe09474e90beb17e18e6b3d8]
class ShipStore--><rect codeLine="14" fill="#FEFECE" filter="url(#f1npu5r4vgtkmz)" height="172.5234" id="ShipStore" style="stroke:#A80036;stroke-width:1.5;" width="150" x="112" y="294"/><ellipse cx="155.8" cy="310" fill="#ADD1B2" rx="11" ry="11" style="stroke:#A80036;stroke-width:1.0;"/><path d="M157.8,306.5 Q158.0031,306 158.2375,305.75 Q158.4719,305.5 158.7375,305.5 Q159.2063,305.5 159.5031,305.7813 Q159.8,306.0625 159.8,306.7188 L159.8,308.2813 Q159.8,308.9375 159.5188,309.2188 Q159.2375,309.5 158.8,309.5 Q158.4094,309.5 158.1594,309.3281 Q157.9094,309.1563 157.8,308.7031 Q157.7531,308.3906 157.5813,308.2188 Q157.2688,307.8906 156.7063,307.7031 Q156.1438,307.5 155.5813,307.5 Q154.8781,307.5 154.2844,307.7813 Q153.7063,308.0625 153.2531,308.6875 Q152.8,309.3125 152.8,310.1719 L152.8,311.0938 Q152.8,312.125 153.6438,312.8125 Q154.4875,313.5 155.9875,313.5 Q156.8781,313.5 157.5031,313.2969 Q157.8625,313.1875 158.2688,312.8281 Q158.5344,312.625 158.675,312.5625 Q158.8156,312.5 158.9875,312.5 Q159.3156,312.5 159.55,312.7656 Q159.8,313.0156 159.8,313.375 Q159.8,313.7188 159.4563,314.125 Q158.9563,314.7188 158.1594,315.0469 Q157.1125,315.5 155.8313,315.5 Q154.3313,315.5 153.1281,314.9063 Q152.1594,314.4375 151.4719,313.4219 Q150.8,312.4063 150.8,311.2031 L150.8,310.1094 Q150.8,308.8594 151.3938,307.7656 Q152.0031,306.6719 153.05,306.0938 Q154.1125,305.5 155.3,305.5 Q156.0188,305.5 156.6438,305.75 Q157.2688,306 157.8,306.5 Z " fill="#000000"/><text fill="#000000" font-family="sans-serif" font-size="12" lengthAdjust="spacing" textLength="54" x="176.2" y="314.9102">ShipStore</text><line style="stroke:#A80036;stroke-width:1.5;" x1="113" x2="261" y1="326" y2="326"/><line style="stroke:#A80036;stroke-width:1.5;" x1="113" x2="261" y1="334" y2="334"/><ellipse cx="123" cy="345" fill="#84BE84" rx="3" ry="3" style="stroke:#038048;stroke-width:1.0;"/><text fill="#000000" font-family="sans-serif" font-size="11" lengthAdjust="spacing" textLength="55" x="132" y="349.4189">ShipStore()</text><ellipse cx="123" cy="358.8359" fill="#84BE84" rx="3" ry="3" style="stroke:#038048;stroke-width:1.0;"/><text fill="#000000" font-family="sans-serif" font-size="11" lengthAdjust="spacing" textLength="39" x="132" y="363.2549">getBst()</text><ellipse cx="123" cy="372.6719" fill="#84BE84" rx="3" ry="3" style="stroke:#038048;stroke-width:1.0;"/><text fill="#000000" font-family="sans-serif" font-size="11" lengthAdjust="spacing" textLength="61" x="132" y="377.0908">getShipList()</text><ellipse cx="123" cy="386.5078" fill="#84BE84" rx="3" ry="3" style="stroke:#038048;stroke-width:1.0;"/><text fill="#000000" font-family="sans-serif" font-size="11" lengthAdjust="spacing" textLength="67" x="132" y="390.9268">addShip(ship)</text><ellipse cx="123" cy="400.3438" fill="#84BE84" rx="3" ry="3" style="stroke:#038048;stroke-width:1.0;"/><text fill="#000000" font-family="sans-serif" font-size="11" lengthAdjust="spacing" textLength="99" x="132" y="404.7627">containsMMSI(MMSI)</text><ellipse cx="123" cy="414.1797" fill="#84BE84" rx="3" ry="3" style="stroke:#038048;stroke-width:1.0;"/><text fill="#000000" font-family="sans-serif" font-size="11" lengthAdjust="spacing" textLength="85" x="132" y="418.5986">containsIMO(IMO)</text><ellipse cx="123" cy="428.0156" fill="#84BE84" rx="3" ry="3" style="stroke:#038048;stroke-width:1.0;"/><text fill="#000000" font-family="sans-serif" font-size="11" lengthAdjust="spacing" textLength="124" x="132" y="432.4346">containsCallSign(callSign)</text><ellipse cx="123" cy="441.8516" fill="#84BE84" rx="3" ry="3" style="stroke:#038048;stroke-width:1.0;"/><text fill="#000000" font-family="sans-serif" font-size="11" lengthAdjust="spacing" textLength="68" x="132" y="446.2705">getShip(code)</text><ellipse cx="123" cy="455.6875" fill="#84BE84" rx="3" ry="3" style="stroke:#038048;stroke-width:1.0;"/><text fill="#000000" font-family="sans-serif" font-size="11" lengthAdjust="spacing" textLength="97" x="132" y="460.1064">shipSummary(code)</text><!--MD5=[0dc7f2ddb409b58bcf52b12238c25399]
class Ship--><rect codeLine="25" fill="#FEFECE" filter="url(#f1npu5r4vgtkmz)" height="490.75" id="Ship" style="stroke:#A80036;stroke-width:1.5;" width="360" x="7" y="545"/><ellipse cx="170.25" cy="561" fill="#ADD1B2" rx="11" ry="11" style="stroke:#A80036;stroke-width:1.0;"/><path d="M172.25,557.5 Q172.4531,557 172.6875,556.75 Q172.9219,556.5 173.1875,556.5 Q173.6563,556.5 173.9531,556.7813 Q174.25,557.0625 174.25,557.7188 L174.25,559.2813 Q174.25,559.9375 173.9688,560.2188 Q173.6875,560.5 173.25,560.5 Q172.8594,560.5 172.6094,560.3281 Q172.3594,560.1563 172.25,559.7031 Q172.2031,559.3906 172.0313,559.2188 Q171.7188,558.8906 171.1563,558.7031 Q170.5938,558.5 170.0313,558.5 Q169.3281,558.5 168.7344,558.7813 Q168.1563,559.0625 167.7031,559.6875 Q167.25,560.3125 167.25,561.1719 L167.25,562.0938 Q167.25,563.125 168.0938,563.8125 Q168.9375,564.5 170.4375,564.5 Q171.3281,564.5 171.9531,564.2969 Q172.3125,564.1875 172.7188,563.8281 Q172.9844,563.625 173.125,563.5625 Q173.2656,563.5 173.4375,563.5 Q173.7656,563.5 174,563.7656 Q174.25,564.0156 174.25,564.375 Q174.25,564.7188 173.9063,565.125 Q173.4063,565.7188 172.6094,566.0469 Q171.5625,566.5 170.2813,566.5 Q168.7813,566.5 167.5781,565.9063 Q166.6094,565.4375 165.9219,564.4219 Q165.25,563.4063 165.25,562.2031 L165.25,561.1094 Q165.25,559.8594 165.8438,558.7656 Q166.4531,557.6719 167.5,557.0938 Q168.5625,556.5 169.75,556.5 Q170.4688,556.5 171.0938,556.75 Q171.7188,557 172.25,557.5 Z " fill="#000000"/><text fill="#000000" font-family="sans-serif" font-size="12" lengthAdjust="spacing" textLength="25" x="190.75" y="565.9102">Ship</text><line style="stroke:#A80036;stroke-width:1.5;" x1="8" x2="366" y1="577" y2="577"/><rect fill="none" height="6" style="stroke:#C82930;stroke-width:1.0;" width="6" x="15" y="585"/><text fill="#000000" font-family="sans-serif" font-size="11" lengthAdjust="spacing" textLength="28" x="27" y="592.4189">MMSI;</text><rect fill="none" height="6" style="stroke:#C82930;stroke-width:1.0;" width="6" x="15" y="598.8359"/><text fill="#000000" font-family="sans-serif" font-size="11" lengthAdjust="spacing" textLength="29" x="27" y="606.2549">name;</text><rect fill="none" height="6" style="stroke:#C82930;stroke-width:1.0;" width="6" x="15" y="612.6719"/><text fill="#000000" font-family="sans-serif" font-size="11" lengthAdjust="spacing" textLength="21" x="27" y="620.0908">IMO;</text><rect fill="none" height="6" style="stroke:#C82930;stroke-width:1.0;" width="6" x="15" y="626.5078"/><text fill="#000000" font-family="sans-serif" font-size="11" lengthAdjust="spacing" textLength="92" x="27" y="633.9268">energyGenerators;</text><rect fill="none" height="6" style="stroke:#C82930;stroke-width:1.0;" width="6" x="15" y="640.3438"/><text fill="#000000" font-family="sans-serif" font-size="11" lengthAdjust="spacing" textLength="67" x="27" y="647.7627">powerOutput;</text><rect fill="none" height="6" style="stroke:#C82930;stroke-width:1.0;" width="6" x="15" y="654.1797"/><text fill="#000000" font-family="sans-serif" font-size="11" lengthAdjust="spacing" textLength="39" x="27" y="661.5986">callsign;</text><rect fill="none" height="6" style="stroke:#C82930;stroke-width:1.0;" width="6" x="15" y="668.0156"/><text fill="#000000" font-family="sans-serif" font-size="11" lengthAdjust="spacing" textLength="59" x="27" y="675.4346">vesselType;</text><rect fill="none" height="6" style="stroke:#C82930;stroke-width:1.0;" width="6" x="15" y="681.8516"/><text fill="#000000" font-family="sans-serif" font-size="11" lengthAdjust="spacing" textLength="32" x="27" y="689.2705">length;</text><rect fill="none" height="6" style="stroke:#C82930;stroke-width:1.0;" width="6" x="15" y="695.6875"/><text fill="#000000" font-family="sans-serif" font-size="11" lengthAdjust="spacing" textLength="30" x="27" y="703.1064">width;</text><rect fill="none" height="6" style="stroke:#C82930;stroke-width:1.0;" width="6" x="15" y="709.5234"/><text fill="#000000" font-family="sans-serif" font-size="11" lengthAdjust="spacing" textLength="44" x="27" y="716.9424">capacity;</text><rect fill="none" height="6" style="stroke:#C82930;stroke-width:1.0;" width="6" x="15" y="723.3594"/><text fill="#000000" font-family="sans-serif" font-size="11" lengthAdjust="spacing" textLength="26" x="27" y="730.7783">draft;</text><line style="stroke:#A80036;stroke-width:1.5;" x1="8" x2="366" y1="737.1953" y2="737.1953"/><ellipse cx="18" cy="748.1953" fill="#84BE84" rx="3" ry="3" style="stroke:#038048;stroke-width:1.0;"/><text fill="#000000" font-family="sans-serif" font-size="11" lengthAdjust="spacing" textLength="334" x="27" y="752.6143">Ship(MMSI,name,IMO,callsign,vesselType,length,width,draft,capacity)</text><ellipse cx="18" cy="762.0313" fill="#84BE84" rx="3" ry="3" style="stroke:#038048;stroke-width:1.0;"/><text fill="#000000" font-family="sans-serif" font-size="11" lengthAdjust="spacing" textLength="116" x="27" y="766.4502">AddMensage(mensage)</text><ellipse cx="18" cy="775.8672" fill="#84BE84" rx="3" ry="3" style="stroke:#038048;stroke-width:1.0;"/><text fill="#000000" font-family="sans-serif" font-size="11" lengthAdjust="spacing" textLength="48" x="27" y="780.2861">getMMSI()</text><ellipse cx="18" cy="789.7031" fill="#84BE84" rx="3" ry="3" style="stroke:#038048;stroke-width:1.0;"/><text fill="#000000" font-family="sans-serif" font-size="11" lengthAdjust="spacing" textLength="41" x="27" y="794.1221">getIMO()</text><ellipse cx="18" cy="803.5391" fill="#84BE84" rx="3" ry="3" style="stroke:#038048;stroke-width:1.0;"/><text fill="#000000" font-family="sans-serif" font-size="11" lengthAdjust="spacing" textLength="50" x="27" y="807.958">getName()</text><ellipse cx="18" cy="817.375" fill="#84BE84" rx="3" ry="3" style="stroke:#038048;stroke-width:1.0;"/><text fill="#000000" font-family="sans-serif" font-size="11" lengthAdjust="spacing" textLength="50" x="27" y="821.7939">getWidth()</text><ellipse cx="18" cy="831.2109" fill="#84BE84" rx="3" ry="3" style="stroke:#038048;stroke-width:1.0;"/><text fill="#000000" font-family="sans-serif" font-size="11" lengthAdjust="spacing" textLength="55" x="27" y="835.6299">getDetails()</text><ellipse cx="18" cy="845.0469" fill="#84BE84" rx="3" ry="3" style="stroke:#038048;stroke-width:1.0;"/><text fill="#000000" font-family="sans-serif" font-size="11" lengthAdjust="spacing" textLength="47" x="27" y="849.4658">getDraft()</text><ellipse cx="18" cy="858.8828" fill="#84BE84" rx="3" ry="3" style="stroke:#038048;stroke-width:1.0;"/><text fill="#000000" font-family="sans-serif" font-size="11" lengthAdjust="spacing" textLength="56" x="27" y="863.3018">getLength()</text><ellipse cx="18" cy="872.7188" fill="#84BE84" rx="3" ry="3" style="stroke:#038048;stroke-width:1.0;"/><text fill="#000000" font-family="sans-serif" font-size="11" lengthAdjust="spacing" textLength="81" x="27" y="877.1377">getVesselType()</text><ellipse cx="18" cy="886.5547" fill="#84BE84" rx="3" ry="3" style="stroke:#038048;stroke-width:1.0;"/><text fill="#000000" font-family="sans-serif" font-size="11" lengthAdjust="spacing" textLength="85" x="27" y="890.9736">getAllMessages()</text><ellipse cx="18" cy="900.3906" fill="#84BE84" rx="3" ry="3" style="stroke:#038048;stroke-width:1.0;"/><text fill="#000000" font-family="sans-serif" font-size="11" lengthAdjust="spacing" textLength="65" x="27" y="904.8096">getCapacity()</text><ellipse cx="18" cy="914.2266" fill="#84BE84" rx="3" ry="3" style="stroke:#038048;stroke-width:1.0;"/><text fill="#000000" font-family="sans-serif" font-size="11" lengthAdjust="spacing" textLength="90" x="27" y="918.6455">checkMMSI(MMSI);</text><ellipse cx="18" cy="928.0625" fill="#84BE84" rx="3" ry="3" style="stroke:#038048;stroke-width:1.0;"/><text fill="#000000" font-family="sans-serif" font-size="11" lengthAdjust="spacing" textLength="93" x="27" y="932.4814">checkName(name);</text><ellipse cx="18" cy="941.8984" fill="#84BE84" rx="3" ry="3" style="stroke:#038048;stroke-width:1.0;"/><text fill="#000000" font-family="sans-serif" font-size="11" lengthAdjust="spacing" textLength="76" x="27" y="946.3174">checkIMO(IMO);</text><ellipse cx="18" cy="955.7344" fill="#84BE84" rx="3" ry="3" style="stroke:#038048;stroke-width:1.0;"/><text fill="#000000" font-family="sans-serif" font-size="11" lengthAdjust="spacing" textLength="114" x="27" y="960.1533">checkCallSign(callsign);</text><ellipse cx="18" cy="969.5703" fill="#84BE84" rx="3" ry="3" style="stroke:#038048;stroke-width:1.0;"/><text fill="#000000" font-family="sans-serif" font-size="11" lengthAdjust="spacing" textLength="154" x="27" y="973.9893">checkVesselType(vesselType);</text><ellipse cx="18" cy="983.4063" fill="#84BE84" rx="3" ry="3" style="stroke:#038048;stroke-width:1.0;"/><text fill="#000000" font-family="sans-serif" font-size="11" lengthAdjust="spacing" textLength="102" x="27" y="987.8252">checkLength(length);</text><ellipse cx="18" cy="997.2422" fill="#84BE84" rx="3" ry="3" style="stroke:#038048;stroke-width:1.0;"/><text fill="#000000" font-family="sans-serif" font-size="11" lengthAdjust="spacing" textLength="94" x="27" y="1001.6611">checkWidth(width);</text><ellipse cx="18" cy="1011.0781" fill="#84BE84" rx="3" ry="3" style="stroke:#038048;stroke-width:1.0;"/><text fill="#000000" font-family="sans-serif" font-size="11" lengthAdjust="spacing" textLength="87" x="27" y="1015.4971">checkDraft(draft);</text><ellipse cx="18" cy="1024.9141" fill="#84BE84" rx="3" ry="3" style="stroke:#038048;stroke-width:1.0;"/><text fill="#000000" font-family="sans-serif" font-size="11" lengthAdjust="spacing" textLength="123" x="27" y="1029.333">checkCapacity(capacity);</text><!--MD5=[b4a9ab6cffd58937cfea07eb2954e1bd]
class BST--><rect codeLine="60" fill="#FEFECE" filter="url(#f1npu5r4vgtkmz)" height="144.8516" id="BST" style="stroke:#A80036;stroke-width:1.5;" width="117" x="128.5" y="1114"/><ellipse cx="171.4" cy="1130" fill="#ADD1B2" rx="11" ry="11" style="stroke:#A80036;stroke-width:1.0;"/><path d="M173.4,1126.5 Q173.6031,1126 173.8375,1125.75 Q174.0719,1125.5 174.3375,1125.5 Q174.8063,1125.5 175.1031,1125.7813 Q175.4,1126.0625 175.4,1126.7188 L175.4,1128.2813 Q175.4,1128.9375 175.1188,1129.2188 Q174.8375,1129.5 174.4,1129.5 Q174.0094,1129.5 173.7594,1129.3281 Q173.5094,1129.1563 173.4,1128.7031 Q173.3531,1128.3906 173.1813,1128.2188 Q172.8688,1127.8906 172.3063,1127.7031 Q171.7438,1127.5 171.1813,1127.5 Q170.4781,1127.5 169.8844,1127.7813 Q169.3063,1128.0625 168.8531,1128.6875 Q168.4,1129.3125 168.4,1130.1719 L168.4,1131.0938 Q168.4,1132.125 169.2438,1132.8125 Q170.0875,1133.5 171.5875,1133.5 Q172.4781,1133.5 173.1031,1133.2969 Q173.4625,1133.1875 173.8688,1132.8281 Q174.1344,1132.625 174.275,1132.5625 Q174.4156,1132.5 174.5875,1132.5 Q174.9156,1132.5 175.15,1132.7656 Q175.4,1133.0156 175.4,1133.375 Q175.4,1133.7188 175.0563,1134.125 Q174.5563,1134.7188 173.7594,1135.0469 Q172.7125,1135.5 171.4313,1135.5 Q169.9313,1135.5 168.7281,1134.9063 Q167.7594,1134.4375 167.0719,1133.4219 Q166.4,1132.4063 166.4,1131.2031 L166.4,1130.1094 Q166.4,1128.8594 166.9938,1127.7656 Q167.6031,1126.6719 168.65,1126.0938 Q169.7125,1125.5 170.9,1125.5 Q171.6188,1125.5 172.2438,1125.75 Q172.8688,1126 173.4,1126.5 Z " fill="#000000"/><text fill="#000000" font-family="sans-serif" font-size="12" lengthAdjust="spacing" textLength="23" x="191.6" y="1134.9102">BST</text><line style="stroke:#A80036;stroke-width:1.5;" x1="129.5" x2="244.5" y1="1146" y2="1146"/><text fill="#000000" font-family="sans-serif" font-size="11" lengthAdjust="spacing" textLength="25" x="134.5" y="1161.4189">Node</text><line style="stroke:#A80036;stroke-width:1.5;" x1="129.5" x2="244.5" y1="1167.8359" y2="1167.8359"/><ellipse cx="139.5" cy="1178.8359" fill="#84BE84" rx="3" ry="3" style="stroke:#038048;stroke-width:1.0;"/><text fill="#000000" font-family="sans-serif" font-size="11" lengthAdjust="spacing" textLength="91" x="148.5" y="1183.2549">getByCallSign(key)</text><ellipse cx="139.5" cy="1192.6719" fill="#84BE84" rx="3" ry="3" style="stroke:#038048;stroke-width:1.0;"/><text fill="#000000" font-family="sans-serif" font-size="11" lengthAdjust="spacing" textLength="78" x="148.5" y="1197.0908">getByMMSI(key)</text><ellipse cx="139.5" cy="1206.5078" fill="#84BE84" rx="3" ry="3" style="stroke:#038048;stroke-width:1.0;"/><text fill="#000000" font-family="sans-serif" font-size="11" lengthAdjust="spacing" textLength="71" x="148.5" y="1210.9268">getByIMO(key)</text><ellipse cx="139.5" cy="1220.3438" fill="#84BE84" rx="3" ry="3" style="stroke:#038048;stroke-width:1.0;"/><text fill="#000000" font-family="sans-serif" font-size="11" lengthAdjust="spacing" textLength="68" x="148.5" y="1224.7627">search(h,key)</text><ellipse cx="139.5" cy="1234.1797" fill="#84BE84" rx="3" ry="3" style="stroke:#038048;stroke-width:1.0;"/><text fill="#000000" font-family="sans-serif" font-size="11" lengthAdjust="spacing" textLength="72" x="148.5" y="1238.5986">put(key, value)</text><ellipse cx="139.5" cy="1248.0156" fill="#84BE84" rx="3" ry="3" style="stroke:#038048;stroke-width:1.0;"/><text fill="#000000" font-family="sans-serif" font-size="11" lengthAdjust="spacing" textLength="90" x="148.5" y="1252.4346">insert(h,key,value)</text><!--MD5=[a08ff06cbe00e188196a41942c43e7ef]
link ImportShipsUI to ShipController--><path codeLine="71" d="M187,55.05 C187,70.28 187,91.04 187,110.92 " fill="none" id="ImportShipsUI-to-ShipController" style="stroke:#A80036;stroke-width:1.0;stroke-dasharray:7.0,7.0;"/><polygon fill="#A80036" points="187,115.95,191,106.95,187,110.95,183,106.95,187,115.95" style="stroke:#A80036;stroke-width:1.0;"/><!--MD5=[27a7b45e2e93ed268b2d2f3a23fa2d92]
link ShipController to ShipStore--><path codeLine="72" d="M187,233.14 C187,250.37 187,269.7 187,288.52 " fill="none" id="ShipController-to-ShipStore" style="stroke:#A80036;stroke-width:1.0;stroke-dasharray:7.0,7.0;"/><polygon fill="#A80036" points="187,293.82,191,284.82,187,288.82,183,284.82,187,293.82" style="stroke:#A80036;stroke-width:1.0;"/><!--MD5=[f04e04ecc6998d67821b33eb17256457]
link ShipStore to Ship--><path codeLine="73" d="M187,467.03 C187,489.05 187,513.88 187,539.75 " fill="none" id="ShipStore-to-Ship" style="stroke:#A80036;stroke-width:1.0;"/><polygon fill="#A80036" points="187,544.93,191,535.93,187,539.93,183,535.93,187,544.93" style="stroke:#A80036;stroke-width:1.0;"/><polygon fill="#000000" points="192,511.1758,194.9389,502.1307,189.0611,502.1307,192,511.1758" style="stroke:#000000;stroke-width:1.0;"/><text fill="#000000" font-family="sans-serif" font-size="13" lengthAdjust="spacing" textLength="37" x="201" y="511.4951">knows</text><text fill="#000000" font-family="sans-serif" font-size="13" lengthAdjust="spacing" textLength="7" x="179.7211" y="488.091">1</text><text fill="#000000" font-family="sans-serif" font-size="13" lengthAdjust="spacing" textLength="5" x="181.918" y="534.1147">*</text><!--MD5=[450ce2c12e7dd7ba974e92137d77cb9b]
link Ship to BST--><path codeLine="74" d="M187,1036.26 C187,1062.24 187,1087.03 187,1108.69 " fill="none" id="Ship-to-BST" style="stroke:#A80036;stroke-width:1.0;"/><polygon fill="#A80036" points="187,1113.83,191,1104.83,187,1108.83,183,1104.83,187,1113.83" style="stroke:#A80036;stroke-width:1.0;"/><polygon fill="#000000" points="192,1080.1758,194.9389,1071.1307,189.0611,1071.1307,192,1080.1758" style="stroke:#000000;stroke-width:1.0;"/><text fill="#000000" font-family="sans-serif" font-size="13" lengthAdjust="spacing" textLength="50" x="201" y="1080.4951">stored in</text><text fill="#000000" font-family="sans-serif" font-size="13" lengthAdjust="spacing" textLength="7" x="179.8961" y="1057.2975">1</text><text fill="#000000" font-family="sans-serif" font-size="13" lengthAdjust="spacing" textLength="7" x="179.6391" y="1103.0318">1</text><!--MD5=[0c399cc80905d7b3f0534dbeaa966faf]
@startuml
'https://plantuml.com/class-diagram

class ImportShipsUI {


}
class ShipController{
    +importShips(file)
    +getDetails(code)
    +getFiles()
    +getShips()
    +getTopNShips(n, start, end)
}
class ShipStore{
+ShipStore()
+getBst()
+getShipList()
+addShip(ship)
+containsMMSI(MMSI)
+containsIMO(IMO)
+containsCallSign(callSign)
+getShip(code)
+shipSummary(code)
}
class Ship{
-MMSI;
-name;
-IMO;
-energyGenerators;
-powerOutput;
-callsign;
-vesselType;
-length;
-width;
-capacity;
-draft;
 +Ship(MMSI,name,IMO,callsign,vesselType,length,width,draft,capacity)
  +AddMensage(mensage)
    +getMMSI()
    +getIMO()
    +getName()
    +getWidth()
    +getDetails()
    +getDraft()
    +getLength()
    +getVesselType()
    +getAllMessages()
    +getCapacity()
    +checkMMSI(MMSI);
    +checkName(name);
    +checkIMO(IMO);
    +checkCallSign(callsign);
    +checkVesselType(vesselType);
    +checkLength(length);
    +checkWidth(width);
    +checkDraft(draft);
    +checkCapacity(capacity);

}
class BST{
Node
+getByCallSign(key)
+getByMMSI(key)
+getByIMO(key)
+search(h,key)
+put(key, value)
+insert(h,key,value)
}


ImportShipsUI ..> ShipController
ShipController ..> ShipStore
ShipStore "1" - -> "*" Ship  : knows >
Ship "1" - -> "1" BST : stored in >

@enduml

@startuml

class ImportShipsUI {


}
class ShipController{
    +importShips(file)
    +getDetails(code)
    +getFiles()
    +getShips()
    +getTopNShips(n, start, end)
}
class ShipStore{
+ShipStore()
+getBst()
+getShipList()
+addShip(ship)
+containsMMSI(MMSI)
+containsIMO(IMO)
+containsCallSign(callSign)
+getShip(code)
+shipSummary(code)
}
class Ship{
-MMSI;
-name;
-IMO;
-energyGenerators;
-powerOutput;
-callsign;
-vesselType;
-length;
-width;
-capacity;
-draft;
 +Ship(MMSI,name,IMO,callsign,vesselType,length,width,draft,capacity)
  +AddMensage(mensage)
    +getMMSI()
    +getIMO()
    +getName()
    +getWidth()
    +getDetails()
    +getDraft()
    +getLength()
    +getVesselType()
    +getAllMessages()
    +getCapacity()
    +checkMMSI(MMSI);
    +checkName(name);
    +checkIMO(IMO);
    +checkCallSign(callsign);
    +checkVesselType(vesselType);
    +checkLength(length);
    +checkWidth(width);
    +checkDraft(draft);
    +checkCapacity(capacity);

}
class BST{
Node
+getByCallSign(key)
+getByMMSI(key)
+getByIMO(key)
+search(h,key)
+put(key, value)
+insert(h,key,value)
}


ImportShipsUI ..> ShipController
ShipController ..> ShipStore
ShipStore "1" - -> "*" Ship  : knows >
Ship "1" - -> "1" BST : stored in >

@enduml

PlantUML version 1.2021.11(Sat Oct 02 14:26:11 BST 2021)
(GPL source distribution)
Java Runtime: OpenJDK Runtime Environment
JVM: OpenJDK 64-Bit Server VM
Default Encoding: Cp1252
Language: pt
Country: PT
--></g></svg>