<?xml version="1.0" encoding="UTF-8" standalone="no"?><svg xmlns="http://www.w3.org/2000/svg" xmlns:xlink="http://www.w3.org/1999/xlink" contentScriptType="application/ecmascript" contentStyleType="text/css" height="426px" preserveAspectRatio="none" style="width:487px;height:426px;background:#FFFFFF;" version="1.1" viewBox="0 0 487 426" width="487px" zoomAndPan="magnify"><defs><filter height="300%" id="fxwxey2lfqddz" width="300%" x="-1" y="-1"><feGaussianBlur result="blurOut" stdDeviation="2.0"/><feColorMatrix in="blurOut" result="blurOut2" type="matrix" values="0 0 0 0 0 0 0 0 0 0 0 0 0 0 0 0 0 0 .4 0"/><feOffset dx="4.0" dy="4.0" in="blurOut2" result="blurOut3"/><feBlend in="SourceGraphic" in2="blurOut3" mode="normal"/></filter></defs><g><!--MD5=[a7f59980d172bff981d587cfd3d813d6]
class RouteOfContainerUI--><rect codeLine="3" fill="#FEFECE" filter="url(#fxwxey2lfqddz)" height="48" id="RouteOfContainerUI" style="stroke:#A80036;stroke-width:1.5;" width="143" x="168.5" y="7"/><ellipse cx="183.5" cy="23" fill="#ADD1B2" rx="11" ry="11" style="stroke:#A80036;stroke-width:1.0;"/><path d="M185.5,19.5 Q185.7031,19 185.9375,18.75 Q186.1719,18.5 186.4375,18.5 Q186.9063,18.5 187.2031,18.7813 Q187.5,19.0625 187.5,19.7188 L187.5,21.2813 Q187.5,21.9375 187.2188,22.2188 Q186.9375,22.5 186.5,22.5 Q186.1094,22.5 185.8594,22.3281 Q185.6094,22.1563 185.5,21.7031 Q185.4531,21.3906 185.2813,21.2188 Q184.9688,20.8906 184.4063,20.7031 Q183.8438,20.5 183.2813,20.5 Q182.5781,20.5 181.9844,20.7813 Q181.4063,21.0625 180.9531,21.6875 Q180.5,22.3125 180.5,23.1719 L180.5,24.0938 Q180.5,25.125 181.3438,25.8125 Q182.1875,26.5 183.6875,26.5 Q184.5781,26.5 185.2031,26.2969 Q185.5625,26.1875 185.9688,25.8281 Q186.2344,25.625 186.375,25.5625 Q186.5156,25.5 186.6875,25.5 Q187.0156,25.5 187.25,25.7656 Q187.5,26.0156 187.5,26.375 Q187.5,26.7188 187.1563,27.125 Q186.6563,27.7188 185.8594,28.0469 Q184.8125,28.5 183.5313,28.5 Q182.0313,28.5 180.8281,27.9063 Q179.8594,27.4375 179.1719,26.4219 Q178.5,25.4063 178.5,24.2031 L178.5,23.1094 Q178.5,21.8594 179.0938,20.7656 Q179.7031,19.6719 180.75,19.0938 Q181.8125,18.5 183,18.5 Q183.7188,18.5 184.3438,18.75 Q184.9688,19 185.5,19.5 Z " fill="#000000"/><text fill="#000000" font-family="sans-serif" font-size="12" lengthAdjust="spacing" textLength="111" x="197.5" y="27.9102">RouteOfContainerUI</text><line style="stroke:#A80036;stroke-width:1.5;" x1="169.5" x2="310.5" y1="39" y2="39"/><line style="stroke:#A80036;stroke-width:1.5;" x1="169.5" x2="310.5" y1="47" y2="47"/><!--MD5=[1a837df2e267e12079b462ceb15554da]
class ImportFromDataBase--><rect codeLine="7" fill="#FEFECE" filter="url(#fxwxey2lfqddz)" height="297.0469" id="ImportFromDataBase" style="stroke:#A80036;stroke-width:1.5;" width="466" x="7" y="115"/><ellipse cx="176.25" cy="131" fill="#ADD1B2" rx="11" ry="11" style="stroke:#A80036;stroke-width:1.0;"/><path d="M178.25,127.5 Q178.4531,127 178.6875,126.75 Q178.9219,126.5 179.1875,126.5 Q179.6563,126.5 179.9531,126.7813 Q180.25,127.0625 180.25,127.7188 L180.25,129.2813 Q180.25,129.9375 179.9688,130.2188 Q179.6875,130.5 179.25,130.5 Q178.8594,130.5 178.6094,130.3281 Q178.3594,130.1563 178.25,129.7031 Q178.2031,129.3906 178.0313,129.2188 Q177.7188,128.8906 177.1563,128.7031 Q176.5938,128.5 176.0313,128.5 Q175.3281,128.5 174.7344,128.7813 Q174.1563,129.0625 173.7031,129.6875 Q173.25,130.3125 173.25,131.1719 L173.25,132.0938 Q173.25,133.125 174.0938,133.8125 Q174.9375,134.5 176.4375,134.5 Q177.3281,134.5 177.9531,134.2969 Q178.3125,134.1875 178.7188,133.8281 Q178.9844,133.625 179.125,133.5625 Q179.2656,133.5 179.4375,133.5 Q179.7656,133.5 180,133.7656 Q180.25,134.0156 180.25,134.375 Q180.25,134.7188 179.9063,135.125 Q179.4063,135.7188 178.6094,136.0469 Q177.5625,136.5 176.2813,136.5 Q174.7813,136.5 173.5781,135.9063 Q172.6094,135.4375 171.9219,134.4219 Q171.25,133.4063 171.25,132.2031 L171.25,131.1094 Q171.25,129.8594 171.8438,128.7656 Q172.4531,127.6719 173.5,127.0938 Q174.5625,126.5 175.75,126.5 Q176.4688,126.5 177.0938,126.75 Q177.7188,127 178.25,127.5 Z " fill="#000000"/><text fill="#000000" font-family="sans-serif" font-size="12" lengthAdjust="spacing" textLength="119" x="196.75" y="135.9102">ImportFromDataBase</text><line style="stroke:#A80036;stroke-width:1.5;" x1="8" x2="472" y1="147" y2="147"/><line style="stroke:#A80036;stroke-width:1.5;" x1="8" x2="472" y1="155" y2="155"/><ellipse cx="18" cy="166" fill="#84BE84" rx="3" ry="3" style="stroke:#038048;stroke-width:1.0;"/><text fill="#000000" font-family="sans-serif" font-size="11" lengthAdjust="spacing" textLength="344" x="27" y="170.4189">getContainersByShipPortType(String shipIMO, String portID, String type)</text><ellipse cx="18" cy="179.8359" fill="#84BE84" rx="3" ry="3" style="stroke:#038048;stroke-width:1.0;"/><text fill="#000000" font-family="sans-serif" font-size="11" lengthAdjust="spacing" textLength="203" x="27" y="184.2549">getPositionOfContainer(String containerID)</text><ellipse cx="18" cy="193.6719" fill="#84BE84" rx="3" ry="3" style="stroke:#038048;stroke-width:1.0;"/><text fill="#000000" font-family="sans-serif" font-size="11" lengthAdjust="spacing" textLength="351" x="27" y="198.0908">getOccupancyRateByCargoManifest(String code, String cargo_manifest)</text><ellipse cx="18" cy="207.5078" fill="#84BE84" rx="3" ry="3" style="stroke:#038048;stroke-width:1.0;"/><text fill="#000000" font-family="sans-serif" font-size="11" lengthAdjust="spacing" textLength="249" x="27" y="211.9268">getOccupancyRateByDate(String code, String date)</text><ellipse cx="18" cy="221.3438" fill="#84BE84" rx="3" ry="3" style="stroke:#038048;stroke-width:1.0;"/><text fill="#000000" font-family="sans-serif" font-size="11" lengthAdjust="spacing" textLength="81" x="27" y="225.7627">getAllCountries()</text><ellipse cx="18" cy="235.1797" fill="#84BE84" rx="3" ry="3" style="stroke:#038048;stroke-width:1.0;"/><text fill="#000000" font-family="sans-serif" font-size="11" lengthAdjust="spacing" textLength="299" x="27" y="239.5986">getCountryBorders(Country country, List&lt;Country&gt; countries)</text><ellipse cx="18" cy="249.0156" fill="#84BE84" rx="3" ry="3" style="stroke:#038048;stroke-width:1.0;"/><text fill="#000000" font-family="sans-serif" font-size="11" lengthAdjust="spacing" textLength="279" x="27" y="253.4346">getCountryByName(String name, List&lt;Country&gt; countries)</text><ellipse cx="18" cy="262.8516" fill="#84BE84" rx="3" ry="3" style="stroke:#038048;stroke-width:1.0;"/><text fill="#000000" font-family="sans-serif" font-size="11" lengthAdjust="spacing" textLength="103" x="27" y="267.2705">getPortByID(String id)</text><ellipse cx="18" cy="276.6875" fill="#84BE84" rx="3" ry="3" style="stroke:#038048;stroke-width:1.0;"/><text fill="#000000" font-family="sans-serif" font-size="11" lengthAdjust="spacing" textLength="172" x="27" y="281.1064">getPortFromCountry(String country)</text><ellipse cx="18" cy="290.5234" fill="#84BE84" rx="3" ry="3" style="stroke:#038048;stroke-width:1.0;"/><text fill="#000000" font-family="sans-serif" font-size="11" lengthAdjust="spacing" textLength="378" x="27" y="294.9424">wrapLinkedHashMap(LinkedHashMap&lt;Port, Double&gt; linkedHashMap, Port port)</text><ellipse cx="18" cy="304.3594" fill="#84BE84" rx="3" ry="3" style="stroke:#038048;stroke-width:1.0;"/><text fill="#000000" font-family="sans-serif" font-size="11" lengthAdjust="spacing" textLength="234" x="27" y="308.7783">getDistanceBetweenPorts(Port port1, Port port2)</text><ellipse cx="18" cy="318.1953" fill="#84BE84" rx="3" ry="3" style="stroke:#038048;stroke-width:1.0;"/><text fill="#000000" font-family="sans-serif" font-size="11" lengthAdjust="spacing" textLength="164" x="27" y="322.6143">getPossibleConnections(Port port)</text><ellipse cx="18" cy="332.0313" fill="#84BE84" rx="3" ry="3" style="stroke:#038048;stroke-width:1.0;"/><text fill="#000000" font-family="sans-serif" font-size="11" lengthAdjust="spacing" textLength="275" x="27" y="336.4502">getRouteOfContainer(String containerID, String clientReg)</text><ellipse cx="18" cy="345.8672" fill="#84BE84" rx="3" ry="3" style="stroke:#038048;stroke-width:1.0;"/><text fill="#000000" font-family="sans-serif" font-size="11" lengthAdjust="spacing" textLength="165" x="27" y="350.2861">getEstimateOfContainersLeaving()</text><ellipse cx="18" cy="359.7031" fill="#84BE84" rx="3" ry="3" style="stroke:#038048;stroke-width:1.0;"/><text fill="#000000" font-family="sans-serif" font-size="11" lengthAdjust="spacing" textLength="193" x="27" y="364.1221">getOccupancyRateOfEachWarehouse()</text><ellipse cx="18" cy="373.5391" fill="#84BE84" rx="3" ry="3" style="stroke:#038048;stroke-width:1.0;"/><text fill="#000000" font-family="sans-serif" font-size="11" lengthAdjust="spacing" textLength="236" x="27" y="377.958">getOccupancyRateOfEachWarehouse(int month)</text><ellipse cx="18" cy="387.375" fill="#84BE84" rx="3" ry="3" style="stroke:#038048;stroke-width:1.0;"/><text fill="#000000" font-family="sans-serif" font-size="11" lengthAdjust="spacing" textLength="440" x="27" y="391.7939">addCargoManifestContainer(int cargoManifestID, int containerID, int posx, int posy, int posz)</text><ellipse cx="18" cy="401.2109" fill="#84BE84" rx="3" ry="3" style="stroke:#038048;stroke-width:1.0;"/><text fill="#000000" font-family="sans-serif" font-size="11" lengthAdjust="spacing" textLength="424" x="27" y="405.6299">addCargoManifest(int vehicleId, String warehouseId, String base_date_time, String type)</text><!--MD5=[c7a45dc507b15c63701118b573cb7278]
link RouteOfContainerUI to ImportFromDataBase--><path codeLine="29" d="M240,55.37 C240,69.41 240,88.61 240,109.7 " fill="none" id="RouteOfContainerUI-to-ImportFromDataBase" style="stroke:#A80036;stroke-width:1.0;stroke-dasharray:7.0,7.0;"/><polygon fill="#A80036" points="240,114.8,244,105.8,240,109.8,236,105.8,240,114.8" style="stroke:#A80036;stroke-width:1.0;"/><!--MD5=[2ebfb87c963cf689f85b47a90322b1e8]
@startuml
'https://plantuml.com/class-diagram

class RouteOfContainerUI{


}
class ImportFromDataBase{

+getContainersByShipPortType(String shipIMO, String portID, String type)
+getPositionOfContainer(String containerID)
+getOccupancyRateByCargoManifest(String code, String cargo_manifest)
+getOccupancyRateByDate(String code, String date)
+getAllCountries()
+getCountryBorders(Country country, List<Country> countries)
+getCountryByName(String name, List<Country> countries)
+getPortByID(String id)
+getPortFromCountry(String country)
+wrapLinkedHashMap(LinkedHashMap<Port, Double> linkedHashMap, Port port)
+getDistanceBetweenPorts(Port port1, Port port2)
+ getPossibleConnections(Port port)
+getRouteOfContainer(String containerID, String clientReg)
+getEstimateOfContainersLeaving()
+getOccupancyRateOfEachWarehouse()
+getOccupancyRateOfEachWarehouse(int month)
+addCargoManifestContainer(int cargoManifestID, int containerID, int posx, int posy, int posz)
+addCargoManifest(int vehicleId, String warehouseId, String base_date_time, String type)

}
RouteOfContainerUI  ..>  ImportFromDataBase
@enduml

@startuml

class RouteOfContainerUI{


}
class ImportFromDataBase{

+getContainersByShipPortType(String shipIMO, String portID, String type)
+getPositionOfContainer(String containerID)
+getOccupancyRateByCargoManifest(String code, String cargo_manifest)
+getOccupancyRateByDate(String code, String date)
+getAllCountries()
+getCountryBorders(Country country, List<Country> countries)
+getCountryByName(String name, List<Country> countries)
+getPortByID(String id)
+getPortFromCountry(String country)
+wrapLinkedHashMap(LinkedHashMap<Port, Double> linkedHashMap, Port port)
+getDistanceBetweenPorts(Port port1, Port port2)
+ getPossibleConnections(Port port)
+getRouteOfContainer(String containerID, String clientReg)
+getEstimateOfContainersLeaving()
+getOccupancyRateOfEachWarehouse()
+getOccupancyRateOfEachWarehouse(int month)
+addCargoManifestContainer(int cargoManifestID, int containerID, int posx, int posy, int posz)
+addCargoManifest(int vehicleId, String warehouseId, String base_date_time, String type)

}
RouteOfContainerUI  ..>  ImportFromDataBase
@enduml

PlantUML version 1.2021.11(Sat Oct 02 14:26:11 BST 2021)
(GPL source distribution)
Java Runtime: OpenJDK Runtime Environment
JVM: OpenJDK 64-Bit Server VM
Default Encoding: Cp1252
Language: pt
Country: PT
--></g></svg>