<?xml version="1.0" encoding="UTF-8" standalone="no"?><svg xmlns="http://www.w3.org/2000/svg" xmlns:xlink="http://www.w3.org/1999/xlink" contentScriptType="application/ecmascript" contentStyleType="text/css" height="604px" preserveAspectRatio="none" style="width:622px;height:604px;background:#FFFFFF;" version="1.1" viewBox="0 0 622 604" width="622px" zoomAndPan="magnify"><defs><filter height="300%" id="f1x7j8llavomtg" width="300%" x="-1" y="-1"><feGaussianBlur result="blurOut" stdDeviation="2.0"/><feColorMatrix in="blurOut" result="blurOut2" type="matrix" values="0 0 0 0 0 0 0 0 0 0 0 0 0 0 0 0 0 0 .4 0"/><feOffset dx="4.0" dy="4.0" in="blurOut2" result="blurOut3"/><feBlend in="SourceGraphic" in2="blurOut3" mode="normal"/></filter></defs><g><text fill="#000000" font-family="sans-serif" font-size="18" font-weight="bold" lengthAdjust="spacing" textLength="152" x="228.915" y="18.6855">CLASS DIAGRAM</text><text fill="#000000" font-family="sans-serif" font-size="18" lengthAdjust="spacing" textLength="0" x="307.415" y="41.3262"/><!--MD5=[bfe0fb33d2063efffcfb7fb1d5ace480]
class MovementController--><rect codeLine="4" fill="#FEFECE" filter="url(#f1x7j8llavomtg)" height="61.8359" id="MovementController" style="stroke:#A80036;stroke-width:1.5;" width="142" x="285.5" y="52.2813"/><ellipse cx="300.5" cy="68.2813" fill="#ADD1B2" rx="11" ry="11" style="stroke:#A80036;stroke-width:1.0;"/><path d="M302.5,64.7813 Q302.7031,64.2813 302.9375,64.0313 Q303.1719,63.7813 303.4375,63.7813 Q303.9063,63.7813 304.2031,64.0625 Q304.5,64.3438 304.5,65 L304.5,66.5625 Q304.5,67.2188 304.2188,67.5 Q303.9375,67.7813 303.5,67.7813 Q303.1094,67.7813 302.8594,67.6094 Q302.6094,67.4375 302.5,66.9844 Q302.4531,66.6719 302.2813,66.5 Q301.9688,66.1719 301.4063,65.9844 Q300.8438,65.7813 300.2813,65.7813 Q299.5781,65.7813 298.9844,66.0625 Q298.4063,66.3438 297.9531,66.9688 Q297.5,67.5938 297.5,68.4531 L297.5,69.375 Q297.5,70.4063 298.3438,71.0938 Q299.1875,71.7813 300.6875,71.7813 Q301.5781,71.7813 302.2031,71.5781 Q302.5625,71.4688 302.9688,71.1094 Q303.2344,70.9063 303.375,70.8438 Q303.5156,70.7813 303.6875,70.7813 Q304.0156,70.7813 304.25,71.0469 Q304.5,71.2969 304.5,71.6563 Q304.5,72 304.1563,72.4063 Q303.6563,73 302.8594,73.3281 Q301.8125,73.7813 300.5313,73.7813 Q299.0313,73.7813 297.8281,73.1875 Q296.8594,72.7188 296.1719,71.7031 Q295.5,70.6875 295.5,69.4844 L295.5,68.3906 Q295.5,67.1406 296.0938,66.0469 Q296.7031,64.9531 297.75,64.375 Q298.8125,63.7813 300,63.7813 Q300.7188,63.7813 301.3438,64.0313 Q301.9688,64.2813 302.5,64.7813 Z " fill="#000000"/><text fill="#000000" font-family="sans-serif" font-size="12" lengthAdjust="spacing" textLength="110" x="314.5" y="73.1914">MovementController</text><line style="stroke:#A80036;stroke-width:1.5;" x1="286.5" x2="426.5" y1="84.2813" y2="84.2813"/><line style="stroke:#A80036;stroke-width:1.5;" x1="286.5" x2="426.5" y1="92.2813" y2="92.2813"/><ellipse cx="296.5" cy="103.2813" fill="#84BE84" rx="3" ry="3" style="stroke:#038048;stroke-width:1.0;"/><text fill="#000000" font-family="sans-serif" font-size="11" lengthAdjust="spacing" textLength="45" x="305.5" y="107.7002">getData()</text><!--MD5=[52c062c1471ef7813808d37a3cd24309]
class MovementSortingTotalMovements--><rect codeLine="8" fill="#FEFECE" filter="url(#f1x7j8llavomtg)" height="61.8359" id="MovementSortingTotalMovements" style="stroke:#A80036;stroke-width:1.5;" width="217" x="7" y="174.2813"/><ellipse cx="22" cy="190.2813" fill="#ADD1B2" rx="11" ry="11" style="stroke:#A80036;stroke-width:1.0;"/><path d="M24,186.7813 Q24.2031,186.2813 24.4375,186.0313 Q24.6719,185.7813 24.9375,185.7813 Q25.4063,185.7813 25.7031,186.0625 Q26,186.3438 26,187 L26,188.5625 Q26,189.2188 25.7188,189.5 Q25.4375,189.7813 25,189.7813 Q24.6094,189.7813 24.3594,189.6094 Q24.1094,189.4375 24,188.9844 Q23.9531,188.6719 23.7813,188.5 Q23.4688,188.1719 22.9063,187.9844 Q22.3438,187.7813 21.7813,187.7813 Q21.0781,187.7813 20.4844,188.0625 Q19.9063,188.3438 19.4531,188.9688 Q19,189.5938 19,190.4531 L19,191.375 Q19,192.4063 19.8438,193.0938 Q20.6875,193.7813 22.1875,193.7813 Q23.0781,193.7813 23.7031,193.5781 Q24.0625,193.4688 24.4688,193.1094 Q24.7344,192.9063 24.875,192.8438 Q25.0156,192.7813 25.1875,192.7813 Q25.5156,192.7813 25.75,193.0469 Q26,193.2969 26,193.6563 Q26,194 25.6563,194.4063 Q25.1563,195 24.3594,195.3281 Q23.3125,195.7813 22.0313,195.7813 Q20.5313,195.7813 19.3281,195.1875 Q18.3594,194.7188 17.6719,193.7031 Q17,192.6875 17,191.4844 L17,190.3906 Q17,189.1406 17.5938,188.0469 Q18.2031,186.9531 19.25,186.375 Q20.3125,185.7813 21.5,185.7813 Q22.2188,185.7813 22.8438,186.0313 Q23.4688,186.2813 24,186.7813 Z " fill="#000000"/><text fill="#000000" font-family="sans-serif" font-size="12" lengthAdjust="spacing" textLength="185" x="36" y="195.1914">MovementSortingTotalMovements</text><line style="stroke:#A80036;stroke-width:1.5;" x1="8" x2="223" y1="206.2813" y2="206.2813"/><line style="stroke:#A80036;stroke-width:1.5;" x1="8" x2="223" y1="214.2813" y2="214.2813"/><ellipse cx="18" cy="225.2813" fill="#84BE84" rx="3" ry="3" style="stroke:#038048;stroke-width:1.0;"/><text fill="#000000" font-family="sans-serif" font-size="11" lengthAdjust="spacing" textLength="128" x="27" y="229.7002">compare(Ship o1, Ship o2)</text><!--MD5=[02e4b9b7573f1156f41e60aa5b4e25a4]
class Company--><rect codeLine="12" fill="#FEFECE" filter="url(#f1x7j8llavomtg)" height="61.8359" id="Company" style="stroke:#A80036;stroke-width:1.5;" width="96" x="243.5" y="296.2813"/><ellipse cx="263.45" cy="312.2813" fill="#ADD1B2" rx="11" ry="11" style="stroke:#A80036;stroke-width:1.0;"/><path d="M265.45,308.7813 Q265.6531,308.2813 265.8875,308.0313 Q266.1219,307.7813 266.3875,307.7813 Q266.8563,307.7813 267.1531,308.0625 Q267.45,308.3438 267.45,309 L267.45,310.5625 Q267.45,311.2188 267.1688,311.5 Q266.8875,311.7813 266.45,311.7813 Q266.0594,311.7813 265.8094,311.6094 Q265.5594,311.4375 265.45,310.9844 Q265.4031,310.6719 265.2313,310.5 Q264.9188,310.1719 264.3563,309.9844 Q263.7938,309.7813 263.2313,309.7813 Q262.5281,309.7813 261.9344,310.0625 Q261.3563,310.3438 260.9031,310.9688 Q260.45,311.5938 260.45,312.4531 L260.45,313.375 Q260.45,314.4063 261.2938,315.0938 Q262.1375,315.7813 263.6375,315.7813 Q264.5281,315.7813 265.1531,315.5781 Q265.5125,315.4688 265.9188,315.1094 Q266.1844,314.9063 266.325,314.8438 Q266.4656,314.7813 266.6375,314.7813 Q266.9656,314.7813 267.2,315.0469 Q267.45,315.2969 267.45,315.6563 Q267.45,316 267.1063,316.4063 Q266.6063,317 265.8094,317.3281 Q264.7625,317.7813 263.4813,317.7813 Q261.9813,317.7813 260.7781,317.1875 Q259.8094,316.7188 259.1219,315.7031 Q258.45,314.6875 258.45,313.4844 L258.45,312.3906 Q258.45,311.1406 259.0438,310.0469 Q259.6531,308.9531 260.7,308.375 Q261.7625,307.7813 262.95,307.7813 Q263.6688,307.7813 264.2938,308.0313 Q264.9188,308.2813 265.45,308.7813 Z " fill="#000000"/><text fill="#000000" font-family="sans-serif" font-size="12" lengthAdjust="spacing" textLength="53" x="278.55" y="317.1914">Company</text><line style="stroke:#A80036;stroke-width:1.5;" x1="244.5" x2="338.5" y1="328.2813" y2="328.2813"/><line style="stroke:#A80036;stroke-width:1.5;" x1="244.5" x2="338.5" y1="336.2813" y2="336.2813"/><ellipse cx="254.5" cy="347.2813" fill="#84BE84" rx="3" ry="3" style="stroke:#038048;stroke-width:1.0;"/><text fill="#000000" font-family="sans-serif" font-size="11" lengthAdjust="spacing" textLength="70" x="263.5" y="351.7002">getShipStore()</text><!--MD5=[ab1b7807585a0b4b39d42f10b24aa895]
class MovementSortingTravelDistance--><rect codeLine="16" fill="#FEFECE" filter="url(#f1x7j8llavomtg)" height="61.8359" id="MovementSortingTravelDistance" style="stroke:#A80036;stroke-width:1.5;" width="209" x="331" y="174.2813"/><ellipse cx="346" cy="190.2813" fill="#ADD1B2" rx="11" ry="11" style="stroke:#A80036;stroke-width:1.0;"/><path d="M348,186.7813 Q348.2031,186.2813 348.4375,186.0313 Q348.6719,185.7813 348.9375,185.7813 Q349.4063,185.7813 349.7031,186.0625 Q350,186.3438 350,187 L350,188.5625 Q350,189.2188 349.7188,189.5 Q349.4375,189.7813 349,189.7813 Q348.6094,189.7813 348.3594,189.6094 Q348.1094,189.4375 348,188.9844 Q347.9531,188.6719 347.7813,188.5 Q347.4688,188.1719 346.9063,187.9844 Q346.3438,187.7813 345.7813,187.7813 Q345.0781,187.7813 344.4844,188.0625 Q343.9063,188.3438 343.4531,188.9688 Q343,189.5938 343,190.4531 L343,191.375 Q343,192.4063 343.8438,193.0938 Q344.6875,193.7813 346.1875,193.7813 Q347.0781,193.7813 347.7031,193.5781 Q348.0625,193.4688 348.4688,193.1094 Q348.7344,192.9063 348.875,192.8438 Q349.0156,192.7813 349.1875,192.7813 Q349.5156,192.7813 349.75,193.0469 Q350,193.2969 350,193.6563 Q350,194 349.6563,194.4063 Q349.1563,195 348.3594,195.3281 Q347.3125,195.7813 346.0313,195.7813 Q344.5313,195.7813 343.3281,195.1875 Q342.3594,194.7188 341.6719,193.7031 Q341,192.6875 341,191.4844 L341,190.3906 Q341,189.1406 341.5938,188.0469 Q342.2031,186.9531 343.25,186.375 Q344.3125,185.7813 345.5,185.7813 Q346.2188,185.7813 346.8438,186.0313 Q347.4688,186.2813 348,186.7813 Z " fill="#000000"/><text fill="#000000" font-family="sans-serif" font-size="12" lengthAdjust="spacing" textLength="177" x="360" y="195.1914">MovementSortingTravelDistance</text><line style="stroke:#A80036;stroke-width:1.5;" x1="332" x2="539" y1="206.2813" y2="206.2813"/><line style="stroke:#A80036;stroke-width:1.5;" x1="332" x2="539" y1="214.2813" y2="214.2813"/><ellipse cx="342" cy="225.2813" fill="#84BE84" rx="3" ry="3" style="stroke:#038048;stroke-width:1.0;"/><text fill="#000000" font-family="sans-serif" font-size="11" lengthAdjust="spacing" textLength="128" x="351" y="229.7002">compare(Ship o1, Ship o2)</text><!--MD5=[ea2206eefe09474e90beb17e18e6b3d8]
class ShipStore--><rect codeLine="20" fill="#FEFECE" filter="url(#f1x7j8llavomtg)" height="172.5234" id="ShipStore" style="stroke:#A80036;stroke-width:1.5;" width="150" x="295.5" y="418.2813"/><ellipse cx="339.3" cy="434.2813" fill="#ADD1B2" rx="11" ry="11" style="stroke:#A80036;stroke-width:1.0;"/><path d="M341.3,430.7813 Q341.5031,430.2813 341.7375,430.0313 Q341.9719,429.7813 342.2375,429.7813 Q342.7063,429.7813 343.0031,430.0625 Q343.3,430.3438 343.3,431 L343.3,432.5625 Q343.3,433.2188 343.0188,433.5 Q342.7375,433.7813 342.3,433.7813 Q341.9094,433.7813 341.6594,433.6094 Q341.4094,433.4375 341.3,432.9844 Q341.2531,432.6719 341.0813,432.5 Q340.7688,432.1719 340.2063,431.9844 Q339.6438,431.7813 339.0813,431.7813 Q338.3781,431.7813 337.7844,432.0625 Q337.2063,432.3438 336.7531,432.9688 Q336.3,433.5938 336.3,434.4531 L336.3,435.375 Q336.3,436.4063 337.1438,437.0938 Q337.9875,437.7813 339.4875,437.7813 Q340.3781,437.7813 341.0031,437.5781 Q341.3625,437.4688 341.7688,437.1094 Q342.0344,436.9063 342.175,436.8438 Q342.3156,436.7813 342.4875,436.7813 Q342.8156,436.7813 343.05,437.0469 Q343.3,437.2969 343.3,437.6563 Q343.3,438 342.9563,438.4063 Q342.4563,439 341.6594,439.3281 Q340.6125,439.7813 339.3313,439.7813 Q337.8313,439.7813 336.6281,439.1875 Q335.6594,438.7188 334.9719,437.7031 Q334.3,436.6875 334.3,435.4844 L334.3,434.3906 Q334.3,433.1406 334.8938,432.0469 Q335.5031,430.9531 336.55,430.375 Q337.6125,429.7813 338.8,429.7813 Q339.5188,429.7813 340.1438,430.0313 Q340.7688,430.2813 341.3,430.7813 Z " fill="#000000"/><text fill="#000000" font-family="sans-serif" font-size="12" lengthAdjust="spacing" textLength="54" x="359.7" y="439.1914">ShipStore</text><line style="stroke:#A80036;stroke-width:1.5;" x1="296.5" x2="444.5" y1="450.2813" y2="450.2813"/><line style="stroke:#A80036;stroke-width:1.5;" x1="296.5" x2="444.5" y1="458.2813" y2="458.2813"/><ellipse cx="306.5" cy="469.2813" fill="#84BE84" rx="3" ry="3" style="stroke:#038048;stroke-width:1.0;"/><text fill="#000000" font-family="sans-serif" font-size="11" lengthAdjust="spacing" textLength="55" x="315.5" y="473.7002">ShipStore()</text><ellipse cx="306.5" cy="483.1172" fill="#84BE84" rx="3" ry="3" style="stroke:#038048;stroke-width:1.0;"/><text fill="#000000" font-family="sans-serif" font-size="11" lengthAdjust="spacing" textLength="39" x="315.5" y="487.5361">getBst()</text><ellipse cx="306.5" cy="496.9531" fill="#84BE84" rx="3" ry="3" style="stroke:#038048;stroke-width:1.0;"/><text fill="#000000" font-family="sans-serif" font-size="11" lengthAdjust="spacing" textLength="61" x="315.5" y="501.3721">getShipList()</text><ellipse cx="306.5" cy="510.7891" fill="#84BE84" rx="3" ry="3" style="stroke:#038048;stroke-width:1.0;"/><text fill="#000000" font-family="sans-serif" font-size="11" lengthAdjust="spacing" textLength="67" x="315.5" y="515.208">addShip(ship)</text><ellipse cx="306.5" cy="524.625" fill="#84BE84" rx="3" ry="3" style="stroke:#038048;stroke-width:1.0;"/><text fill="#000000" font-family="sans-serif" font-size="11" lengthAdjust="spacing" textLength="99" x="315.5" y="529.0439">containsMMSI(MMSI)</text><ellipse cx="306.5" cy="538.4609" fill="#84BE84" rx="3" ry="3" style="stroke:#038048;stroke-width:1.0;"/><text fill="#000000" font-family="sans-serif" font-size="11" lengthAdjust="spacing" textLength="85" x="315.5" y="542.8799">containsIMO(IMO)</text><ellipse cx="306.5" cy="552.2969" fill="#84BE84" rx="3" ry="3" style="stroke:#038048;stroke-width:1.0;"/><text fill="#000000" font-family="sans-serif" font-size="11" lengthAdjust="spacing" textLength="124" x="315.5" y="556.7158">containsCallSign(callSign)</text><ellipse cx="306.5" cy="566.1328" fill="#84BE84" rx="3" ry="3" style="stroke:#038048;stroke-width:1.0;"/><text fill="#000000" font-family="sans-serif" font-size="11" lengthAdjust="spacing" textLength="68" x="315.5" y="570.5518">getShip(code)</text><ellipse cx="306.5" cy="579.9688" fill="#84BE84" rx="3" ry="3" style="stroke:#038048;stroke-width:1.0;"/><text fill="#000000" font-family="sans-serif" font-size="11" lengthAdjust="spacing" textLength="97" x="315.5" y="584.3877">shipSummary(code)</text><!--MD5=[148ee1545855bdabda7c17cdafcb5803]
link MovementController to Company--><path codeLine="32" d="M339.18,114.5913 C330.19,131.6212 319.79,153.5713 313.5,174.2813 C301.68,213.2313 296.13,259.7813 293.58,291.0213 " fill="none" id="MovementController-to-Company" style="stroke:#A80036;stroke-width:1.0;stroke-dasharray:7.0,7.0;"/><polygon fill="#A80036" points="293.17,296.2813,297.8523,287.6166,293.5557,291.2961,289.8761,286.9995,293.17,296.2813" style="stroke:#A80036;stroke-width:1.0;"/><!--MD5=[6b4a94d80660e97c6833bde801bd4c89]
link Company to ShipStore--><path codeLine="33" d="M305.08,358.4512 C312.02,373.8713 320.88,393.5513 329.82,413.4013 " fill="none" id="Company-to-ShipStore" style="stroke:#A80036;stroke-width:1.0;stroke-dasharray:7.0,7.0;"/><polygon fill="#A80036" points="331.97,418.1813,331.9129,408.3326,329.9128,413.6241,324.6213,411.624,331.97,418.1813" style="stroke:#A80036;stroke-width:1.0;"/><!--MD5=[98c92a456e6318487224ee91d459c729]
link MovementController to ShipStore--><path codeLine="34" d="M427.95,96.0412 C473.46,107.6413 529.02,130.3213 557.5,174.2813 C615.83,264.3013 523.95,373.3513 449.58,440.6513 " fill="none" id="MovementController-to-ShipStore" style="stroke:#A80036;stroke-width:1.0;stroke-dasharray:7.0,7.0;"/><polygon fill="#A80036" points="445.6,444.2213,454.9713,441.1916,449.3228,440.8835,449.6309,435.2351,445.6,444.2213" style="stroke:#A80036;stroke-width:1.0;"/><!--MD5=[c9d593bc675c8ef3011fb4f58a279c50]
link MovementController to MovementSortingTotalMovements--><path codeLine="35" d="M296,114.4113 C260.9,131.8813 216.69,153.8913 180.81,171.7613 " fill="none" id="MovementController-to-MovementSortingTotalMovements" style="stroke:#A80036;stroke-width:1.0;stroke-dasharray:7.0,7.0;"/><polygon fill="#A80036" points="176.03,174.1413,185.8693,173.7066,180.505,171.9109,182.3007,166.5466,176.03,174.1413" style="stroke:#A80036;stroke-width:1.0;"/><!--MD5=[33341d89bf8b54b5b0cfbcf0decaf7e3]
link MovementSortingTotalMovements to Company--><path codeLine="36" d="M159.91,236.5612 C185.23,253.8213 216.99,275.4813 242.96,293.1813 " fill="none" id="MovementSortingTotalMovements-to-Company" style="stroke:#A80036;stroke-width:1.0;stroke-dasharray:7.0,7.0;"/><polygon fill="#A80036" points="247.41,296.2213,242.213,287.8552,243.274,293.4117,237.7176,294.4727,247.41,296.2213" style="stroke:#A80036;stroke-width:1.0;"/><!--MD5=[7749bee219ba5dd0d49952523ea9898a]
link MovementSortingTotalMovements to ShipStore--><path codeLine="37" d="M135.27,236.4613 C156.34,267.9013 191.3,318.0913 225.5,358.2813 C245.82,382.1613 269.28,406.7913 291.33,428.8513 " fill="none" id="MovementSortingTotalMovements-to-ShipStore" style="stroke:#A80036;stroke-width:1.0;stroke-dasharray:7.0,7.0;"/><polygon fill="#A80036" points="295.15,432.6513,291.5959,423.466,291.6073,429.1229,285.9505,429.1343,295.15,432.6513" style="stroke:#A80036;stroke-width:1.0;"/><!--MD5=[2c8ec1eeb93a4740628bb5bbc3db5b76]
link MovementController to MovementSortingTravelDistance--><path codeLine="38" d="M376.44,114.5612 C387.48,131.3313 401.24,152.2412 412.71,169.6613 " fill="none" id="MovementController-to-MovementSortingTravelDistance" style="stroke:#A80036;stroke-width:1.0;stroke-dasharray:7.0,7.0;"/><polygon fill="#A80036" points="415.57,174.0113,413.9676,164.2936,412.823,169.8335,407.2831,168.6889,415.57,174.0113" style="stroke:#A80036;stroke-width:1.0;"/><!--MD5=[e2f5030c4d89dd84233e71f196e55b03]
link MovementSortingTravelDistance to Company--><path codeLine="39" d="M399.16,236.5612 C378.53,253.7513 352.68,275.3013 331.48,292.9613 " fill="none" id="MovementSortingTravelDistance-to-Company" style="stroke:#A80036;stroke-width:1.0;stroke-dasharray:7.0,7.0;"/><polygon fill="#A80036" points="327.58,296.2213,337.0557,293.5359,331.4223,293.0217,331.9365,287.3883,327.58,296.2213" style="stroke:#A80036;stroke-width:1.0;"/><!--MD5=[80f48d138e7f5281be77f7d099a61813]
link MovementSortingTravelDistance to ShipStore--><path codeLine="40" d="M428.91,236.4413 C419.93,277.5413 403.47,352.8913 390.3,413.1513 " fill="none" id="MovementSortingTravelDistance-to-ShipStore" style="stroke:#A80036;stroke-width:1.0;stroke-dasharray:7.0,7.0;"/><polygon fill="#A80036" points="389.2,418.2012,395.0129,410.2507,390.2574,413.3143,387.1938,408.5589,389.2,418.2012" style="stroke:#A80036;stroke-width:1.0;"/><!--MD5=[2fc521e8419cd7a6ad7a826988a8c5de]
@startuml

title <b>CLASS DIAGRAM\n

class MovementController{
+ getData()
}

class MovementSortingTotalMovements{
+ compare(Ship o1, Ship o2)
}

class Company{
+ getShipStore()
}

class MovementSortingTravelDistance{
+ compare(Ship o1, Ship o2)
}

class ShipStore{
+ShipStore()
+getBst()
+getShipList()
+addShip(ship)
+containsMMSI(MMSI)
+containsIMO(IMO)
+containsCallSign(callSign)
+getShip(code)
+shipSummary(code)
}

MovementController ..> Company
Company ..> ShipStore
MovementController ..> ShipStore
MovementController ..> MovementSortingTotalMovements
MovementSortingTotalMovements ..> Company
MovementSortingTotalMovements ..> ShipStore
MovementController ..> MovementSortingTravelDistance
MovementSortingTravelDistance ..> Company
MovementSortingTravelDistance ..> ShipStore

@enduml

PlantUML version 1.2021.11(Sat Oct 02 14:26:11 BST 2021)
(GPL source distribution)
Java Runtime: OpenJDK Runtime Environment
JVM: OpenJDK 64-Bit Server VM
Default Encoding: Cp1252
Language: pt
Country: PT
--></g></svg>