<?xml version="1.0" encoding="UTF-8" standalone="no"?><svg xmlns="http://www.w3.org/2000/svg" xmlns:xlink="http://www.w3.org/1999/xlink" contentScriptType="application/ecmascript" contentStyleType="text/css" height="1154.4px" preserveAspectRatio="none" style="width:1050px;height:1154px;background:#FFFFFF;" version="1.1" viewBox="0 0 1050 1154" width="1050.4px" zoomAndPan="magnify"><defs><filter height="300%" id="f1gydqfq6vn687" width="300%" x="-1" y="-1"><feGaussianBlur result="blurOut" stdDeviation="1.6000000000000003"/><feColorMatrix in="blurOut" result="blurOut2" type="matrix" values="0 0 0 0 0 0 0 0 0 0 0 0 0 0 0 0 0 0 .4 0"/><feOffset dx="3.2000000000000006" dy="3.2000000000000006" in="blurOut2" result="blurOut3"/><feBlend in="SourceGraphic" in2="blurOut3" mode="normal"/></filter></defs><g><!--MD5=[335f4d9be48430461c68bf6d6fdba145]
class App--><rect codeLine="3" fill="#FEFECE" filter="url(#f1gydqfq6vn687)" height="138.0188" id="App" style="stroke:#A80036;stroke-width:1.2000000000000002;" width="117.6" x="5.6" y="44"/><ellipse cx="52.6" cy="56.8" fill="#ADD1B2" rx="8.8" ry="8.8" style="stroke:#A80036;stroke-width:0.8000000000000002;"/><path d="M54.2,54 Q54.3625,53.6 54.55,53.4 Q54.7375,53.2 54.95,53.2 Q55.325,53.2 55.5625,53.425 Q55.8,53.65 55.8,54.175 L55.8,55.425 Q55.8,55.95 55.575,56.175 Q55.35,56.4 55,56.4 Q54.6875,56.4 54.4875,56.2625 Q54.2875,56.125 54.2,55.7625 Q54.1625,55.5125 54.025,55.375 Q53.775,55.1125 53.325,54.9625 Q52.875,54.8 52.425,54.8 Q51.8625,54.8 51.3875,55.025 Q50.925,55.25 50.5625,55.75 Q50.2,56.25 50.2,56.9375 L50.2,57.675 Q50.2,58.5 50.875,59.05 Q51.55,59.6 52.75,59.6 Q53.4625,59.6 53.9625,59.4375 Q54.25,59.35 54.575,59.0625 Q54.7875,58.9 54.9,58.85 Q55.0125,58.8 55.15,58.8 Q55.4125,58.8 55.6,59.0125 Q55.8,59.2125 55.8,59.5 Q55.8,59.775 55.525,60.1 Q55.125,60.575 54.4875,60.8375 Q53.65,61.2 52.625,61.2 Q51.425,61.2 50.4625,60.725 Q49.6875,60.35 49.1375,59.5375 Q48.6,58.725 48.6,57.7625 L48.6,56.8875 Q48.6,55.8875 49.075,55.0125 Q49.5625,54.1375 50.4,53.675 Q51.25,53.2 52.2,53.2 Q52.775,53.2 53.275,53.4 Q53.775,53.6 54.2,54 Z " fill="#000000"/><text fill="#000000" font-family="sans-serif" font-size="9.6" lengthAdjust="spacing" textLength="16.8" x="69" y="60.7281">App</text><line style="stroke:#A80036;stroke-width:1.2000000000000002;" x1="6.4" x2="122.4" y1="69.6" y2="69.6"/><rect fill="none" height="4.8" style="stroke:#C82930;stroke-width:0.8000000000000002;" width="4.8" x="12" y="76"/><text fill="#000000" font-family="sans-serif" font-size="8.8" lengthAdjust="spacing" textLength="34.4" x="21.6" y="81.9352">singleton</text><rect fill="none" height="4.8" style="stroke:#C82930;stroke-width:0.8000000000000002;" width="4.8" x="12" y="87.0688"/><text fill="#000000" font-family="sans-serif" font-size="8.8" lengthAdjust="spacing" textLength="37.6" x="21.6" y="93.0039">company;</text><rect fill="none" height="4.8" style="stroke:#C82930;stroke-width:0.8000000000000002;" width="4.8" x="12" y="98.1375"/><text fill="#000000" font-family="sans-serif" font-size="8.8" lengthAdjust="spacing" textLength="48" x="21.6" y="104.0727">authFacade;</text><line style="stroke:#A80036;stroke-width:1.2000000000000002;" x1="6.4" x2="122.4" y1="109.2063" y2="109.2063"/><rect fill="#F24D5C" height="4.8" style="stroke:#C82930;stroke-width:0.8000000000000002;" width="4.8" x="12" y="115.6063"/><text fill="#000000" font-family="sans-serif" font-size="8.8" lengthAdjust="spacing" textLength="43.2" x="21.6" y="121.5414">bootstrap()</text><rect fill="#F24D5C" height="4.8" style="stroke:#C82930;stroke-width:0.8000000000000002;" width="4.8" x="12" y="126.675"/><text fill="#000000" font-family="sans-serif" font-size="8.8" lengthAdjust="spacing" textLength="22.4" x="21.6" y="132.6102">App()</text><ellipse cx="14.4" cy="140.1438" fill="#84BE84" rx="2.4" ry="2.4" style="stroke:#038048;stroke-width:0.8000000000000002;"/><text fill="#000000" font-family="sans-serif" font-size="8.8" lengthAdjust="spacing" textLength="54.4" x="21.6" y="143.6789">getCompany()</text><ellipse cx="14.4" cy="151.2125" fill="#84BE84" rx="2.4" ry="2.4" style="stroke:#038048;stroke-width:0.8000000000000002;"/><text fill="#000000" font-family="sans-serif" font-size="8.8" lengthAdjust="spacing" textLength="96.8" x="21.6" y="154.7477">getCurrentUserSession()</text><ellipse cx="14.4" cy="162.2813" fill="#84BE84" rx="2.4" ry="2.4" style="stroke:#038048;stroke-width:0.8000000000000002;"/><text fill="#000000" font-family="sans-serif" font-size="8.8" lengthAdjust="spacing" textLength="78.4" x="21.6" y="165.8164">doLogin(email, pwd)</text><ellipse cx="14.4" cy="173.35" fill="#84BE84" rx="2.4" ry="2.4" style="stroke:#038048;stroke-width:0.8000000000000002;"/><text fill="#000000" font-family="sans-serif" font-size="8.8" lengthAdjust="spacing" textLength="42.4" x="21.6" y="176.8852">doLogout()</text><!--MD5=[706e73df52f3df32f52be1ce9adb217e]
class Graph--><rect codeLine="14" fill="#FEFECE" filter="url(#f1gydqfq6vn687)" height="270.8438" id="Graph" style="stroke:#A80036;stroke-width:1.2000000000000002;" width="128.8" x="604.8" y="279.2"/><ellipse cx="652.2" cy="292" fill="#B4A7E5" rx="8.8" ry="8.8" style="stroke:#A80036;stroke-width:0.8000000000000002;"/><path d="M653,289.6 L653,294.4 L654.6,294.4 L654.9875,294.4 L655.4,294.9 L655.4,295.2 L655.4,295.5 L654.9875,296 L654.6,296 L649.8,296 L649.4125,296 L649,295.5 L649,295.2 L649,294.9 L649.4125,294.4 L649.8,294.4 L651.4,294.4 L651.4,289.6 L649.8,289.6 L649.4125,289.6 L649,289.1 L649,288.8 L649,288.5 L649.4125,288 L649.8,288 L654.6,288 L654.9875,288 L655.4,288.5 L655.4,288.8 L655.4,289.1 L654.9875,289.6 L654.6,289.6 L653,289.6 Z " fill="#000000"/><text fill="#000000" font-family="sans-serif" font-size="9.6" font-style="italic" lengthAdjust="spacing" textLength="27.2" x="668.6" y="295.9281">Graph</text><line style="stroke:#A80036;stroke-width:1.2000000000000002;" x1="605.6" x2="732.8" y1="304.8" y2="304.8"/><line style="stroke:#A80036;stroke-width:1.2000000000000002;" x1="605.6" x2="732.8" y1="311.2" y2="311.2"/><text fill="#000000" font-family="sans-serif" font-size="8.8" lengthAdjust="spacing" textLength="44.8" x="609.6" y="323.5352">isDirected()</text><text fill="#000000" font-family="sans-serif" font-size="8.8" lengthAdjust="spacing" textLength="55.2" x="609.6" y="334.6039">numVertices()</text><text fill="#000000" font-family="sans-serif" font-size="8.8" lengthAdjust="spacing" textLength="37.6" x="609.6" y="345.6727">vertices()</text><text fill="#000000" font-family="sans-serif" font-size="8.8" lengthAdjust="spacing" textLength="65.6" x="609.6" y="356.7414">validVertex(vert)</text><text fill="#000000" font-family="sans-serif" font-size="8.8" lengthAdjust="spacing" textLength="35.2" x="609.6" y="367.8102">key(vert)</text><text fill="#000000" font-family="sans-serif" font-size="8.8" lengthAdjust="spacing" textLength="44.8" x="609.6" y="378.8789">vertex(key)</text><text fill="#000000" font-family="sans-serif" font-size="8.8" lengthAdjust="spacing" textLength="36" x="609.6" y="389.9477">vertex(p)</text><text fill="#000000" font-family="sans-serif" font-size="8.8" lengthAdjust="spacing" textLength="65.6" x="609.6" y="401.0164">adjVertices(vert)</text><text fill="#000000" font-family="sans-serif" font-size="8.8" lengthAdjust="spacing" textLength="46.4" x="609.6" y="412.0852">numEdges()</text><text fill="#000000" font-family="sans-serif" font-size="8.8" lengthAdjust="spacing" textLength="30.4" x="609.6" y="423.1539">edges()</text><text fill="#000000" font-family="sans-serif" font-size="8.8" lengthAdjust="spacing" textLength="73.6" x="609.6" y="434.2227">edge(vOrig, vDest)</text><text fill="#000000" font-family="sans-serif" font-size="8.8" lengthAdjust="spacing" textLength="104" x="609.6" y="445.2914">edge(vOrigKey, vDestKey)</text><text fill="#000000" font-family="sans-serif" font-size="8.8" lengthAdjust="spacing" textLength="61.6" x="609.6" y="456.3602">outDegree(vert)</text><text fill="#000000" font-family="sans-serif" font-size="8.8" lengthAdjust="spacing" textLength="56" x="609.6" y="467.4289">inDegree(vert)</text><text fill="#000000" font-family="sans-serif" font-size="8.8" lengthAdjust="spacing" textLength="78.4" x="609.6" y="478.4977">outgoingEdges(vert)</text><text fill="#000000" font-family="sans-serif" font-size="8.8" lengthAdjust="spacing" textLength="79.2" x="609.6" y="489.5664">incomingEdges(vert)</text><text fill="#000000" font-family="sans-serif" font-size="8.8" lengthAdjust="spacing" textLength="95.2" x="609.6" y="500.6352">boolean addVertex(vert)</text><text fill="#000000" font-family="sans-serif" font-size="8.8" lengthAdjust="spacing" textLength="119.2" x="609.6" y="511.7039">addEdge(vOrig, vDest, weight)</text><text fill="#000000" font-family="sans-serif" font-size="8.8" lengthAdjust="spacing" textLength="76.8" x="609.6" y="522.7727">removeVertex(vert)</text><text fill="#000000" font-family="sans-serif" font-size="8.8" lengthAdjust="spacing" textLength="102.4" x="609.6" y="533.8414">removeEdge(vOrig, vDest)</text><text fill="#000000" font-family="sans-serif" font-size="8.8" lengthAdjust="spacing" textLength="27.2" x="609.6" y="544.9102">clone()</text><!--MD5=[bc4d72eb6311fa75f72dcf1fe1932b09]
class MapVertex--><rect codeLine="38" fill="#FEFECE" filter="url(#f1gydqfq6vn687)" height="204.4313" id="MapVertex" style="stroke:#A80036;stroke-width:1.2000000000000002;" width="115.2" x="502" y="939.2"/><ellipse cx="534.16" cy="952" fill="#ADD1B2" rx="8.8" ry="8.8" style="stroke:#A80036;stroke-width:0.8000000000000002;"/><path d="M535.76,949.2 Q535.9225,948.8 536.11,948.6 Q536.2975,948.4 536.51,948.4 Q536.885,948.4 537.1225,948.625 Q537.36,948.85 537.36,949.375 L537.36,950.625 Q537.36,951.15 537.135,951.375 Q536.91,951.6 536.56,951.6 Q536.2475,951.6 536.0475,951.4625 Q535.8475,951.325 535.76,950.9625 Q535.7225,950.7125 535.585,950.575 Q535.335,950.3125 534.885,950.1625 Q534.435,950 533.985,950 Q533.4225,950 532.9475,950.225 Q532.485,950.45 532.1225,950.95 Q531.76,951.45 531.76,952.1375 L531.76,952.875 Q531.76,953.7 532.435,954.25 Q533.11,954.8 534.31,954.8 Q535.0225,954.8 535.5225,954.6375 Q535.81,954.55 536.135,954.2625 Q536.3475,954.1 536.46,954.05 Q536.5725,954 536.71,954 Q536.9725,954 537.16,954.2125 Q537.36,954.4125 537.36,954.7 Q537.36,954.975 537.085,955.3 Q536.685,955.775 536.0475,956.0375 Q535.21,956.4 534.185,956.4 Q532.985,956.4 532.0225,955.925 Q531.2475,955.55 530.6975,954.7375 Q530.16,953.925 530.16,952.9625 L530.16,952.0875 Q530.16,951.0875 530.635,950.2125 Q531.1225,949.3375 531.96,948.875 Q532.81,948.4 533.76,948.4 Q534.335,948.4 534.835,948.6 Q535.335,948.8 535.76,949.2 Z " fill="#000000"/><text fill="#000000" font-family="sans-serif" font-size="9.6" lengthAdjust="spacing" textLength="44.8" x="549.84" y="955.9281">MapVertex</text><line style="stroke:#A80036;stroke-width:1.2000000000000002;" x1="502.8" x2="616.4" y1="964.8" y2="964.8"/><rect fill="none" height="4.8" style="stroke:#C82930;stroke-width:0.8000000000000002;" width="4.8" x="508.4" y="971.2"/><text fill="#000000" font-family="sans-serif" font-size="8.8" lengthAdjust="spacing" textLength="32" x="518" y="977.1352">element;</text><rect fill="none" height="4.8" style="stroke:#C82930;stroke-width:0.8000000000000002;" width="4.8" x="508.4" y="982.2688"/><text fill="#000000" font-family="sans-serif" font-size="8.8" lengthAdjust="spacing" textLength="36" x="518" y="988.2039">outVerts;</text><line style="stroke:#A80036;stroke-width:1.2000000000000002;" x1="502.8" x2="616.4" y1="993.3375" y2="993.3375"/><ellipse cx="510.8" cy="1002.1375" fill="#84BE84" rx="2.4" ry="2.4" style="stroke:#038048;stroke-width:0.8000000000000002;"/><text fill="#000000" font-family="sans-serif" font-size="8.8" lengthAdjust="spacing" textLength="64" x="518" y="1005.6727">MapVertex(vert)</text><text fill="#000000" font-family="sans-serif" font-size="8.8" lengthAdjust="spacing" textLength="0" x="520.4" y="1016.7414"/><ellipse cx="510.8" cy="1024.275" fill="#84BE84" rx="2.4" ry="2.4" style="stroke:#038048;stroke-width:0.8000000000000002;"/><text fill="#000000" font-family="sans-serif" font-size="8.8" lengthAdjust="spacing" textLength="48" x="518" y="1027.8102">getElement()</text><ellipse cx="510.8" cy="1035.3438" fill="#84BE84" rx="2.4" ry="2.4" style="stroke:#038048;stroke-width:0.8000000000000002;"/><text fill="#000000" font-family="sans-serif" font-size="8.8" lengthAdjust="spacing" textLength="94.4" x="518" y="1038.8789">addAdjVert(vAdj,  edge)</text><text fill="#000000" font-family="sans-serif" font-size="8.8" lengthAdjust="spacing" textLength="0" x="520.4" y="1049.9477"/><ellipse cx="510.8" cy="1057.4813" fill="#84BE84" rx="2.4" ry="2.4" style="stroke:#038048;stroke-width:0.8000000000000002;"/><text fill="#000000" font-family="sans-serif" font-size="8.8" lengthAdjust="spacing" textLength="68" x="518" y="1061.0164">remAdjVert(vAdj)</text><ellipse cx="510.8" cy="1068.55" fill="#84BE84" rx="2.4" ry="2.4" style="stroke:#038048;stroke-width:0.8000000000000002;"/><text fill="#000000" font-family="sans-serif" font-size="8.8" lengthAdjust="spacing" textLength="55.2" x="518" y="1072.0852">getEdge(vAdj)</text><ellipse cx="510.8" cy="1079.6188" fill="#84BE84" rx="2.4" ry="2.4" style="stroke:#038048;stroke-width:0.8000000000000002;"/><text fill="#000000" font-family="sans-serif" font-size="8.8" lengthAdjust="spacing" textLength="56.8" x="518" y="1083.1539">numAdjVerts()</text><text fill="#000000" font-family="sans-serif" font-size="8.8" lengthAdjust="spacing" textLength="0" x="520.4" y="1094.2227"/><ellipse cx="510.8" cy="1101.7563" fill="#84BE84" rx="2.4" ry="2.4" style="stroke:#038048;stroke-width:0.8000000000000002;"/><text fill="#000000" font-family="sans-serif" font-size="8.8" lengthAdjust="spacing" textLength="62.4" x="518" y="1105.2914">getAllAdjVerts()</text><text fill="#000000" font-family="sans-serif" font-size="8.8" lengthAdjust="spacing" textLength="0" x="520.4" y="1116.3602"/><ellipse cx="510.8" cy="1123.8938" fill="#84BE84" rx="2.4" ry="2.4" style="stroke:#038048;stroke-width:0.8000000000000002;"/><text fill="#000000" font-family="sans-serif" font-size="8.8" lengthAdjust="spacing" textLength="65.6" x="518" y="1127.4289">getAllOutEdges()</text><ellipse cx="510.8" cy="1134.9625" fill="#84BE84" rx="2.4" ry="2.4" style="stroke:#038048;stroke-width:0.8000000000000002;"/><text fill="#000000" font-family="sans-serif" font-size="8.8" lengthAdjust="spacing" textLength="36" x="518" y="1138.4977">toString()</text><!--MD5=[b122bab300f80f5d31a622e2bae54847]
class MapGraph--><rect codeLine="58" fill="#FEFECE" filter="url(#f1gydqfq6vn687)" height="248.7063" id="MapGraph" style="stroke:#A80036;stroke-width:1.2000000000000002;" width="164.8" x="477.2" y="615.6"/><ellipse cx="533.4" cy="628.4" fill="#ADD1B2" rx="8.8" ry="8.8" style="stroke:#A80036;stroke-width:0.8000000000000002;"/><path d="M535,625.6 Q535.1625,625.2 535.35,625 Q535.5375,624.8 535.75,624.8 Q536.125,624.8 536.3625,625.025 Q536.6,625.25 536.6,625.775 L536.6,627.025 Q536.6,627.55 536.375,627.775 Q536.15,628 535.8,628 Q535.4875,628 535.2875,627.8625 Q535.0875,627.725 535,627.3625 Q534.9625,627.1125 534.825,626.975 Q534.575,626.7125 534.125,626.5625 Q533.675,626.4 533.225,626.4 Q532.6625,626.4 532.1875,626.625 Q531.725,626.85 531.3625,627.35 Q531,627.85 531,628.5375 L531,629.275 Q531,630.1 531.675,630.65 Q532.35,631.2 533.55,631.2 Q534.2625,631.2 534.7625,631.0375 Q535.05,630.95 535.375,630.6625 Q535.5875,630.5 535.7,630.45 Q535.8125,630.4 535.95,630.4 Q536.2125,630.4 536.4,630.6125 Q536.6,630.8125 536.6,631.1 Q536.6,631.375 536.325,631.7 Q535.925,632.175 535.2875,632.4375 Q534.45,632.8 533.425,632.8 Q532.225,632.8 531.2625,632.325 Q530.4875,631.95 529.9375,631.1375 Q529.4,630.325 529.4,629.3625 L529.4,628.4875 Q529.4,627.4875 529.875,626.6125 Q530.3625,625.7375 531.2,625.275 Q532.05,624.8 533,624.8 Q533.575,624.8 534.075,625 Q534.575,625.2 535,625.6 Z " fill="#000000"/><text fill="#000000" font-family="sans-serif" font-size="9.6" lengthAdjust="spacing" textLength="45.6" x="549.8" y="632.3281">MapGraph</text><line style="stroke:#A80036;stroke-width:1.2000000000000002;" x1="478" x2="641.2" y1="641.2" y2="641.2"/><rect fill="none" height="4.8" style="stroke:#C82930;stroke-width:0.8000000000000002;" width="4.8" x="483.6" y="647.6"/><text fill="#000000" font-family="sans-serif" font-size="8.8" lengthAdjust="spacing" textLength="19.2" x="493.2" y="653.5352">error</text><rect fill="none" height="4.8" style="stroke:#C82930;stroke-width:0.8000000000000002;" width="4.8" x="483.6" y="658.6688"/><text fill="#000000" font-family="sans-serif" font-size="8.8" lengthAdjust="spacing" textLength="48.8" x="493.2" y="664.6039">mapVertices</text><line style="stroke:#A80036;stroke-width:1.2000000000000002;" x1="478" x2="641.2" y1="669.7375" y2="669.7375"/><ellipse cx="486" cy="678.5375" fill="#84BE84" rx="2.4" ry="2.4" style="stroke:#038048;stroke-width:0.8000000000000002;"/><text fill="#000000" font-family="sans-serif" font-size="8.8" lengthAdjust="spacing" textLength="110.4" x="493.2" y="682.0727">MapGraph(boolean directed)</text><ellipse cx="486" cy="689.6063" fill="#84BE84" rx="2.4" ry="2.4" style="stroke:#038048;stroke-width:0.8000000000000002;"/><text fill="#000000" font-family="sans-serif" font-size="8.8" lengthAdjust="spacing" textLength="100.8" x="493.2" y="693.1414">MapGraph(Graph&lt;V,E&gt; g)</text><ellipse cx="486" cy="700.675" fill="#84BE84" rx="2.4" ry="2.4" style="stroke:#038048;stroke-width:0.8000000000000002;"/><text fill="#000000" font-family="sans-serif" font-size="8.8" lengthAdjust="spacing" textLength="74.4" x="493.2" y="704.2102">validVertex(V vert)</text><ellipse cx="486" cy="711.7438" fill="#84BE84" rx="2.4" ry="2.4" style="stroke:#038048;stroke-width:0.8000000000000002;"/><text fill="#000000" font-family="sans-serif" font-size="8.8" lengthAdjust="spacing" textLength="74.4" x="493.2" y="715.2789">adjVertices(V vert)</text><ellipse cx="486" cy="722.8125" fill="#84BE84" rx="2.4" ry="2.4" style="stroke:#038048;stroke-width:0.8000000000000002;"/><text fill="#000000" font-family="sans-serif" font-size="8.8" lengthAdjust="spacing" textLength="30.4" x="493.2" y="726.3477">edges()</text><ellipse cx="486" cy="733.8813" fill="#84BE84" rx="2.4" ry="2.4" style="stroke:#038048;stroke-width:0.8000000000000002;"/><text fill="#000000" font-family="sans-serif" font-size="8.8" lengthAdjust="spacing" textLength="91.2" x="493.2" y="737.4164">edge(V vOrig, V vDest)</text><ellipse cx="486" cy="744.95" fill="#84BE84" rx="2.4" ry="2.4" style="stroke:#038048;stroke-width:0.8000000000000002;"/><text fill="#000000" font-family="sans-serif" font-size="8.8" lengthAdjust="spacing" textLength="126.4" x="493.2" y="748.4852">edge(int vOrigKey, int vDestKey)</text><ellipse cx="486" cy="756.0188" fill="#84BE84" rx="2.4" ry="2.4" style="stroke:#038048;stroke-width:0.8000000000000002;"/><text fill="#000000" font-family="sans-serif" font-size="8.8" lengthAdjust="spacing" textLength="70.4" x="493.2" y="759.5539">outDegree(V vert)</text><ellipse cx="486" cy="767.0875" fill="#84BE84" rx="2.4" ry="2.4" style="stroke:#038048;stroke-width:0.8000000000000002;"/><text fill="#000000" font-family="sans-serif" font-size="8.8" lengthAdjust="spacing" textLength="64.8" x="493.2" y="770.6227">inDegree(V vert)</text><ellipse cx="486" cy="778.1563" fill="#84BE84" rx="2.4" ry="2.4" style="stroke:#038048;stroke-width:0.8000000000000002;"/><text fill="#000000" font-family="sans-serif" font-size="8.8" lengthAdjust="spacing" textLength="87.2" x="493.2" y="781.6914">outgoingEdges(V vert)</text><ellipse cx="486" cy="789.225" fill="#84BE84" rx="2.4" ry="2.4" style="stroke:#038048;stroke-width:0.8000000000000002;"/><text fill="#000000" font-family="sans-serif" font-size="8.8" lengthAdjust="spacing" textLength="88" x="493.2" y="792.7602">incomingEdges(V vert)</text><ellipse cx="486" cy="800.2938" fill="#84BE84" rx="2.4" ry="2.4" style="stroke:#038048;stroke-width:0.8000000000000002;"/><text fill="#000000" font-family="sans-serif" font-size="8.8" lengthAdjust="spacing" textLength="71.2" x="493.2" y="803.8289">addVertex(V vert)</text><ellipse cx="486" cy="811.3625" fill="#84BE84" rx="2.4" ry="2.4" style="stroke:#038048;stroke-width:0.8000000000000002;"/><text fill="#000000" font-family="sans-serif" font-size="8.8" lengthAdjust="spacing" textLength="144" x="493.2" y="814.8977">addEdge(V vOrig, V vDest, E weight)</text><ellipse cx="486" cy="822.4313" fill="#84BE84" rx="2.4" ry="2.4" style="stroke:#038048;stroke-width:0.8000000000000002;"/><text fill="#000000" font-family="sans-serif" font-size="8.8" lengthAdjust="spacing" textLength="85.6" x="493.2" y="825.9664">removeVertex(V vert)</text><ellipse cx="486" cy="833.5" fill="#84BE84" rx="2.4" ry="2.4" style="stroke:#038048;stroke-width:0.8000000000000002;"/><text fill="#000000" font-family="sans-serif" font-size="8.8" lengthAdjust="spacing" textLength="120" x="493.2" y="837.0352">removeEdge(V vOrig, V vDest)</text><ellipse cx="486" cy="844.5688" fill="#84BE84" rx="2.4" ry="2.4" style="stroke:#038048;stroke-width:0.8000000000000002;"/><text fill="#000000" font-family="sans-serif" font-size="8.8" lengthAdjust="spacing" textLength="27.2" x="493.2" y="848.1039">clone()</text><ellipse cx="486" cy="855.6375" fill="#84BE84" rx="2.4" ry="2.4" style="stroke:#038048;stroke-width:0.8000000000000002;"/><text fill="#000000" font-family="sans-serif" font-size="8.8" lengthAdjust="spacing" textLength="36" x="493.2" y="859.1727">toString()</text><!--MD5=[b7b072196a724e538165319251b4d539]
class MatrixGraph--><rect codeLine="80" fill="#FEFECE" filter="url(#f1gydqfq6vn687)" height="281.9125" id="MatrixGraph" style="stroke:#A80036;stroke-width:1.2000000000000002;" width="217.6" x="670" y="599.2"/><ellipse cx="749.4" cy="612" fill="#ADD1B2" rx="8.8" ry="8.8" style="stroke:#A80036;stroke-width:0.8000000000000002;"/><path d="M751,609.2 Q751.1625,608.8 751.35,608.6 Q751.5375,608.4 751.75,608.4 Q752.125,608.4 752.3625,608.625 Q752.6,608.85 752.6,609.375 L752.6,610.625 Q752.6,611.15 752.375,611.375 Q752.15,611.6 751.8,611.6 Q751.4875,611.6 751.2875,611.4625 Q751.0875,611.325 751,610.9625 Q750.9625,610.7125 750.825,610.575 Q750.575,610.3125 750.125,610.1625 Q749.675,610 749.225,610 Q748.6625,610 748.1875,610.225 Q747.725,610.45 747.3625,610.95 Q747,611.45 747,612.1375 L747,612.875 Q747,613.7 747.675,614.25 Q748.35,614.8 749.55,614.8 Q750.2625,614.8 750.7625,614.6375 Q751.05,614.55 751.375,614.2625 Q751.5875,614.1 751.7,614.05 Q751.8125,614 751.95,614 Q752.2125,614 752.4,614.2125 Q752.6,614.4125 752.6,614.7 Q752.6,614.975 752.325,615.3 Q751.925,615.775 751.2875,616.0375 Q750.45,616.4 749.425,616.4 Q748.225,616.4 747.2625,615.925 Q746.4875,615.55 745.9375,614.7375 Q745.4,613.925 745.4,612.9625 L745.4,612.0875 Q745.4,611.0875 745.875,610.2125 Q746.3625,609.3375 747.2,608.875 Q748.05,608.4 749,608.4 Q749.575,608.4 750.075,608.6 Q750.575,608.8 751,609.2 Z " fill="#000000"/><text fill="#000000" font-family="sans-serif" font-size="9.6" lengthAdjust="spacing" textLength="52" x="765.8" y="615.9281">MatrixGraph</text><line style="stroke:#A80036;stroke-width:1.2000000000000002;" x1="670.8" x2="886.8" y1="624.8" y2="624.8"/><ellipse cx="678.8" cy="633.6" rx="2.4" ry="2.4" style="stroke:#038048;stroke-width:0.8000000000000002;fill:none;"/><text fill="#000000" font-family="sans-serif" font-size="8.8" lengthAdjust="spacing" textLength="72.8" x="686" y="637.1352">INITIAL_CAPACITY</text><ellipse cx="678.8" cy="644.6688" rx="2.4" ry="2.4" style="stroke:#038048;stroke-width:0.8000000000000002;fill:none;"/><text fill="#000000" font-family="sans-serif" font-size="8.8" lengthAdjust="spacing" textLength="66.4" x="686" y="648.2039">RESIZE_FACTOR</text><line style="stroke:#A80036;stroke-width:1.2000000000000002;" x1="670.8" x2="886.8" y1="653.3375" y2="653.3375"/><ellipse cx="678.8" cy="662.1375" fill="#84BE84" rx="2.4" ry="2.4" style="stroke:#038048;stroke-width:0.8000000000000002;"/><text fill="#000000" font-family="sans-serif" font-size="8.8" lengthAdjust="spacing" textLength="185.6" x="686" y="665.6727">MatrixGraph(boolean directed, int initialCapacity)</text><ellipse cx="678.8" cy="673.2063" fill="#84BE84" rx="2.4" ry="2.4" style="stroke:#038048;stroke-width:0.8000000000000002;"/><text fill="#000000" font-family="sans-serif" font-size="8.8" lengthAdjust="spacing" textLength="117.6" x="686" y="676.7414">MatrixGraph(boolean directed)</text><ellipse cx="678.8" cy="684.275" fill="#84BE84" rx="2.4" ry="2.4" style="stroke:#038048;stroke-width:0.8000000000000002;"/><text fill="#000000" font-family="sans-serif" font-size="8.8" lengthAdjust="spacing" textLength="108" x="686" y="687.8102">MatrixGraph(Graph&lt;V,E&gt; g)</text><ellipse cx="678.8" cy="695.3438" fill="#84BE84" rx="2.4" ry="2.4" style="stroke:#038048;stroke-width:0.8000000000000002;"/><text fill="#000000" font-family="sans-serif" font-size="8.8" lengthAdjust="spacing" textLength="196.8" x="686" y="698.8789">MatrixGraph(boolean directed, List &lt;V&gt; vs, E [][] m)</text><ellipse cx="678.8" cy="706.4125" fill="#84BE84" rx="2.4" ry="2.4" style="stroke:#038048;stroke-width:0.8000000000000002;"/><text fill="#000000" font-family="sans-serif" font-size="8.8" lengthAdjust="spacing" textLength="74.4" x="686" y="709.9477">adjVertices(V vert)</text><ellipse cx="678.8" cy="717.4813" fill="#84BE84" rx="2.4" ry="2.4" style="stroke:#038048;stroke-width:0.8000000000000002;"/><text fill="#000000" font-family="sans-serif" font-size="8.8" lengthAdjust="spacing" textLength="30.4" x="686" y="721.0164">edges()</text><ellipse cx="678.8" cy="728.55" fill="#84BE84" rx="2.4" ry="2.4" style="stroke:#038048;stroke-width:0.8000000000000002;"/><text fill="#000000" font-family="sans-serif" font-size="8.8" lengthAdjust="spacing" textLength="91.2" x="686" y="732.0852">edge(V vOrig, V vDest)</text><ellipse cx="678.8" cy="739.6188" fill="#84BE84" rx="2.4" ry="2.4" style="stroke:#038048;stroke-width:0.8000000000000002;"/><text fill="#000000" font-family="sans-serif" font-size="8.8" lengthAdjust="spacing" textLength="126.4" x="686" y="743.1539">edge(int vOrigKey, int vDestKey)</text><ellipse cx="678.8" cy="750.6875" fill="#84BE84" rx="2.4" ry="2.4" style="stroke:#038048;stroke-width:0.8000000000000002;"/><text fill="#000000" font-family="sans-serif" font-size="8.8" lengthAdjust="spacing" textLength="70.4" x="686" y="754.2227">outDegree(V vert)</text><ellipse cx="678.8" cy="761.7563" fill="#84BE84" rx="2.4" ry="2.4" style="stroke:#038048;stroke-width:0.8000000000000002;"/><text fill="#000000" font-family="sans-serif" font-size="8.8" lengthAdjust="spacing" textLength="64.8" x="686" y="765.2914">inDegree(V vert)</text><ellipse cx="678.8" cy="772.825" fill="#84BE84" rx="2.4" ry="2.4" style="stroke:#038048;stroke-width:0.8000000000000002;"/><text fill="#000000" font-family="sans-serif" font-size="8.8" lengthAdjust="spacing" textLength="87.2" x="686" y="776.3602">outgoingEdges(V vert)</text><ellipse cx="678.8" cy="783.8938" fill="#84BE84" rx="2.4" ry="2.4" style="stroke:#038048;stroke-width:0.8000000000000002;"/><text fill="#000000" font-family="sans-serif" font-size="8.8" lengthAdjust="spacing" textLength="88" x="686" y="787.4289">incomingEdges(V vert)</text><ellipse cx="678.8" cy="794.9625" fill="#84BE84" rx="2.4" ry="2.4" style="stroke:#038048;stroke-width:0.8000000000000002;"/><text fill="#000000" font-family="sans-serif" font-size="8.8" lengthAdjust="spacing" textLength="71.2" x="686" y="798.4977">addVertex(V vert)</text><ellipse cx="678.8" cy="806.0313" fill="#84BE84" rx="2.4" ry="2.4" style="stroke:#038048;stroke-width:0.8000000000000002;"/><text fill="#000000" font-family="sans-serif" font-size="8.8" lengthAdjust="spacing" textLength="53.6" x="686" y="809.5664">resizeMatrix()</text><ellipse cx="678.8" cy="817.1" fill="#84BE84" rx="2.4" ry="2.4" style="stroke:#038048;stroke-width:0.8000000000000002;"/><text fill="#000000" font-family="sans-serif" font-size="8.8" lengthAdjust="spacing" textLength="144" x="686" y="820.6352">addEdge(V vOrig, V vDest, E weight)</text><ellipse cx="678.8" cy="828.1688" fill="#84BE84" rx="2.4" ry="2.4" style="stroke:#038048;stroke-width:0.8000000000000002;"/><text fill="#000000" font-family="sans-serif" font-size="8.8" lengthAdjust="spacing" textLength="85.6" x="686" y="831.7039">removeVertex(V vert)</text><ellipse cx="678.8" cy="839.2375" fill="#84BE84" rx="2.4" ry="2.4" style="stroke:#038048;stroke-width:0.8000000000000002;"/><text fill="#000000" font-family="sans-serif" font-size="8.8" lengthAdjust="spacing" textLength="155.2" x="686" y="842.7727">removeEdge(int vOrigKey, int vDestKey)</text><ellipse cx="678.8" cy="850.3063" fill="#84BE84" rx="2.4" ry="2.4" style="stroke:#038048;stroke-width:0.8000000000000002;"/><text fill="#000000" font-family="sans-serif" font-size="8.8" lengthAdjust="spacing" textLength="120" x="686" y="853.8414">removeEdge(V vOrig, V vDest)</text><ellipse cx="678.8" cy="861.375" fill="#84BE84" rx="2.4" ry="2.4" style="stroke:#038048;stroke-width:0.8000000000000002;"/><text fill="#000000" font-family="sans-serif" font-size="8.8" lengthAdjust="spacing" textLength="27.2" x="686" y="864.9102">clone()</text><ellipse cx="678.8" cy="872.4438" fill="#84BE84" rx="2.4" ry="2.4" style="stroke:#038048;stroke-width:0.8000000000000002;"/><text fill="#000000" font-family="sans-serif" font-size="8.8" lengthAdjust="spacing" textLength="36" x="686" y="875.9789">toString()</text><!--MD5=[4533588fb66c6fa31a6e04bf29ae6161]
class Algorithms--><rect codeLine="105" fill="#FEFECE" filter="url(#f1gydqfq6vn687)" height="215.5" id="Algorithms" style="stroke:#A80036;stroke-width:1.2000000000000002;" width="524.8" x="514.8" y="5.6"/><ellipse cx="750.2" cy="18.4" fill="#ADD1B2" rx="8.8" ry="8.8" style="stroke:#A80036;stroke-width:0.8000000000000002;"/><path d="M751.8,15.6 Q751.9625,15.2 752.15,15 Q752.3375,14.8 752.55,14.8 Q752.925,14.8 753.1625,15.025 Q753.4,15.25 753.4,15.775 L753.4,17.025 Q753.4,17.55 753.175,17.775 Q752.95,18 752.6,18 Q752.2875,18 752.0875,17.8625 Q751.8875,17.725 751.8,17.3625 Q751.7625,17.1125 751.625,16.975 Q751.375,16.7125 750.925,16.5625 Q750.475,16.4 750.025,16.4 Q749.4625,16.4 748.9875,16.625 Q748.525,16.85 748.1625,17.35 Q747.8,17.85 747.8,18.5375 L747.8,19.275 Q747.8,20.1 748.475,20.65 Q749.15,21.2 750.35,21.2 Q751.0625,21.2 751.5625,21.0375 Q751.85,20.95 752.175,20.6625 Q752.3875,20.5 752.5,20.45 Q752.6125,20.4 752.75,20.4 Q753.0125,20.4 753.2,20.6125 Q753.4,20.8125 753.4,21.1 Q753.4,21.375 753.125,21.7 Q752.725,22.175 752.0875,22.4375 Q751.25,22.8 750.225,22.8 Q749.025,22.8 748.0625,22.325 Q747.2875,21.95 746.7375,21.1375 Q746.2,20.325 746.2,19.3625 L746.2,18.4875 Q746.2,17.4875 746.675,16.6125 Q747.1625,15.7375 748,15.275 Q748.85,14.8 749.8,14.8 Q750.375,14.8 750.875,15 Q751.375,15.2 751.8,15.6 Z " fill="#000000"/><text fill="#000000" font-family="sans-serif" font-size="9.6" lengthAdjust="spacing" textLength="47.2" x="766.6" y="22.3281">Algorithms</text><line style="stroke:#A80036;stroke-width:1.2000000000000002;" x1="515.6" x2="1038.8" y1="31.2" y2="31.2"/><line style="stroke:#A80036;stroke-width:1.2000000000000002;" x1="515.6" x2="1038.8" y1="37.6" y2="37.6"/><ellipse cx="523.6" cy="46.4" fill="#84BE84" rx="2.4" ry="2.4" style="stroke:#038048;stroke-width:0.8000000000000002;"/><text fill="#000000" font-family="sans-serif" font-size="8.8" lengthAdjust="spacing" textLength="167.2" x="530.8" y="49.9352">BreadthFirstSearch(Graph&lt;V, E&gt; g, V vert)</text><ellipse cx="523.6" cy="57.4688" fill="#84BE84" rx="2.4" ry="2.4" style="stroke:#038048;stroke-width:0.8000000000000002;"/><text fill="#000000" font-family="sans-serif" font-size="8.8" lengthAdjust="spacing" textLength="311.2" x="530.8" y="61.0039">DepthFirstSearch(Graph&lt;V, E&gt; g, V vOrig, boolean[] visited, LinkedList&lt;V&gt; qdfs)</text><ellipse cx="523.6" cy="68.5375" fill="#84BE84" rx="2.4" ry="2.4" style="stroke:#038048;stroke-width:0.8000000000000002;"/><text fill="#000000" font-family="sans-serif" font-size="8.8" lengthAdjust="spacing" textLength="159.2" x="530.8" y="72.0727">DepthFirstSearch(Graph&lt;V, E&gt; g, V vert)</text><ellipse cx="523.6" cy="79.6063" fill="#84BE84" rx="2.4" ry="2.4" style="stroke:#038048;stroke-width:0.8000000000000002;"/><text fill="#000000" font-family="sans-serif" font-size="8.8" lengthAdjust="spacing" textLength="435.2" x="530.8" y="83.1414">allPaths(Graph&lt;V, E&gt; g, V vOrig, V vDest, boolean[] visited,LinkedList&lt;V&gt; path, ArrayList&lt;LinkedList&lt;V&gt;&gt; paths)</text><ellipse cx="523.6" cy="90.675" fill="#84BE84" rx="2.4" ry="2.4" style="stroke:#038048;stroke-width:0.8000000000000002;"/><text fill="#000000" font-family="sans-serif" font-size="8.8" lengthAdjust="spacing" textLength="163.2" x="530.8" y="94.2102">allPaths(Graph&lt;V, E&gt; g, V vOrig, V vDest)</text><ellipse cx="523.6" cy="101.7438" fill="#84BE84" rx="2.4" ry="2.4" style="stroke:#038048;stroke-width:0.8000000000000002;"/><text fill="#000000" font-family="sans-serif" font-size="8.8" lengthAdjust="spacing" textLength="346.4" x="530.8" y="105.2789">shortestPathLength(Graph&lt;V, E&gt; g, V vOrig,boolean[] visited, int[] pathKeys, double[] dist)</text><ellipse cx="523.6" cy="112.8125" fill="#84BE84" rx="2.4" ry="2.4" style="stroke:#038048;stroke-width:0.8000000000000002;"/><text fill="#000000" font-family="sans-serif" font-size="8.8" lengthAdjust="spacing" textLength="336.8" x="530.8" y="116.3477">getPath(Graph&lt;V, E&gt; g, V vOrig, V vDest, V[] verts, int[] pathKeys, LinkedList&lt;V&gt; path)</text><ellipse cx="523.6" cy="123.8813" fill="#84BE84" rx="2.4" ry="2.4" style="stroke:#038048;stroke-width:0.8000000000000002;"/><text fill="#000000" font-family="sans-serif" font-size="8.8" lengthAdjust="spacing" textLength="280.8" x="530.8" y="127.4164">shortestPath(Graph&lt;V, E&gt; g, V vOrig, V vDest, LinkedList&lt;V&gt; shortPath)</text><ellipse cx="523.6" cy="134.95" fill="#84BE84" rx="2.4" ry="2.4" style="stroke:#038048;stroke-width:0.8000000000000002;"/><text fill="#000000" font-family="sans-serif" font-size="8.8" lengthAdjust="spacing" textLength="377.6" x="530.8" y="138.4852">shortestPaths(Graph&lt;V, E&gt; g, V vOrig, ArrayList&lt;LinkedList&lt;V&gt;&gt; paths, ArrayList&lt;Double&gt; dists)</text><ellipse cx="523.6" cy="146.0188" fill="#84BE84" rx="2.4" ry="2.4" style="stroke:#038048;stroke-width:0.8000000000000002;"/><text fill="#000000" font-family="sans-serif" font-size="8.8" lengthAdjust="spacing" textLength="84.8" x="530.8" y="149.5539">revPath(List&lt;V&gt; path)</text><ellipse cx="523.6" cy="157.0875" fill="#84BE84" rx="2.4" ry="2.4" style="stroke:#038048;stroke-width:0.8000000000000002;"/><text fill="#000000" font-family="sans-serif" font-size="8.8" lengthAdjust="spacing" textLength="430.4" x="530.8" y="160.6227">shortestPathUsingNplaces(Graph&lt;V, E&gt; g,  V vOrig, V vDest, LinkedList&lt;V&gt; Places, boolean sea, boolean land)</text><ellipse cx="523.6" cy="168.1563" fill="#84BE84" rx="2.4" ry="2.4" style="stroke:#038048;stroke-width:0.8000000000000002;"/><text fill="#000000" font-family="sans-serif" font-size="8.8" lengthAdjust="spacing" textLength="504" x="530.8" y="171.6914">function(Graph&lt;V, E&gt; g,  V current, V vDest, LinkedList&lt;V&gt; Places, LinkedList&lt;V&gt; Path, String [] color,  boolean sea, boolean land)</text><ellipse cx="523.6" cy="179.225" fill="#84BE84" rx="2.4" ry="2.4" style="stroke:#038048;stroke-width:0.8000000000000002;"/><text fill="#000000" font-family="sans-serif" font-size="8.8" lengthAdjust="spacing" textLength="277.6" x="530.8" y="182.7602">checkPlaces(Graph&lt;V, E&gt; g, LinkedList&lt;V&gt; Places, LinkedList&lt;V&gt; Path)</text><ellipse cx="523.6" cy="190.2938" fill="#84BE84" rx="2.4" ry="2.4" style="stroke:#038048;stroke-width:0.8000000000000002;"/><text fill="#000000" font-family="sans-serif" font-size="8.8" lengthAdjust="spacing" textLength="290.4" x="530.8" y="193.8289">validateRestrictions(V dest, V current, V vDest, boolean sea, boolean land)</text><ellipse cx="523.6" cy="201.3625" fill="#84BE84" rx="2.4" ry="2.4" style="stroke:#038048;stroke-width:0.8000000000000002;"/><text fill="#000000" font-family="sans-serif" font-size="8.8" lengthAdjust="spacing" textLength="144" x="530.8" y="204.8977">pathfinder(Graph&lt;V, E&gt; g, V current)</text><ellipse cx="523.6" cy="212.4313" fill="#84BE84" rx="2.4" ry="2.4" style="stroke:#038048;stroke-width:0.8000000000000002;"/><text fill="#000000" font-family="sans-serif" font-size="8.8" lengthAdjust="spacing" textLength="388.8" x="530.8" y="215.9664">dfsVisit(Graph&lt;V, E&gt; g, V current, String[] color, LinkedList&lt;V&gt; path,LinkedList&lt;V&gt; temppath, V orig)</text><!--MD5=[dd11ec08e125c2bdc315f87b419b40d2]
class ClosestPlacesInputController--><rect codeLine="123" fill="#FEFECE" filter="url(#f1gydqfq6vn687)" height="60.5375" id="ClosestPlacesInputController" style="stroke:#A80036;stroke-width:1.2000000000000002;" width="335.2" x="151.2" y="82.8"/><ellipse cx="250.6" cy="95.6" fill="#ADD1B2" rx="8.8" ry="8.8" style="stroke:#A80036;stroke-width:0.8000000000000002;"/><path d="M252.2,92.8 Q252.3625,92.4 252.55,92.2 Q252.7375,92 252.95,92 Q253.325,92 253.5625,92.225 Q253.8,92.45 253.8,92.975 L253.8,94.225 Q253.8,94.75 253.575,94.975 Q253.35,95.2 253,95.2 Q252.6875,95.2 252.4875,95.0625 Q252.2875,94.925 252.2,94.5625 Q252.1625,94.3125 252.025,94.175 Q251.775,93.9125 251.325,93.7625 Q250.875,93.6 250.425,93.6 Q249.8625,93.6 249.3875,93.825 Q248.925,94.05 248.5625,94.55 Q248.2,95.05 248.2,95.7375 L248.2,96.475 Q248.2,97.3 248.875,97.85 Q249.55,98.4 250.75,98.4 Q251.4625,98.4 251.9625,98.2375 Q252.25,98.15 252.575,97.8625 Q252.7875,97.7 252.9,97.65 Q253.0125,97.6 253.15,97.6 Q253.4125,97.6 253.6,97.8125 Q253.8,98.0125 253.8,98.3 Q253.8,98.575 253.525,98.9 Q253.125,99.375 252.4875,99.6375 Q251.65,100 250.625,100 Q249.425,100 248.4625,99.525 Q247.6875,99.15 247.1375,98.3375 Q246.6,97.525 246.6,96.5625 L246.6,95.6875 Q246.6,94.6875 247.075,93.8125 Q247.5625,92.9375 248.4,92.475 Q249.25,92 250.2,92 Q250.775,92 251.275,92.2 Q251.775,92.4 252.2,92.8 Z " fill="#000000"/><text fill="#000000" font-family="sans-serif" font-size="9.6" lengthAdjust="spacing" textLength="129.6" x="267" y="99.5281">ClosestPlacesInputController</text><line style="stroke:#A80036;stroke-width:1.2000000000000002;" x1="152" x2="485.6" y1="108.4" y2="108.4"/><line style="stroke:#A80036;stroke-width:1.2000000000000002;" x1="152" x2="485.6" y1="114.8" y2="114.8"/><ellipse cx="160" cy="123.6" fill="#84BE84" rx="2.4" ry="2.4" style="stroke:#038048;stroke-width:0.8000000000000002;"/><text fill="#000000" font-family="sans-serif" font-size="8.8" lengthAdjust="spacing" textLength="312" x="167.2" y="127.1352">shortestPathUsingNplaces(MatrixGraph&lt;Object, Double&gt;  mg, Object startVertex,</text><text fill="#000000" font-family="sans-serif" font-size="8.8" lengthAdjust="spacing" textLength="284.8" x="167.2" y="138.2039">Object endVertex, LinkedList&lt;Object&gt; objects, boolean sea, boolean land)</text><!--MD5=[54656c5f46d33063c58a993c9fe8d823]
class EdgeWeightComparator--><rect codeLine="127" fill="#FEFECE" filter="url(#f1gydqfq6vn687)" height="49.4688" id="EdgeWeightComparator" style="stroke:#A80036;stroke-width:1.2000000000000002;" width="132" x="761.6" y="390"/><ellipse cx="773.6" cy="402.8" fill="#ADD1B2" rx="8.8" ry="8.8" style="stroke:#A80036;stroke-width:0.8000000000000002;"/><path d="M775.2,400 Q775.3625,399.6 775.55,399.4 Q775.7375,399.2 775.95,399.2 Q776.325,399.2 776.5625,399.425 Q776.8,399.65 776.8,400.175 L776.8,401.425 Q776.8,401.95 776.575,402.175 Q776.35,402.4 776,402.4 Q775.6875,402.4 775.4875,402.2625 Q775.2875,402.125 775.2,401.7625 Q775.1625,401.5125 775.025,401.375 Q774.775,401.1125 774.325,400.9625 Q773.875,400.8 773.425,400.8 Q772.8625,400.8 772.3875,401.025 Q771.925,401.25 771.5625,401.75 Q771.2,402.25 771.2,402.9375 L771.2,403.675 Q771.2,404.5 771.875,405.05 Q772.55,405.6 773.75,405.6 Q774.4625,405.6 774.9625,405.4375 Q775.25,405.35 775.575,405.0625 Q775.7875,404.9 775.9,404.85 Q776.0125,404.8 776.15,404.8 Q776.4125,404.8 776.6,405.0125 Q776.8,405.2125 776.8,405.5 Q776.8,405.775 776.525,406.1 Q776.125,406.575 775.4875,406.8375 Q774.65,407.2 773.625,407.2 Q772.425,407.2 771.4625,406.725 Q770.6875,406.35 770.1375,405.5375 Q769.6,404.725 769.6,403.7625 L769.6,402.8875 Q769.6,401.8875 770.075,401.0125 Q770.5625,400.1375 771.4,399.675 Q772.25,399.2 773.2,399.2 Q773.775,399.2 774.275,399.4 Q774.775,399.6 775.2,400 Z " fill="#000000"/><text fill="#000000" font-family="sans-serif" font-size="9.6" lengthAdjust="spacing" textLength="106.4" x="784.8" y="406.7281">EdgeWeightComparator</text><line style="stroke:#A80036;stroke-width:1.2000000000000002;" x1="762.4" x2="892.8" y1="415.6" y2="415.6"/><line style="stroke:#A80036;stroke-width:1.2000000000000002;" x1="762.4" x2="892.8" y1="422" y2="422"/><ellipse cx="770.4" cy="430.8" fill="#84BE84" rx="2.4" ry="2.4" style="stroke:#038048;stroke-width:0.8000000000000002;"/><text fill="#000000" font-family="sans-serif" font-size="8.8" lengthAdjust="spacing" textLength="64" x="777.6" y="434.3352">compare(o1, o2)</text><!--MD5=[76a4cd061b50bc1e875501c78b136814]
reverse link Graph to MapGraph--><path codeLine="130" d="M618.36,565.696 C612.728,582.328 607.04,599.128 601.536,615.384 " fill="none" id="Graph-backto-MapGraph" style="stroke:#A80036;stroke-width:0.8000000000000002;"/><polygon fill="none" points="613.08,563.848,623.512,550.496,623.688,567.44,613.08,563.848" style="stroke:#A80036;stroke-width:0.8000000000000002;"/><!--MD5=[9a57099d9ed295087640a62db4367a4d]
reverse link Graph to MatrixGraph--><path codeLine="131" d="M720.136,566 C723.872,577.016 727.624,588.096 731.336,599.048 " fill="none" id="Graph-backto-MatrixGraph" style="stroke:#A80036;stroke-width:0.8000000000000002;"/><polygon fill="none" points="714.712,567.44,714.888,550.496,725.32,563.848,714.712,567.44" style="stroke:#A80036;stroke-width:0.8000000000000002;"/><!--MD5=[377ad07981e3fd135d5c65ff0e3e42b4]
link ClosestPlacesInputController to Algorithms--><path codeLine="132" d="M486.448,113.2 C494.424,113.2 502.408,113.2 510.384,113.2 " fill="none" id="ClosestPlacesInputController-to-Algorithms" style="stroke:#A80036;stroke-width:0.8000000000000002;stroke-dasharray:7.0,7.0;"/><polygon fill="#A80036" points="514.56,113.2,507.36,110,510.56,113.2,507.36,116.4,514.56,113.2" style="stroke:#A80036;stroke-width:0.8000000000000002;"/><!--MD5=[7942fee675e247ac9961205f2eef9a0e]
link Algorithms to EdgeWeightComparator--><path codeLine="133" d="M795.144,220.824 C805.048,279.784 816.592,348.472 822.896,385.992 " fill="none" id="Algorithms-to-EdgeWeightComparator" style="stroke:#A80036;stroke-width:0.8000000000000002;"/><polygon fill="#A80036" points="823.56,389.968,825.522,382.3371,822.8968,386.0234,819.2106,383.3982,823.56,389.968" style="stroke:#A80036;stroke-width:0.8000000000000002;"/><polygon fill="#000000" points="805.8628,253.9447,806.9824,246.4191,802.3451,247.1983,805.8628,253.9447" style="stroke:#000000;stroke-width:0.8000000000000002;"/><text fill="#000000" font-family="sans-serif" font-size="10.4" lengthAdjust="spacing" textLength="24" x="771.4876" y="238.2116">Uses</text><!--MD5=[327a73a24aba32618596f7ab30ba89bf]
link Algorithms to Graph--><path codeLine="134" d="M738.744,220.824 C732.408,238.424 725.76,256.896 719.184,275.144 " fill="none" id="Algorithms-to-Graph" style="stroke:#A80036;stroke-width:0.8000000000000002;"/><polygon fill="#A80036" points="717.784,279.032,723.2269,273.3351,719.1344,275.2668,717.2026,271.1744,717.784,279.032" style="stroke:#A80036;stroke-width:0.8000000000000002;"/><polygon fill="#000000" points="732.6448,253.7634,737.3085,247.7519,732.8843,246.1588,732.6448,253.7634" style="stroke:#000000;stroke-width:0.8000000000000002;"/><text fill="#000000" font-family="sans-serif" font-size="10.4" lengthAdjust="spacing" textLength="24" x="711.827" y="238.2116">Uses</text><!--MD5=[b81c77be576bce0e54e5b9039b25ba38]
link MapGraph to MapVertex--><path codeLine="135" d="M559.6,864.552 C559.6,887.88 559.6,912.072 559.6,934.792 " fill="none" id="MapGraph-to-MapVertex" style="stroke:#A80036;stroke-width:0.8000000000000002;"/><polygon fill="#A80036" points="559.6,939.016,562.8,931.816,559.6,935.016,556.4,931.816,559.6,939.016" style="stroke:#A80036;stroke-width:0.8000000000000002;"/><polygon fill="#000000" points="563.6,914,565.9511,906.7639,561.2489,906.7639,563.6,914" style="stroke:#000000;stroke-width:0.8000000000000002;"/><text fill="#000000" font-family="sans-serif" font-size="10.4" lengthAdjust="spacing" textLength="24" x="535.0188" y="881.7002">Uses</text><!--MD5=[ed6953e1ed3eb5cf04de2e731c6f6ec1]
link App to ClosestPlacesInputController--><path codeLine="136" d="M123.28,113.2 C131.192,113.2 139.104,113.2 147.016,113.2 " fill="none" id="App-to-ClosestPlacesInputController" style="stroke:#A80036;stroke-width:0.8000000000000002;stroke-dasharray:7.0,7.0;"/><polygon fill="#A80036" points="151.16,113.2,143.96,110,147.16,113.2,143.96,116.4,151.16,113.2" style="stroke:#A80036;stroke-width:0.8000000000000002;"/><!--MD5=[197ff03fa42d0091fae8abf75ffd325d]
@startuml


class App{
-bootstrap()
- singleton
- company;
- authFacade;
-App()
+  getCompany()
+  getCurrentUserSession()
 + doLogin(email, pwd)
 + doLogout()
}
Interface Graph{
    isDirected()
    numVertices()
    vertices()
    validVertex(vert)
    key(vert)
    vertex(key)
    vertex(p)
    adjVertices(vert)
    numEdges()
    edges()
    edge(vOrig, vDest)
    edge(vOrigKey, vDestKey)
    outDegree(vert)
    inDegree(vert)
    outgoingEdges(vert)
    incomingEdges(vert)
    boolean addVertex(vert)
    addEdge(vOrig, vDest, weight)
    removeVertex(vert)
    removeEdge(vOrig, vDest)
    clone()
 }

 class MapVertex{
    -element;
    -outVerts;

   +MapVertex(vert)

    +getElement()
    +addAdjVert(vAdj,  edge)

    +remAdjVert(vAdj)
    +getEdge(vAdj)
    +numAdjVerts()

    +getAllAdjVerts()

    +getAllOutEdges()
    +toString()

    }

   class MapGraph{
   -error
   -mapVertices
   +MapGraph(boolean directed)
   +MapGraph(Graph<V,E> g)
   +validVertex(V vert)
   +adjVertices(V vert)
   +edges()
   +edge(V vOrig, V vDest)
   +edge(int vOrigKey, int vDestKey)
   +outDegree(V vert)
   +inDegree(V vert)
   +outgoingEdges(V vert)
   +incomingEdges(V vert)
   +addVertex(V vert)
   + addEdge(V vOrig, V vDest, E weight)
   + removeVertex(V vert)
   + removeEdge(V vOrig, V vDest)
   + clone()
   + toString()

   }
class MatrixGraph{
+INITIAL_CAPACITY
+RESIZE_FACTOR
+MatrixGraph(boolean directed, int initialCapacity)
+MatrixGraph(boolean directed)
+MatrixGraph(Graph<V,E> g)
+MatrixGraph(boolean directed, List <V> vs, E [][] m)
+adjVertices(V vert)
+edges()
+edge(V vOrig, V vDest)
+edge(int vOrigKey, int vDestKey)
+outDegree(V vert)
+inDegree(V vert)
+outgoingEdges(V vert)
+incomingEdges(V vert)
+addVertex(V vert)
+resizeMatrix()
+addEdge(V vOrig, V vDest, E weight)
+removeVertex(V vert)
+removeEdge(int vOrigKey, int vDestKey)
+removeEdge(V vOrig, V vDest)
+clone()
+toString()

}
class Algorithms{
+BreadthFirstSearch(Graph<V, E> g, V vert)
+DepthFirstSearch(Graph<V, E> g, V vOrig, boolean[] visited, LinkedList<V> qdfs)
+DepthFirstSearch(Graph<V, E> g, V vert)
+allPaths(Graph<V, E> g, V vOrig, V vDest, boolean[] visited,LinkedList<V> path, ArrayList<LinkedList<V>> paths)
+allPaths(Graph<V, E> g, V vOrig, V vDest)
+shortestPathLength(Graph<V, E> g, V vOrig,boolean[] visited, int[] pathKeys, double[] dist)
+getPath(Graph<V, E> g, V vOrig, V vDest, V[] verts, int[] pathKeys, LinkedList<V> path)
+shortestPath(Graph<V, E> g, V vOrig, V vDest, LinkedList<V> shortPath)
+shortestPaths(Graph<V, E> g, V vOrig, ArrayList<LinkedList<V>> paths, ArrayList<Double> dists)
+revPath(List<V> path)
+shortestPathUsingNplaces(Graph<V, E> g,  V vOrig, V vDest, LinkedList<V> Places, boolean sea, boolean land)
+function(Graph<V, E> g,  V current, V vDest, LinkedList<V> Places, LinkedList<V> Path, String [] color,  boolean sea, boolean land)
+checkPlaces(Graph<V, E> g, LinkedList<V> Places, LinkedList<V> Path)
+validateRestrictions(V dest, V current, V vDest, boolean sea, boolean land)
+pathfinder(Graph<V, E> g, V current)
+dfsVisit(Graph<V, E> g, V current, String[] color, LinkedList<V> path,LinkedList<V> temppath, V orig)
}
class ClosestPlacesInputController{
    +shortestPathUsingNplaces(MatrixGraph<Object, Double>  mg, Object startVertex, \nObject endVertex, LinkedList<Object> objects, boolean sea, boolean land)
}

class EdgeWeightComparator{
    +compare(o1, o2)
}
Graph <|- - MapGraph
Graph <|- - MatrixGraph
ClosestPlacesInputController .> Algorithms
Algorithms - -> EdgeWeightComparator: "Uses" >
Algorithms - -> Graph: "Uses" >
MapGraph - -> MapVertex: "Uses" >
App  .>ClosestPlacesInputController
@enduml

PlantUML version 1.2022.0(Tue Jan 11 16:16:42 GMT 2022)
(GPL source distribution)
Java Runtime: OpenJDK Runtime Environment
JVM: OpenJDK 64-Bit Server VM
Default Encoding: Cp1252
Language: pt
Country: PT
--></g></svg>