<?xml version="1.0" encoding="UTF-8" standalone="no"?><svg xmlns="http://www.w3.org/2000/svg" xmlns:xlink="http://www.w3.org/1999/xlink" contentScriptType="application/ecmascript" contentStyleType="text/css" height="540px" preserveAspectRatio="none" style="width:247px;height:540px;background:#FFFFFF;" version="1.1" viewBox="0 0 247 540" width="247px" zoomAndPan="magnify"><defs><filter height="300%" id="f1lejxpmyy0xz5" width="300%" x="-1" y="-1"><feGaussianBlur result="blurOut" stdDeviation="2.0"/><feColorMatrix in="blurOut" result="blurOut2" type="matrix" values="0 0 0 0 0 0 0 0 0 0 0 0 0 0 0 0 0 0 .4 0"/><feOffset dx="4.0" dy="4.0" in="blurOut2" result="blurOut3"/><feBlend in="SourceGraphic" in2="blurOut3" mode="normal"/></filter></defs><g><!--MD5=[187ccc8030f0f5b4620e42336e46a3c3]
class ColorMapController--><rect codeLine="3" fill="#FEFECE" filter="url(#f1lejxpmyy0xz5)" height="75.6719" id="ColorMapController" style="stroke:#A80036;stroke-width:1.5;" width="180" x="30" y="241"/><ellipse cx="63.45" cy="257" fill="#ADD1B2" rx="11" ry="11" style="stroke:#A80036;stroke-width:1.0;"/><path d="M65.45,253.5 Q65.6531,253 65.8875,252.75 Q66.1219,252.5 66.3875,252.5 Q66.8563,252.5 67.1531,252.7813 Q67.45,253.0625 67.45,253.7188 L67.45,255.2813 Q67.45,255.9375 67.1688,256.2188 Q66.8875,256.5 66.45,256.5 Q66.0594,256.5 65.8094,256.3281 Q65.5594,256.1563 65.45,255.7031 Q65.4031,255.3906 65.2313,255.2188 Q64.9188,254.8906 64.3563,254.7031 Q63.7938,254.5 63.2313,254.5 Q62.5281,254.5 61.9344,254.7813 Q61.3563,255.0625 60.9031,255.6875 Q60.45,256.3125 60.45,257.1719 L60.45,258.0938 Q60.45,259.125 61.2938,259.8125 Q62.1375,260.5 63.6375,260.5 Q64.5281,260.5 65.1531,260.2969 Q65.5125,260.1875 65.9188,259.8281 Q66.1844,259.625 66.325,259.5625 Q66.4656,259.5 66.6375,259.5 Q66.9656,259.5 67.2,259.7656 Q67.45,260.0156 67.45,260.375 Q67.45,260.7188 67.1063,261.125 Q66.6063,261.7188 65.8094,262.0469 Q64.7625,262.5 63.4813,262.5 Q61.9813,262.5 60.7781,261.9063 Q59.8094,261.4375 59.1219,260.4219 Q58.45,259.4063 58.45,258.2031 L58.45,257.1094 Q58.45,255.8594 59.0438,254.7656 Q59.6531,253.6719 60.7,253.0938 Q61.7625,252.5 62.95,252.5 Q63.6688,252.5 64.2938,252.75 Q64.9188,253 65.45,253.5 Z " fill="#000000"/><text fill="#000000" font-family="sans-serif" font-size="12" lengthAdjust="spacing" textLength="107" x="81.55" y="261.9102">ColorMapController</text><line style="stroke:#A80036;stroke-width:1.5;" x1="31" x2="209" y1="273" y2="273"/><line style="stroke:#A80036;stroke-width:1.5;" x1="31" x2="209" y1="281" y2="281"/><ellipse cx="41" cy="292" fill="#84BE84" rx="3" ry="3" style="stroke:#038048;stroke-width:1.0;"/><text fill="#000000" font-family="sans-serif" font-size="11" lengthAdjust="spacing" textLength="153" x="50" y="296.4189">colorMap(n,timeDebugVerbose)</text><rect fill="#F24D5C" height="6" style="stroke:#C82930;stroke-width:1.0;" width="6" x="38" y="302.8359"/><text fill="#000000" font-family="sans-serif" font-size="11" lengthAdjust="spacing" textLength="154" x="50" y="310.2549">printDebuginfo(isdebuging, text)</text><!--MD5=[335f4d9be48430461c68bf6d6fdba145]
class App--><rect codeLine="8" fill="#FEFECE" filter="url(#f1lejxpmyy0xz5)" height="172.5234" id="App" style="stroke:#A80036;stroke-width:1.5;" width="147" x="46.5" y="7"/><ellipse cx="105.25" cy="23" fill="#ADD1B2" rx="11" ry="11" style="stroke:#A80036;stroke-width:1.0;"/><path d="M107.25,19.5 Q107.4531,19 107.6875,18.75 Q107.9219,18.5 108.1875,18.5 Q108.6563,18.5 108.9531,18.7813 Q109.25,19.0625 109.25,19.7188 L109.25,21.2813 Q109.25,21.9375 108.9688,22.2188 Q108.6875,22.5 108.25,22.5 Q107.8594,22.5 107.6094,22.3281 Q107.3594,22.1563 107.25,21.7031 Q107.2031,21.3906 107.0313,21.2188 Q106.7188,20.8906 106.1563,20.7031 Q105.5938,20.5 105.0313,20.5 Q104.3281,20.5 103.7344,20.7813 Q103.1563,21.0625 102.7031,21.6875 Q102.25,22.3125 102.25,23.1719 L102.25,24.0938 Q102.25,25.125 103.0938,25.8125 Q103.9375,26.5 105.4375,26.5 Q106.3281,26.5 106.9531,26.2969 Q107.3125,26.1875 107.7188,25.8281 Q107.9844,25.625 108.125,25.5625 Q108.2656,25.5 108.4375,25.5 Q108.7656,25.5 109,25.7656 Q109.25,26.0156 109.25,26.375 Q109.25,26.7188 108.9063,27.125 Q108.4063,27.7188 107.6094,28.0469 Q106.5625,28.5 105.2813,28.5 Q103.7813,28.5 102.5781,27.9063 Q101.6094,27.4375 100.9219,26.4219 Q100.25,25.4063 100.25,24.2031 L100.25,23.1094 Q100.25,21.8594 100.8438,20.7656 Q101.4531,19.6719 102.5,19.0938 Q103.5625,18.5 104.75,18.5 Q105.4688,18.5 106.0938,18.75 Q106.7188,19 107.25,19.5 Z " fill="#000000"/><text fill="#000000" font-family="sans-serif" font-size="12" lengthAdjust="spacing" textLength="21" x="125.75" y="27.9102">App</text><line style="stroke:#A80036;stroke-width:1.5;" x1="47.5" x2="192.5" y1="39" y2="39"/><rect fill="none" height="6" style="stroke:#C82930;stroke-width:1.0;" width="6" x="54.5" y="47"/><text fill="#000000" font-family="sans-serif" font-size="11" lengthAdjust="spacing" textLength="43" x="66.5" y="54.4189">singleton</text><rect fill="none" height="6" style="stroke:#C82930;stroke-width:1.0;" width="6" x="54.5" y="60.8359"/><text fill="#000000" font-family="sans-serif" font-size="11" lengthAdjust="spacing" textLength="47" x="66.5" y="68.2549">company;</text><rect fill="none" height="6" style="stroke:#C82930;stroke-width:1.0;" width="6" x="54.5" y="74.6719"/><text fill="#000000" font-family="sans-serif" font-size="11" lengthAdjust="spacing" textLength="60" x="66.5" y="82.0908">authFacade;</text><line style="stroke:#A80036;stroke-width:1.5;" x1="47.5" x2="192.5" y1="88.5078" y2="88.5078"/><rect fill="#F24D5C" height="6" style="stroke:#C82930;stroke-width:1.0;" width="6" x="54.5" y="96.5078"/><text fill="#000000" font-family="sans-serif" font-size="11" lengthAdjust="spacing" textLength="54" x="66.5" y="103.9268">bootstrap()</text><rect fill="#F24D5C" height="6" style="stroke:#C82930;stroke-width:1.0;" width="6" x="54.5" y="110.3438"/><text fill="#000000" font-family="sans-serif" font-size="11" lengthAdjust="spacing" textLength="28" x="66.5" y="117.7627">App()</text><ellipse cx="57.5" cy="127.1797" fill="#84BE84" rx="3" ry="3" style="stroke:#038048;stroke-width:1.0;"/><text fill="#000000" font-family="sans-serif" font-size="11" lengthAdjust="spacing" textLength="68" x="66.5" y="131.5986">getCompany()</text><ellipse cx="57.5" cy="141.0156" fill="#84BE84" rx="3" ry="3" style="stroke:#038048;stroke-width:1.0;"/><text fill="#000000" font-family="sans-serif" font-size="11" lengthAdjust="spacing" textLength="121" x="66.5" y="145.4346">getCurrentUserSession()</text><ellipse cx="57.5" cy="154.8516" fill="#84BE84" rx="3" ry="3" style="stroke:#038048;stroke-width:1.0;"/><text fill="#000000" font-family="sans-serif" font-size="11" lengthAdjust="spacing" textLength="98" x="66.5" y="159.2705">doLogin(email, pwd)</text><ellipse cx="57.5" cy="168.6875" fill="#84BE84" rx="3" ry="3" style="stroke:#038048;stroke-width:1.0;"/><text fill="#000000" font-family="sans-serif" font-size="11" lengthAdjust="spacing" textLength="53" x="66.5" y="173.1064">doLogout()</text><!--MD5=[a9aad5a26615a58864786bc75afbd4cb]
class ColoredGraph--><rect codeLine="19" fill="#FEFECE" filter="url(#f1lejxpmyy0xz5)" height="131.0156" id="ColoredGraph" style="stroke:#A80036;stroke-width:1.5;" width="226" x="7" y="395"/><ellipse cx="76.75" cy="411" fill="#ADD1B2" rx="11" ry="11" style="stroke:#A80036;stroke-width:1.0;"/><path d="M78.75,407.5 Q78.9531,407 79.1875,406.75 Q79.4219,406.5 79.6875,406.5 Q80.1563,406.5 80.4531,406.7813 Q80.75,407.0625 80.75,407.7188 L80.75,409.2813 Q80.75,409.9375 80.4688,410.2188 Q80.1875,410.5 79.75,410.5 Q79.3594,410.5 79.1094,410.3281 Q78.8594,410.1563 78.75,409.7031 Q78.7031,409.3906 78.5313,409.2188 Q78.2188,408.8906 77.6563,408.7031 Q77.0938,408.5 76.5313,408.5 Q75.8281,408.5 75.2344,408.7813 Q74.6563,409.0625 74.2031,409.6875 Q73.75,410.3125 73.75,411.1719 L73.75,412.0938 Q73.75,413.125 74.5938,413.8125 Q75.4375,414.5 76.9375,414.5 Q77.8281,414.5 78.4531,414.2969 Q78.8125,414.1875 79.2188,413.8281 Q79.4844,413.625 79.625,413.5625 Q79.7656,413.5 79.9375,413.5 Q80.2656,413.5 80.5,413.7656 Q80.75,414.0156 80.75,414.375 Q80.75,414.7188 80.4063,415.125 Q79.9063,415.7188 79.1094,416.0469 Q78.0625,416.5 76.7813,416.5 Q75.2813,416.5 74.0781,415.9063 Q73.1094,415.4375 72.4219,414.4219 Q71.75,413.4063 71.75,412.2031 L71.75,411.1094 Q71.75,409.8594 72.3438,408.7656 Q72.9531,407.6719 74,407.0938 Q75.0625,406.5 76.25,406.5 Q76.9688,406.5 77.5938,406.75 Q78.2188,407 78.75,407.5 Z " fill="#000000"/><text fill="#000000" font-family="sans-serif" font-size="12" lengthAdjust="spacing" textLength="78" x="97.25" y="415.9102">ColoredGraph</text><line style="stroke:#A80036;stroke-width:1.5;" x1="8" x2="232" y1="427" y2="427"/><rect fill="none" height="6" style="stroke:#C82930;stroke-width:1.0;" width="6" x="15" y="435"/><text fill="#000000" font-family="sans-serif" font-size="11" lengthAdjust="spacing" textLength="62" x="27" y="442.4189">vertexColors</text><rect fill="none" height="6" style="stroke:#C82930;stroke-width:1.0;" width="6" x="15" y="448.8359"/><text fill="#000000" font-family="sans-serif" font-size="11" lengthAdjust="spacing" textLength="30" x="27" y="456.2549">colors</text><rect fill="none" height="6" style="stroke:#C82930;stroke-width:1.0;" width="6" x="15" y="462.6719"/><text fill="#000000" font-family="sans-serif" font-size="11" lengthAdjust="spacing" textLength="28" x="27" y="470.0908">graph</text><line style="stroke:#A80036;stroke-width:1.5;" x1="8" x2="232" y1="476.5078" y2="476.5078"/><rect fill="#F24D5C" height="6" style="stroke:#C82930;stroke-width:1.0;" width="6" x="15" y="484.5078"/><text fill="#000000" font-family="sans-serif" font-size="11" lengthAdjust="spacing" textLength="35" x="27" y="491.9268">setup()</text><ellipse cx="18" cy="501.3438" fill="#84BE84" rx="3" ry="3" style="stroke:#038048;stroke-width:1.0;"/><text fill="#000000" font-family="sans-serif" font-size="11" lengthAdjust="spacing" textLength="62" x="27" y="505.7627">colorGraph()</text><rect fill="#F24D5C" height="6" style="stroke:#C82930;stroke-width:1.0;" width="6" x="15" y="512.1797"/><text fill="#000000" font-family="sans-serif" font-size="11" lengthAdjust="spacing" textLength="200" x="27" y="519.5986">colorVertex( vertexToColor,colorsToUse)</text><!--MD5=[c4162172259866e5c7425b72a653c568]
link ColorMapController to ColoredGraph--><path codeLine="30" d="M120,317.19 C120,338.09 120,364.86 120,389.53 " fill="none" id="ColorMapController-to-ColoredGraph" style="stroke:#A80036;stroke-width:1.0;"/><polygon fill="#A80036" points="120,394.76,124,385.76,120,389.76,116,385.76,120,394.76" style="stroke:#A80036;stroke-width:1.0;"/><text fill="#000000" font-family="sans-serif" font-size="13" lengthAdjust="spacing" textLength="2" x="121" y="361.4951">'</text><text fill="#000000" font-family="sans-serif" font-size="13" lengthAdjust="spacing" textLength="43" x="74.6484" y="384.2082">creates</text><!--MD5=[cd6ab983959c98fa494940d7954eed4e]
link App to ColorMapController--><path codeLine="31" d="M120,180.07 C120,199.38 120,219.05 120,235.65 " fill="none" id="App-to-ColorMapController" style="stroke:#A80036;stroke-width:1.0;stroke-dasharray:7.0,7.0;"/><polygon fill="#A80036" points="120,240.7,124,231.7,120,235.7,116,231.7,120,240.7" style="stroke:#A80036;stroke-width:1.0;"/><!--MD5=[869d90d68dd2e40cabe3b80d5b7007b0]
@startuml
'https://plantuml.com/class-diagram

class ColorMapController{
    +colorMap(n,timeDebugVerbose)
    - printDebuginfo(isdebuging, text)
}

class App{
-bootstrap()
- singleton
- company;
- authFacade;
-App()
+  getCompany()
+  getCurrentUserSession()
 + doLogin(email, pwd)
 + doLogout()
}
class ColoredGraph{
-vertexColors
-colors
-graph
-setup()
+colorGraph()
-colorVertex( vertexToColor,colorsToUse)
}



ColorMapController - -> ColoredGraph : '"creates"
App  ..>ColorMapController
@enduml

@startuml

class ColorMapController{
    +colorMap(n,timeDebugVerbose)
    - printDebuginfo(isdebuging, text)
}

class App{
-bootstrap()
- singleton
- company;
- authFacade;
-App()
+  getCompany()
+  getCurrentUserSession()
 + doLogin(email, pwd)
 + doLogout()
}
class ColoredGraph{
-vertexColors
-colors
-graph
-setup()
+colorGraph()
-colorVertex( vertexToColor,colorsToUse)
}



ColorMapController - -> ColoredGraph : '"creates"
App  ..>ColorMapController
@enduml

PlantUML version 1.2021.15(Tue Nov 30 16:45:34 GMT 2021)
(GPL source distribution)
Java Runtime: OpenJDK Runtime Environment
JVM: Dynamic Code Evolution 64-Bit Server VM
Default Encoding: Cp1252
Language: pt
Country: PT
--></g></svg>