<?xml version="1.0" encoding="UTF-8" standalone="no"?><svg xmlns="http://www.w3.org/2000/svg" xmlns:xlink="http://www.w3.org/1999/xlink" contentScriptType="application/ecmascript" contentStyleType="text/css" height="1066px" preserveAspectRatio="none" style="width:297px;height:1066px;background:#FFFFFF;" version="1.1" viewBox="0 0 297 1066" width="297px" zoomAndPan="magnify"><defs><filter height="300%" id="f13hp1nn0gxfif" width="300%" x="-1" y="-1"><feGaussianBlur result="blurOut" stdDeviation="2.0"/><feColorMatrix in="blurOut" result="blurOut2" type="matrix" values="0 0 0 0 0 0 0 0 0 0 0 0 0 0 0 0 0 0 .4 0"/><feOffset dx="4.0" dy="4.0" in="blurOut2" result="blurOut3"/><feBlend in="SourceGraphic" in2="blurOut3" mode="normal"/></filter></defs><g><!--MD5=[504fbadd8bbd9d704c0fb02b173767fe]
class ImportPortsUI--><rect codeLine="3" fill="#FEFECE" filter="url(#f13hp1nn0gxfif)" height="48" id="ImportPortsUI" style="stroke:#A80036;stroke-width:1.5;" width="108" x="116" y="7"/><ellipse cx="131" cy="23" fill="#ADD1B2" rx="11" ry="11" style="stroke:#A80036;stroke-width:1.0;"/><path d="M133,19.5 Q133.2031,19 133.4375,18.75 Q133.6719,18.5 133.9375,18.5 Q134.4063,18.5 134.7031,18.7813 Q135,19.0625 135,19.7188 L135,21.2813 Q135,21.9375 134.7188,22.2188 Q134.4375,22.5 134,22.5 Q133.6094,22.5 133.3594,22.3281 Q133.1094,22.1563 133,21.7031 Q132.9531,21.3906 132.7813,21.2188 Q132.4688,20.8906 131.9063,20.7031 Q131.3438,20.5 130.7813,20.5 Q130.0781,20.5 129.4844,20.7813 Q128.9063,21.0625 128.4531,21.6875 Q128,22.3125 128,23.1719 L128,24.0938 Q128,25.125 128.8438,25.8125 Q129.6875,26.5 131.1875,26.5 Q132.0781,26.5 132.7031,26.2969 Q133.0625,26.1875 133.4688,25.8281 Q133.7344,25.625 133.875,25.5625 Q134.0156,25.5 134.1875,25.5 Q134.5156,25.5 134.75,25.7656 Q135,26.0156 135,26.375 Q135,26.7188 134.6563,27.125 Q134.1563,27.7188 133.3594,28.0469 Q132.3125,28.5 131.0313,28.5 Q129.5313,28.5 128.3281,27.9063 Q127.3594,27.4375 126.6719,26.4219 Q126,25.4063 126,24.2031 L126,23.1094 Q126,21.8594 126.5938,20.7656 Q127.2031,19.6719 128.25,19.0938 Q129.3125,18.5 130.5,18.5 Q131.2188,18.5 131.8438,18.75 Q132.4688,19 133,19.5 Z " fill="#000000"/><text fill="#000000" font-family="sans-serif" font-size="12" lengthAdjust="spacing" textLength="76" x="145" y="27.9102">ImportPortsUI</text><line style="stroke:#A80036;stroke-width:1.5;" x1="117" x2="223" y1="39" y2="39"/><line style="stroke:#A80036;stroke-width:1.5;" x1="117" x2="223" y1="47" y2="47"/><!--MD5=[9873d8a2c6cd70d1cc3a8ef9c0b4542c]
class PortController--><rect codeLine="7" fill="#FEFECE" filter="url(#f13hp1nn0gxfif)" height="75.6719" id="PortController" style="stroke:#A80036;stroke-width:1.5;" width="133" x="103.5" y="116"/><ellipse cx="129.75" cy="132" fill="#ADD1B2" rx="11" ry="11" style="stroke:#A80036;stroke-width:1.0;"/><path d="M131.75,128.5 Q131.9531,128 132.1875,127.75 Q132.4219,127.5 132.6875,127.5 Q133.1563,127.5 133.4531,127.7813 Q133.75,128.0625 133.75,128.7188 L133.75,130.2813 Q133.75,130.9375 133.4688,131.2188 Q133.1875,131.5 132.75,131.5 Q132.3594,131.5 132.1094,131.3281 Q131.8594,131.1563 131.75,130.7031 Q131.7031,130.3906 131.5313,130.2188 Q131.2188,129.8906 130.6563,129.7031 Q130.0938,129.5 129.5313,129.5 Q128.8281,129.5 128.2344,129.7813 Q127.6563,130.0625 127.2031,130.6875 Q126.75,131.3125 126.75,132.1719 L126.75,133.0938 Q126.75,134.125 127.5938,134.8125 Q128.4375,135.5 129.9375,135.5 Q130.8281,135.5 131.4531,135.2969 Q131.8125,135.1875 132.2188,134.8281 Q132.4844,134.625 132.625,134.5625 Q132.7656,134.5 132.9375,134.5 Q133.2656,134.5 133.5,134.7656 Q133.75,135.0156 133.75,135.375 Q133.75,135.7188 133.4063,136.125 Q132.9063,136.7188 132.1094,137.0469 Q131.0625,137.5 129.7813,137.5 Q128.2813,137.5 127.0781,136.9063 Q126.1094,136.4375 125.4219,135.4219 Q124.75,134.4063 124.75,133.2031 L124.75,132.1094 Q124.75,130.8594 125.3438,129.7656 Q125.9531,128.6719 127,128.0938 Q128.0625,127.5 129.25,127.5 Q129.9688,127.5 130.5938,127.75 Q131.2188,128 131.75,128.5 Z " fill="#000000"/><text fill="#000000" font-family="sans-serif" font-size="12" lengthAdjust="spacing" textLength="76" x="146.25" y="136.9102">PortController</text><line style="stroke:#A80036;stroke-width:1.5;" x1="104.5" x2="235.5" y1="148" y2="148"/><line style="stroke:#A80036;stroke-width:1.5;" x1="104.5" x2="235.5" y1="156" y2="156"/><ellipse cx="114.5" cy="167" fill="#84BE84" rx="3" ry="3" style="stroke:#038048;stroke-width:1.0;"/><text fill="#000000" font-family="sans-serif" font-size="11" lengthAdjust="spacing" textLength="73" x="123.5" y="171.4189">PortController()</text><ellipse cx="114.5" cy="180.8359" fill="#84BE84" rx="3" ry="3" style="stroke:#038048;stroke-width:1.0;"/><text fill="#000000" font-family="sans-serif" font-size="11" lengthAdjust="spacing" textLength="107" x="123.5" y="185.2549">ImportPorts(String file)</text><!--MD5=[02e4b9b7573f1156f41e60aa5b4e25a4]
class Company--><rect codeLine="11" fill="#FEFECE" filter="url(#f13hp1nn0gxfif)" height="61.8359" id="Company" style="stroke:#A80036;stroke-width:1.5;" width="94" x="48" y="253"/><ellipse cx="67.05" cy="269" fill="#ADD1B2" rx="11" ry="11" style="stroke:#A80036;stroke-width:1.0;"/><path d="M69.05,265.5 Q69.2531,265 69.4875,264.75 Q69.7219,264.5 69.9875,264.5 Q70.4563,264.5 70.7531,264.7813 Q71.05,265.0625 71.05,265.7188 L71.05,267.2813 Q71.05,267.9375 70.7688,268.2188 Q70.4875,268.5 70.05,268.5 Q69.6594,268.5 69.4094,268.3281 Q69.1594,268.1563 69.05,267.7031 Q69.0031,267.3906 68.8313,267.2188 Q68.5188,266.8906 67.9563,266.7031 Q67.3938,266.5 66.8313,266.5 Q66.1281,266.5 65.5344,266.7813 Q64.9563,267.0625 64.5031,267.6875 Q64.05,268.3125 64.05,269.1719 L64.05,270.0938 Q64.05,271.125 64.8938,271.8125 Q65.7375,272.5 67.2375,272.5 Q68.1281,272.5 68.7531,272.2969 Q69.1125,272.1875 69.5188,271.8281 Q69.7844,271.625 69.925,271.5625 Q70.0656,271.5 70.2375,271.5 Q70.5656,271.5 70.8,271.7656 Q71.05,272.0156 71.05,272.375 Q71.05,272.7188 70.7063,273.125 Q70.2063,273.7188 69.4094,274.0469 Q68.3625,274.5 67.0813,274.5 Q65.5813,274.5 64.3781,273.9063 Q63.4094,273.4375 62.7219,272.4219 Q62.05,271.4063 62.05,270.2031 L62.05,269.1094 Q62.05,267.8594 62.6438,266.7656 Q63.2531,265.6719 64.3,265.0938 Q65.3625,264.5 66.55,264.5 Q67.2688,264.5 67.8938,264.75 Q68.5188,265 69.05,265.5 Z " fill="#000000"/><text fill="#000000" font-family="sans-serif" font-size="12" lengthAdjust="spacing" textLength="53" x="81.95" y="273.9102">Company</text><line style="stroke:#A80036;stroke-width:1.5;" x1="49" x2="141" y1="285" y2="285"/><line style="stroke:#A80036;stroke-width:1.5;" x1="49" x2="141" y1="293" y2="293"/><ellipse cx="59" cy="304" fill="#84BE84" rx="3" ry="3" style="stroke:#038048;stroke-width:1.0;"/><text fill="#000000" font-family="sans-serif" font-size="11" lengthAdjust="spacing" textLength="68" x="68" y="308.4189">getPortStore()</text><!--MD5=[f70d2b281f9eefc1b49373c49159755a]
class PortStore--><rect codeLine="14" fill="#FEFECE" filter="url(#f13hp1nn0gxfif)" height="131.0156" id="PortStore" style="stroke:#A80036;stroke-width:1.5;" width="118" x="86" y="393"/><ellipse cx="116.75" cy="409" fill="#ADD1B2" rx="11" ry="11" style="stroke:#A80036;stroke-width:1.0;"/><path d="M118.75,405.5 Q118.9531,405 119.1875,404.75 Q119.4219,404.5 119.6875,404.5 Q120.1563,404.5 120.4531,404.7813 Q120.75,405.0625 120.75,405.7188 L120.75,407.2813 Q120.75,407.9375 120.4688,408.2188 Q120.1875,408.5 119.75,408.5 Q119.3594,408.5 119.1094,408.3281 Q118.8594,408.1563 118.75,407.7031 Q118.7031,407.3906 118.5313,407.2188 Q118.2188,406.8906 117.6563,406.7031 Q117.0938,406.5 116.5313,406.5 Q115.8281,406.5 115.2344,406.7813 Q114.6563,407.0625 114.2031,407.6875 Q113.75,408.3125 113.75,409.1719 L113.75,410.0938 Q113.75,411.125 114.5938,411.8125 Q115.4375,412.5 116.9375,412.5 Q117.8281,412.5 118.4531,412.2969 Q118.8125,412.1875 119.2188,411.8281 Q119.4844,411.625 119.625,411.5625 Q119.7656,411.5 119.9375,411.5 Q120.2656,411.5 120.5,411.7656 Q120.75,412.0156 120.75,412.375 Q120.75,412.7188 120.4063,413.125 Q119.9063,413.7188 119.1094,414.0469 Q118.0625,414.5 116.7813,414.5 Q115.2813,414.5 114.0781,413.9063 Q113.1094,413.4375 112.4219,412.4219 Q111.75,411.4063 111.75,410.2031 L111.75,409.1094 Q111.75,407.8594 112.3438,406.7656 Q112.9531,405.6719 114,405.0938 Q115.0625,404.5 116.25,404.5 Q116.9688,404.5 117.5938,404.75 Q118.2188,405 118.75,405.5 Z " fill="#000000"/><text fill="#000000" font-family="sans-serif" font-size="12" lengthAdjust="spacing" textLength="51" x="134.25" y="413.9102">PortStore</text><line style="stroke:#A80036;stroke-width:1.5;" x1="87" x2="203" y1="425" y2="425"/><line style="stroke:#A80036;stroke-width:1.5;" x1="87" x2="203" y1="433" y2="433"/><ellipse cx="97" cy="444" fill="#84BE84" rx="3" ry="3" style="stroke:#038048;stroke-width:1.0;"/><text fill="#000000" font-family="sans-serif" font-size="11" lengthAdjust="spacing" textLength="53" x="106" y="448.4189">PortStore()</text><ellipse cx="97" cy="457.8359" fill="#84BE84" rx="3" ry="3" style="stroke:#038048;stroke-width:1.0;"/><text fill="#000000" font-family="sans-serif" font-size="11" lengthAdjust="spacing" textLength="70" x="106" y="462.2549">getRootNode()</text><ellipse cx="97" cy="471.6719" fill="#84BE84" rx="3" ry="3" style="stroke:#038048;stroke-width:1.0;"/><text fill="#000000" font-family="sans-serif" font-size="11" lengthAdjust="spacing" textLength="39" x="106" y="476.0908">getKdt()</text><ellipse cx="97" cy="485.5078" fill="#84BE84" rx="3" ry="3" style="stroke:#038048;stroke-width:1.0;"/><text fill="#000000" font-family="sans-serif" font-size="11" lengthAdjust="spacing" textLength="64" x="106" y="489.9268">addPort(port)</text><ellipse cx="97" cy="499.3438" fill="#84BE84" rx="3" ry="3" style="stroke:#038048;stroke-width:1.0;"/><text fill="#000000" font-family="sans-serif" font-size="11" lengthAdjust="spacing" textLength="92" x="106" y="503.7627">getPort(String port)</text><ellipse cx="97" cy="513.1797" fill="#84BE84" rx="3" ry="3" style="stroke:#038048;stroke-width:1.0;"/><text fill="#000000" font-family="sans-serif" font-size="11" lengthAdjust="spacing" textLength="59" x="106" y="517.5986">getPortList()</text><!--MD5=[a0bfe97ac0a38e6e74cc1c7c7b744b71]
class Port--><rect codeLine="22" fill="#FEFECE" filter="url(#f13hp1nn0gxfif)" height="227.8672" id="Port" style="stroke:#A80036;stroke-width:1.5;" width="276" x="7" y="602"/><ellipse cx="129.75" cy="618" fill="#ADD1B2" rx="11" ry="11" style="stroke:#A80036;stroke-width:1.0;"/><path d="M131.75,614.5 Q131.9531,614 132.1875,613.75 Q132.4219,613.5 132.6875,613.5 Q133.1563,613.5 133.4531,613.7813 Q133.75,614.0625 133.75,614.7188 L133.75,616.2813 Q133.75,616.9375 133.4688,617.2188 Q133.1875,617.5 132.75,617.5 Q132.3594,617.5 132.1094,617.3281 Q131.8594,617.1563 131.75,616.7031 Q131.7031,616.3906 131.5313,616.2188 Q131.2188,615.8906 130.6563,615.7031 Q130.0938,615.5 129.5313,615.5 Q128.8281,615.5 128.2344,615.7813 Q127.6563,616.0625 127.2031,616.6875 Q126.75,617.3125 126.75,618.1719 L126.75,619.0938 Q126.75,620.125 127.5938,620.8125 Q128.4375,621.5 129.9375,621.5 Q130.8281,621.5 131.4531,621.2969 Q131.8125,621.1875 132.2188,620.8281 Q132.4844,620.625 132.625,620.5625 Q132.7656,620.5 132.9375,620.5 Q133.2656,620.5 133.5,620.7656 Q133.75,621.0156 133.75,621.375 Q133.75,621.7188 133.4063,622.125 Q132.9063,622.7188 132.1094,623.0469 Q131.0625,623.5 129.7813,623.5 Q128.2813,623.5 127.0781,622.9063 Q126.1094,622.4375 125.4219,621.4219 Q124.75,620.4063 124.75,619.2031 L124.75,618.1094 Q124.75,616.8594 125.3438,615.7656 Q125.9531,614.6719 127,614.0938 Q128.0625,613.5 129.25,613.5 Q129.9688,613.5 130.5938,613.75 Q131.2188,614 131.75,614.5 Z " fill="#000000"/><text fill="#000000" font-family="sans-serif" font-size="12" lengthAdjust="spacing" textLength="22" x="150.25" y="622.9102">Port</text><line style="stroke:#A80036;stroke-width:1.5;" x1="8" x2="282" y1="634" y2="634"/><rect fill="none" height="6" style="stroke:#C82930;stroke-width:1.0;" width="6" x="15" y="642"/><text fill="#000000" font-family="sans-serif" font-size="11" lengthAdjust="spacing" textLength="47" x="27" y="649.4189">continent;</text><rect fill="none" height="6" style="stroke:#C82930;stroke-width:1.0;" width="6" x="15" y="655.8359"/><text fill="#000000" font-family="sans-serif" font-size="11" lengthAdjust="spacing" textLength="40" x="27" y="663.2549">country;</text><rect fill="none" height="6" style="stroke:#C82930;stroke-width:1.0;" width="6" x="15" y="669.6719"/><text fill="#000000" font-family="sans-serif" font-size="11" lengthAdjust="spacing" textLength="27" x="27" y="677.0908">code;</text><rect fill="none" height="6" style="stroke:#C82930;stroke-width:1.0;" width="6" x="15" y="683.5078"/><text fill="#000000" font-family="sans-serif" font-size="11" lengthAdjust="spacing" textLength="29" x="27" y="690.9268">name;</text><rect fill="none" height="6" style="stroke:#C82930;stroke-width:1.0;" width="6" x="15" y="697.3438"/><text fill="#000000" font-family="sans-serif" font-size="11" lengthAdjust="spacing" textLength="37" x="27" y="704.7627">latitude;</text><rect fill="none" height="6" style="stroke:#C82930;stroke-width:1.0;" width="6" x="15" y="711.1797"/><text fill="#000000" font-family="sans-serif" font-size="11" lengthAdjust="spacing" textLength="46" x="27" y="718.5986">longitude;</text><line style="stroke:#A80036;stroke-width:1.5;" x1="8" x2="282" y1="725.0156" y2="725.0156"/><ellipse cx="18" cy="736.0156" fill="#84BE84" rx="3" ry="3" style="stroke:#038048;stroke-width:1.0;"/><text fill="#000000" font-family="sans-serif" font-size="11" lengthAdjust="spacing" textLength="250" x="27" y="740.4346">Port(continent,country,code,name,latitude,longitude)</text><ellipse cx="18" cy="749.8516" fill="#84BE84" rx="3" ry="3" style="stroke:#038048;stroke-width:1.0;"/><text fill="#000000" font-family="sans-serif" font-size="11" lengthAdjust="spacing" textLength="68" x="27" y="754.2705">getContinent()</text><ellipse cx="18" cy="763.6875" fill="#84BE84" rx="3" ry="3" style="stroke:#038048;stroke-width:1.0;"/><text fill="#000000" font-family="sans-serif" font-size="11" lengthAdjust="spacing" textLength="61" x="27" y="768.1064">getCountry()</text><ellipse cx="18" cy="777.5234" fill="#84BE84" rx="3" ry="3" style="stroke:#038048;stroke-width:1.0;"/><text fill="#000000" font-family="sans-serif" font-size="11" lengthAdjust="spacing" textLength="48" x="27" y="781.9424">getCode()</text><ellipse cx="18" cy="791.3594" fill="#84BE84" rx="3" ry="3" style="stroke:#038048;stroke-width:1.0;"/><text fill="#000000" font-family="sans-serif" font-size="11" lengthAdjust="spacing" textLength="42" x="27" y="795.7783">getPort()</text><ellipse cx="18" cy="805.1953" fill="#84BE84" rx="3" ry="3" style="stroke:#038048;stroke-width:1.0;"/><text fill="#000000" font-family="sans-serif" font-size="11" lengthAdjust="spacing" textLength="61" x="27" y="809.6143">getLatitude()</text><ellipse cx="18" cy="819.0313" fill="#84BE84" rx="3" ry="3" style="stroke:#038048;stroke-width:1.0;"/><text fill="#000000" font-family="sans-serif" font-size="11" lengthAdjust="spacing" textLength="70" x="27" y="823.4502">getLongitude()</text><!--MD5=[e9680dcbbd57ee38dfd053ffcea751cd]
class KDTree--><rect codeLine="39" fill="#FEFECE" filter="url(#f13hp1nn0gxfif)" height="144.8516" id="KDTree" style="stroke:#A80036;stroke-width:1.5;" width="117" x="86.5" y="908"/><ellipse cx="120.85" cy="924" fill="#ADD1B2" rx="11" ry="11" style="stroke:#A80036;stroke-width:1.0;"/><path d="M122.85,920.5 Q123.0531,920 123.2875,919.75 Q123.5219,919.5 123.7875,919.5 Q124.2563,919.5 124.5531,919.7813 Q124.85,920.0625 124.85,920.7188 L124.85,922.2813 Q124.85,922.9375 124.5688,923.2188 Q124.2875,923.5 123.85,923.5 Q123.4594,923.5 123.2094,923.3281 Q122.9594,923.1563 122.85,922.7031 Q122.8031,922.3906 122.6313,922.2188 Q122.3188,921.8906 121.7563,921.7031 Q121.1938,921.5 120.6313,921.5 Q119.9281,921.5 119.3344,921.7813 Q118.7563,922.0625 118.3031,922.6875 Q117.85,923.3125 117.85,924.1719 L117.85,925.0938 Q117.85,926.125 118.6938,926.8125 Q119.5375,927.5 121.0375,927.5 Q121.9281,927.5 122.5531,927.2969 Q122.9125,927.1875 123.3188,926.8281 Q123.5844,926.625 123.725,926.5625 Q123.8656,926.5 124.0375,926.5 Q124.3656,926.5 124.6,926.7656 Q124.85,927.0156 124.85,927.375 Q124.85,927.7188 124.5063,928.125 Q124.0063,928.7188 123.2094,929.0469 Q122.1625,929.5 120.8813,929.5 Q119.3813,929.5 118.1781,928.9063 Q117.2094,928.4375 116.5219,927.4219 Q115.85,926.4063 115.85,925.2031 L115.85,924.1094 Q115.85,922.8594 116.4438,921.7656 Q117.0531,920.6719 118.1,920.0938 Q119.1625,919.5 120.35,919.5 Q121.0688,919.5 121.6938,919.75 Q122.3188,920 122.85,920.5 Z " fill="#000000"/><text fill="#000000" font-family="sans-serif" font-size="12" lengthAdjust="spacing" textLength="42" x="139.15" y="928.9102">KDTree</text><line style="stroke:#A80036;stroke-width:1.5;" x1="87.5" x2="202.5" y1="940" y2="940"/><text fill="#000000" font-family="sans-serif" font-size="11" lengthAdjust="spacing" textLength="25" x="92.5" y="955.4189">Node</text><line style="stroke:#A80036;stroke-width:1.5;" x1="87.5" x2="202.5" y1="961.8359" y2="961.8359"/><ellipse cx="97.5" cy="972.8359" fill="#84BE84" rx="3" ry="3" style="stroke:#038048;stroke-width:1.0;"/><text fill="#000000" font-family="sans-serif" font-size="11" lengthAdjust="spacing" textLength="91" x="106.5" y="977.2549">getByCallSign(key)</text><ellipse cx="97.5" cy="986.6719" fill="#84BE84" rx="3" ry="3" style="stroke:#038048;stroke-width:1.0;"/><text fill="#000000" font-family="sans-serif" font-size="11" lengthAdjust="spacing" textLength="78" x="106.5" y="991.0908">getByMMSI(key)</text><ellipse cx="97.5" cy="1000.5078" fill="#84BE84" rx="3" ry="3" style="stroke:#038048;stroke-width:1.0;"/><text fill="#000000" font-family="sans-serif" font-size="11" lengthAdjust="spacing" textLength="71" x="106.5" y="1004.9268">getByIMO(key)</text><ellipse cx="97.5" cy="1014.3438" fill="#84BE84" rx="3" ry="3" style="stroke:#038048;stroke-width:1.0;"/><text fill="#000000" font-family="sans-serif" font-size="11" lengthAdjust="spacing" textLength="68" x="106.5" y="1018.7627">search(h,key)</text><ellipse cx="97.5" cy="1028.1797" fill="#84BE84" rx="3" ry="3" style="stroke:#038048;stroke-width:1.0;"/><text fill="#000000" font-family="sans-serif" font-size="11" lengthAdjust="spacing" textLength="72" x="106.5" y="1032.5986">put(key, value)</text><ellipse cx="97.5" cy="1042.0156" fill="#84BE84" rx="3" ry="3" style="stroke:#038048;stroke-width:1.0;"/><text fill="#000000" font-family="sans-serif" font-size="11" lengthAdjust="spacing" textLength="90" x="106.5" y="1046.4346">insert(h,key,value)</text><!--MD5=[f12b2abee1ad6d5ef1813a01d624bea6]
link ImportPortsUI to PortController--><path codeLine="50" d="M170,55.04 C170,70.71 170,91.91 170,110.58 " fill="none" id="ImportPortsUI-to-PortController" style="stroke:#A80036;stroke-width:1.0;stroke-dasharray:7.0,7.0;"/><polygon fill="#A80036" points="170,115.77,174,106.77,170,110.77,166,106.77,170,115.77" style="stroke:#A80036;stroke-width:1.0;"/><!--MD5=[b608af4d8ae9d41b847ccbb3d9932f10]
link PortController to Company--><path codeLine="51" d="M148.31,192.02 C137.86,209.86 125.4,231.11 115.16,248.59 " fill="none" id="PortController-to-Company" style="stroke:#A80036;stroke-width:1.0;stroke-dasharray:7.0,7.0;"/><polygon fill="#A80036" points="112.61,252.95,120.6118,247.2079,115.1382,248.6363,113.7099,243.1627,112.61,252.95" style="stroke:#A80036;stroke-width:1.0;"/><!--MD5=[5a03d6507d51d9583d52cfaf8d4720dd]
link Company to PortStore--><path codeLine="52" d="M103.37,315.03 C107.44,329.53 112.43,347.19 117,363 C119.32,371.03 121.78,379.44 124.23,387.79 " fill="none" id="Company-to-PortStore" style="stroke:#A80036;stroke-width:1.0;"/><polygon fill="#A80036" points="125.76,392.97,127.0532,383.2064,124.3469,388.1739,119.3794,385.4675,125.76,392.97" style="stroke:#A80036;stroke-width:1.0;"/><polygon fill="#000000" points="123.378,358.9822,123.7103,349.4774,118.0601,351.0973,123.378,358.9822" style="stroke:#000000;stroke-width:1.0;"/><text fill="#000000" font-family="sans-serif" font-size="13" lengthAdjust="spacing" textLength="37" x="131" y="359.4951">knows</text><text fill="#000000" font-family="sans-serif" font-size="13" lengthAdjust="spacing" textLength="7" x="97.3288" y="336.2599">1</text><text fill="#000000" font-family="sans-serif" font-size="13" lengthAdjust="spacing" textLength="7" x="116.1307" y="381.9826">1</text><!--MD5=[b04ad534da760f743f9ddee146ae4153]
link PortController to PortStore--><path codeLine="53" d="M174.04,192.05 C177.79,233.83 181.6,303.67 173,363 C171.82,371.13 170.1,379.54 168.08,387.84 " fill="none" id="PortController-to-PortStore" style="stroke:#A80036;stroke-width:1.0;stroke-dasharray:7.0,7.0;"/><polygon fill="#A80036" points="166.78,392.98,172.8703,385.2399,168.0095,388.1335,165.1159,383.2727,166.78,392.98" style="stroke:#A80036;stroke-width:1.0;"/><!--MD5=[c8440d88291d09ff9b1204d56899ac6f]
link PortStore to Port--><path codeLine="54" d="M145,524.3 C145,546.25 145,571.5 145,596.29 " fill="none" id="PortStore-to-Port" style="stroke:#A80036;stroke-width:1.0;"/><polygon fill="#A80036" points="145,601.57,149,592.57,145,596.57,141,592.57,145,601.57" style="stroke:#A80036;stroke-width:1.0;"/><polygon fill="#000000" points="150,568.1758,152.9389,559.1307,147.0611,559.1307,150,568.1758" style="stroke:#000000;stroke-width:1.0;"/><text fill="#000000" font-family="sans-serif" font-size="13" lengthAdjust="spacing" textLength="37" x="159" y="568.4951">knows</text><text fill="#000000" font-family="sans-serif" font-size="13" lengthAdjust="spacing" textLength="7" x="137.6391" y="545.4231">1</text><text fill="#000000" font-family="sans-serif" font-size="13" lengthAdjust="spacing" textLength="5" x="139.8398" y="591.2375">*</text><!--MD5=[0576dc8b556db42118a3e46db9217711]
link Port to KDTree--><path codeLine="55" d="M145,830.23 C145,854.74 145,880.1 145,902.82 " fill="none" id="Port-to-KDTree" style="stroke:#A80036;stroke-width:1.0;"/><polygon fill="#A80036" points="145,907.92,149,898.92,145,902.92,141,898.92,145,907.92" style="stroke:#A80036;stroke-width:1.0;"/><polygon fill="#000000" points="150,874.1758,152.9389,865.1307,147.0611,865.1307,150,874.1758" style="stroke:#000000;stroke-width:1.0;"/><text fill="#000000" font-family="sans-serif" font-size="13" lengthAdjust="spacing" textLength="50" x="159" y="874.4951">stored in</text><text fill="#000000" font-family="sans-serif" font-size="13" lengthAdjust="spacing" textLength="5" x="139.8477" y="851.1883">*</text><text fill="#000000" font-family="sans-serif" font-size="13" lengthAdjust="spacing" textLength="7" x="137.6391" y="897.1311">1</text><!--MD5=[d1fc4158decbc9081bf30fa34214a16f]
@startuml
'https://plantuml.com/class-diagram

class ImportPortsUI {


}
class PortController{
    +PortController()
    +ImportPorts(String file)
}
class Company{
    +getPortStore()
}
class PortStore{
+PortStore()
+getRootNode()
+getKdt()
+addPort(port)
+getPort(String port)
+ getPortList()
}
class Port{
-continent;
-country;
-code;
-name;
-latitude;
-longitude;

 +Port(continent,country,code,name,latitude,longitude)
    +getContinent()
    +getCountry()
    +getCode()
    +getPort()
    +getLatitude()
    +getLongitude()

}
class KDTree{
Node
+getByCallSign(key)
+getByMMSI(key)
+getByIMO(key)
+search(h,key)
+put(key, value)
+insert(h,key,value)
}


ImportPortsUI ..> PortController
PortController ..> Company
Company "1" - -> "1" PortStore  : knows >
PortController ..> PortStore
PortStore "1" - -> "*" Port  : knows >
Port "*" - -> "1" KDTree : stored in >

@enduml

@startuml

class ImportPortsUI {


}
class PortController{
    +PortController()
    +ImportPorts(String file)
}
class Company{
    +getPortStore()
}
class PortStore{
+PortStore()
+getRootNode()
+getKdt()
+addPort(port)
+getPort(String port)
+ getPortList()
}
class Port{
-continent;
-country;
-code;
-name;
-latitude;
-longitude;

 +Port(continent,country,code,name,latitude,longitude)
    +getContinent()
    +getCountry()
    +getCode()
    +getPort()
    +getLatitude()
    +getLongitude()

}
class KDTree{
Node
+getByCallSign(key)
+getByMMSI(key)
+getByIMO(key)
+search(h,key)
+put(key, value)
+insert(h,key,value)
}


ImportPortsUI ..> PortController
PortController ..> Company
Company "1" - -> "1" PortStore  : knows >
PortController ..> PortStore
PortStore "1" - -> "*" Port  : knows >
Port "*" - -> "1" KDTree : stored in >

@enduml

PlantUML version 1.2021.11(Sat Oct 02 14:26:11 BST 2021)
(GPL source distribution)
Java Runtime: OpenJDK Runtime Environment
JVM: OpenJDK 64-Bit Server VM
Default Encoding: Cp1252
Language: pt
Country: PT
--></g></svg>