<?xml version="1.0" encoding="UTF-8" standalone="no"?><svg xmlns="http://www.w3.org/2000/svg" xmlns:xlink="http://www.w3.org/1999/xlink" contentScriptType="application/ecmascript" contentStyleType="text/css" height="834px" preserveAspectRatio="none" style="width:645px;height:834px;background:#FFFFFF;" version="1.1" viewBox="0 0 645 834" width="645px" zoomAndPan="magnify"><defs><filter height="300%" id="f1fd2njhkjd8pv" width="300%" x="-1" y="-1"><feGaussianBlur result="blurOut" stdDeviation="2.0"/><feColorMatrix in="blurOut" result="blurOut2" type="matrix" values="0 0 0 0 0 0 0 0 0 0 0 0 0 0 0 0 0 0 .4 0"/><feOffset dx="4.0" dy="4.0" in="blurOut2" result="blurOut3"/><feBlend in="SourceGraphic" in2="blurOut3" mode="normal"/></filter></defs><g><!--MD5=[332d2e8adcf064d31c362a6ee30a42fd]
class ContainerStatusController--><rect codeLine="3" fill="#FEFECE" filter="url(#f1fd2njhkjd8pv)" height="124.8281" id="ContainerStatusController" style="stroke:#A80036;stroke-width:1.5;" width="295" x="209" y="231"/><ellipse cx="274.75" cy="247" fill="#ADD1B2" rx="11" ry="11" style="stroke:#A80036;stroke-width:1.0;"/><path d="M277.2188,252.875 Q276.6406,253.1875 276,253.3438 Q275.3594,253.5 274.6563,253.5 Q272.1563,253.5 270.8281,251.8281 Q269.5156,250.1563 269.5156,247 Q269.5156,243.8438 270.8281,242.1719 Q272.1563,240.5 274.6563,240.5 Q275.3594,240.5 276,240.6563 Q276.6563,240.8125 277.2188,241.125 L277.2188,243.9219 Q276.5938,243.3594 276,243.0938 Q275.4063,242.8125 274.7813,242.8125 Q273.4375,242.8125 272.75,243.875 Q272.0625,244.9375 272.0625,247 Q272.0625,249.0781 272.75,250.1406 Q273.4375,251.1875 274.7813,251.1875 Q275.4063,251.1875 276,250.9219 Q276.5938,250.6563 277.2188,250.0781 L277.2188,252.875 Z " fill="#000000"/><text fill="#000000" font-family="sans-serif" font-size="12" lengthAdjust="spacing" textLength="155" x="295.25" y="251.1543">ContainerStatusController</text><line style="stroke:#A80036;stroke-width:1.5;" x1="210" x2="503" y1="263" y2="263"/><rect fill="none" height="6" style="stroke:#C82930;stroke-width:1.0;" width="6" x="217" y="271"/><text fill="#000000" font-family="sans-serif" font-size="11" lengthAdjust="spacing" textLength="239" x="229" y="277.2104">DatabaseConnection databaseConnection;</text><rect fill="none" height="6" style="stroke:#C82930;stroke-width:1.0;" width="6" x="217" y="283.8047"/><text fill="#000000" font-family="sans-serif" font-size="11" lengthAdjust="spacing" textLength="56" x="229" y="290.0151">company;</text><rect fill="none" height="6" style="stroke:#C82930;stroke-width:1.0;" width="6" x="217" y="296.6094"/><text fill="#000000" font-family="sans-serif" font-size="11" lengthAdjust="spacing" textLength="33" x="229" y="302.8198">store;</text><line style="stroke:#A80036;stroke-width:1.5;" x1="210" x2="503" y1="309.4141" y2="309.4141"/><ellipse cx="220" cy="320.4141" fill="#84BE84" rx="3" ry="3" style="stroke:#038048;stroke-width:1.0;"/><text fill="#000000" font-family="sans-serif" font-size="11" lengthAdjust="spacing" textLength="269" x="229" y="323.6245">ContainerStatusController(databaseConnection)</text><text fill="#000000" font-family="sans-serif" font-size="11" lengthAdjust="spacing" textLength="0" x="233" y="336.4292"/><ellipse cx="220" cy="346.0234" fill="#84BE84" rx="3" ry="3" style="stroke:#038048;stroke-width:1.0;"/><text fill="#000000" font-family="sans-serif" font-size="11" lengthAdjust="spacing" textLength="160" x="229" y="349.2339">containerStatus(containerID)</text><!--MD5=[335f4d9be48430461c68bf6d6fdba145]
class App--><rect codeLine="13" fill="#FEFECE" filter="url(#f1fd2njhkjd8pv)" height="163.2422" id="App" style="stroke:#A80036;stroke-width:1.5;" width="164" x="274.5" y="7"/><ellipse cx="340.25" cy="23" fill="#ADD1B2" rx="11" ry="11" style="stroke:#A80036;stroke-width:1.0;"/><path d="M342.7188,28.875 Q342.1406,29.1875 341.5,29.3438 Q340.8594,29.5 340.1563,29.5 Q337.6563,29.5 336.3281,27.8281 Q335.0156,26.1563 335.0156,23 Q335.0156,19.8438 336.3281,18.1719 Q337.6563,16.5 340.1563,16.5 Q340.8594,16.5 341.5,16.6563 Q342.1563,16.8125 342.7188,17.125 L342.7188,19.9219 Q342.0938,19.3594 341.5,19.0938 Q340.9063,18.8125 340.2813,18.8125 Q338.9375,18.8125 338.25,19.875 Q337.5625,20.9375 337.5625,23 Q337.5625,25.0781 338.25,26.1406 Q338.9375,27.1875 340.2813,27.1875 Q340.9063,27.1875 341.5,26.9219 Q342.0938,26.6563 342.7188,26.0781 L342.7188,28.875 Z " fill="#000000"/><text fill="#000000" font-family="sans-serif" font-size="12" lengthAdjust="spacing" textLength="24" x="360.75" y="27.1543">App</text><line style="stroke:#A80036;stroke-width:1.5;" x1="275.5" x2="437.5" y1="39" y2="39"/><rect fill="none" height="6" style="stroke:#C82930;stroke-width:1.0;" width="6" x="282.5" y="47"/><text fill="#000000" font-family="sans-serif" font-size="11" lengthAdjust="spacing" textLength="51" x="294.5" y="53.2104">singleton</text><rect fill="none" height="6" style="stroke:#C82930;stroke-width:1.0;" width="6" x="282.5" y="59.8047"/><text fill="#000000" font-family="sans-serif" font-size="11" lengthAdjust="spacing" textLength="56" x="294.5" y="66.0151">company;</text><rect fill="none" height="6" style="stroke:#C82930;stroke-width:1.0;" width="6" x="282.5" y="72.6094"/><text fill="#000000" font-family="sans-serif" font-size="11" lengthAdjust="spacing" textLength="69" x="294.5" y="78.8198">authFacade;</text><line style="stroke:#A80036;stroke-width:1.5;" x1="275.5" x2="437.5" y1="85.4141" y2="85.4141"/><rect fill="#F24D5C" height="6" style="stroke:#C82930;stroke-width:1.0;" width="6" x="282.5" y="93.4141"/><text fill="#000000" font-family="sans-serif" font-size="11" lengthAdjust="spacing" textLength="62" x="294.5" y="99.6245">bootstrap()</text><rect fill="#F24D5C" height="6" style="stroke:#C82930;stroke-width:1.0;" width="6" x="282.5" y="106.2188"/><text fill="#000000" font-family="sans-serif" font-size="11" lengthAdjust="spacing" textLength="30" x="294.5" y="112.4292">App()</text><ellipse cx="285.5" cy="122.0234" fill="#84BE84" rx="3" ry="3" style="stroke:#038048;stroke-width:1.0;"/><text fill="#000000" font-family="sans-serif" font-size="11" lengthAdjust="spacing" textLength="80" x="294.5" y="125.2339">getCompany()</text><ellipse cx="285.5" cy="134.8281" fill="#84BE84" rx="3" ry="3" style="stroke:#038048;stroke-width:1.0;"/><text fill="#000000" font-family="sans-serif" font-size="11" lengthAdjust="spacing" textLength="138" x="294.5" y="138.0386">getCurrentUserSession()</text><ellipse cx="285.5" cy="147.6328" fill="#84BE84" rx="3" ry="3" style="stroke:#038048;stroke-width:1.0;"/><text fill="#000000" font-family="sans-serif" font-size="11" lengthAdjust="spacing" textLength="114" x="294.5" y="150.8433">doLogin(email, pwd)</text><ellipse cx="285.5" cy="160.4375" fill="#84BE84" rx="3" ry="3" style="stroke:#038048;stroke-width:1.0;"/><text fill="#000000" font-family="sans-serif" font-size="11" lengthAdjust="spacing" textLength="60" x="294.5" y="163.6479">doLogout()</text><!--MD5=[02e4b9b7573f1156f41e60aa5b4e25a4]
class Company--><rect codeLine="26" fill="#FEFECE" filter="url(#f1fd2njhkjd8pv)" height="176.0469" id="Company" style="stroke:#A80036;stroke-width:1.5;" width="141" x="159" y="417"/><ellipse cx="197.4" cy="433" fill="#ADD1B2" rx="11" ry="11" style="stroke:#A80036;stroke-width:1.0;"/><path d="M199.8688,438.875 Q199.2906,439.1875 198.65,439.3438 Q198.0094,439.5 197.3063,439.5 Q194.8063,439.5 193.4781,437.8281 Q192.1656,436.1563 192.1656,433 Q192.1656,429.8438 193.4781,428.1719 Q194.8063,426.5 197.3063,426.5 Q198.0094,426.5 198.65,426.6563 Q199.3063,426.8125 199.8688,427.125 L199.8688,429.9219 Q199.2438,429.3594 198.65,429.0938 Q198.0563,428.8125 197.4313,428.8125 Q196.0875,428.8125 195.4,429.875 Q194.7125,430.9375 194.7125,433 Q194.7125,435.0781 195.4,436.1406 Q196.0875,437.1875 197.4313,437.1875 Q198.0563,437.1875 198.65,436.9219 Q199.2438,436.6563 199.8688,436.0781 L199.8688,438.875 Z " fill="#000000"/><text fill="#000000" font-family="sans-serif" font-size="12" lengthAdjust="spacing" textLength="57" x="216.6" y="437.1543">Company</text><line style="stroke:#A80036;stroke-width:1.5;" x1="160" x2="299" y1="449" y2="449"/><rect fill="none" height="6" style="stroke:#C82930;stroke-width:1.0;" width="6" x="167" y="457"/><text fill="#000000" font-family="sans-serif" font-size="11" lengthAdjust="spacing" textLength="53" x="179" y="463.2104">shipStore</text><rect fill="none" height="6" style="stroke:#C82930;stroke-width:1.0;" width="6" x="167" y="469.8047"/><text fill="#000000" font-family="sans-serif" font-size="11" lengthAdjust="spacing" textLength="65" x="179" y="476.0151">authFacade</text><rect fill="none" height="6" style="stroke:#C82930;stroke-width:1.0;" width="6" x="167" y="482.6094"/><text fill="#000000" font-family="sans-serif" font-size="11" lengthAdjust="spacing" textLength="53" x="179" y="488.8198">portStore</text><rect fill="none" height="6" style="stroke:#C82930;stroke-width:1.0;" width="6" x="167" y="495.4141"/><text fill="#000000" font-family="sans-serif" font-size="11" lengthAdjust="spacing" textLength="83" x="179" y="501.6245">containerStore</text><rect fill="none" height="6" style="stroke:#C82930;stroke-width:1.0;" width="6" x="167" y="508.2188"/><text fill="#000000" font-family="sans-serif" font-size="11" lengthAdjust="spacing" textLength="115" x="179" y="514.4292">databaseConnection</text><line style="stroke:#A80036;stroke-width:1.5;" x1="160" x2="299" y1="521.0234" y2="521.0234"/><ellipse cx="170" cy="532.0234" fill="#84BE84" rx="3" ry="3" style="stroke:#038048;stroke-width:1.0;"/><text fill="#000000" font-family="sans-serif" font-size="11" lengthAdjust="spacing" textLength="62" x="179" y="535.2339">Company()</text><ellipse cx="170" cy="544.8281" fill="#84BE84" rx="3" ry="3" style="stroke:#038048;stroke-width:1.0;"/><text fill="#000000" font-family="sans-serif" font-size="11" lengthAdjust="spacing" textLength="80" x="179" y="548.0386">getShipStore()</text><ellipse cx="170" cy="557.6328" fill="#84BE84" rx="3" ry="3" style="stroke:#038048;stroke-width:1.0;"/><text fill="#000000" font-family="sans-serif" font-size="11" lengthAdjust="spacing" textLength="92" x="179" y="560.8433">getAuthFacade()</text><ellipse cx="170" cy="570.4375" fill="#84BE84" rx="3" ry="3" style="stroke:#038048;stroke-width:1.0;"/><text fill="#000000" font-family="sans-serif" font-size="11" lengthAdjust="spacing" textLength="79" x="179" y="573.6479">getPortStore()</text><ellipse cx="170" cy="583.2422" fill="#84BE84" rx="3" ry="3" style="stroke:#038048;stroke-width:1.0;"/><text fill="#000000" font-family="sans-serif" font-size="11" lengthAdjust="spacing" textLength="111" x="179" y="586.4526">getContainerStore()</text><!--MD5=[421f7538b11410e8370fa0324235b51e]
class ContainerStore--><rect codeLine="43" fill="#FEFECE" filter="url(#f1fd2njhkjd8pv)" height="150.4375" id="ContainerStore" style="stroke:#A80036;stroke-width:1.5;" width="445" x="7" y="670"/><ellipse cx="180.25" cy="686" fill="#ADD1B2" rx="11" ry="11" style="stroke:#A80036;stroke-width:1.0;"/><path d="M182.7188,691.875 Q182.1406,692.1875 181.5,692.3438 Q180.8594,692.5 180.1563,692.5 Q177.6563,692.5 176.3281,690.8281 Q175.0156,689.1563 175.0156,686 Q175.0156,682.8438 176.3281,681.1719 Q177.6563,679.5 180.1563,679.5 Q180.8594,679.5 181.5,679.6563 Q182.1563,679.8125 182.7188,680.125 L182.7188,682.9219 Q182.0938,682.3594 181.5,682.0938 Q180.9063,681.8125 180.2813,681.8125 Q178.9375,681.8125 178.25,682.875 Q177.5625,683.9375 177.5625,686 Q177.5625,688.0781 178.25,689.1406 Q178.9375,690.1875 180.2813,690.1875 Q180.9063,690.1875 181.5,689.9219 Q182.0938,689.6563 182.7188,689.0781 L182.7188,691.875 Z " fill="#000000"/><text fill="#000000" font-family="sans-serif" font-size="12" lengthAdjust="spacing" textLength="90" x="200.75" y="690.1543">ContainerStore</text><line style="stroke:#A80036;stroke-width:1.5;" x1="8" x2="451" y1="702" y2="702"/><rect fill="none" height="6" style="stroke:#C82930;stroke-width:1.0;" width="6" x="15" y="710"/><text fill="#000000" font-family="sans-serif" font-size="11" lengthAdjust="spacing" textLength="72" x="27" y="716.2104">containerList</text><line style="stroke:#A80036;stroke-width:1.5;" x1="8" x2="451" y1="722.8047" y2="722.8047"/><ellipse cx="18" cy="733.8047" fill="#84BE84" rx="3" ry="3" style="stroke:#038048;stroke-width:1.0;"/><text fill="#000000" font-family="sans-serif" font-size="11" lengthAdjust="spacing" textLength="93" x="27" y="737.0151">ContainerStore()</text><ellipse cx="18" cy="746.6094" fill="#84BE84" rx="3" ry="3" style="stroke:#038048;stroke-width:1.0;"/><text fill="#000000" font-family="sans-serif" font-size="11" lengthAdjust="spacing" textLength="100" x="27" y="749.8198">getContainerList()</text><ellipse cx="18" cy="759.4141" fill="#84BE84" rx="3" ry="3" style="stroke:#038048;stroke-width:1.0;"/><text fill="#000000" font-family="sans-serif" font-size="11" lengthAdjust="spacing" textLength="303" x="27" y="762.6245">getContainerStatus(containerID, databaseConnection)</text><rect fill="#F24D5C" height="6" style="stroke:#C82930;stroke-width:1.0;" width="6" x="15" y="769.2188"/><text fill="#000000" font-family="sans-serif" font-size="11" lengthAdjust="spacing" textLength="266" x="27" y="775.4292">executeSQLQuery(query, databaseConnection)</text><ellipse cx="18" cy="785.0234" fill="#84BE84" rx="3" ry="3" style="stroke:#038048;stroke-width:1.0;"/><text fill="#000000" font-family="sans-serif" font-size="11" lengthAdjust="spacing" textLength="311" x="27" y="788.2339">getCargoManifestIDs(containerID, databaseConnection)</text><ellipse cx="18" cy="797.8281" fill="#84BE84" rx="3" ry="3" style="stroke:#038048;stroke-width:1.0;"/><text fill="#000000" font-family="sans-serif" font-size="11" lengthAdjust="spacing" textLength="419" x="27" y="801.0386">getTheMostRecentCargoManifest(cargos_manifestid, databaseConnection)</text><ellipse cx="18" cy="810.6328" fill="#84BE84" rx="3" ry="3" style="stroke:#038048;stroke-width:1.0;"/><text fill="#000000" font-family="sans-serif" font-size="11" lengthAdjust="spacing" textLength="247" x="27" y="813.8433">getTypeOfManifest(id, databaseConnection)</text><!--MD5=[8aa441cdd93a4e2944eff58bc06cd78a]
class DatabaseConnection--><rect codeLine="54" fill="#FEFECE" filter="url(#f1fd2njhkjd8pv)" height="124.8281" id="DatabaseConnection" style="stroke:#A80036;stroke-width:1.5;" width="296" x="335.5" y="442.5"/><ellipse cx="417.25" cy="458.5" fill="#ADD1B2" rx="11" ry="11" style="stroke:#A80036;stroke-width:1.0;"/><path d="M419.7188,464.375 Q419.1406,464.6875 418.5,464.8438 Q417.8594,465 417.1563,465 Q414.6563,465 413.3281,463.3281 Q412.0156,461.6563 412.0156,458.5 Q412.0156,455.3438 413.3281,453.6719 Q414.6563,452 417.1563,452 Q417.8594,452 418.5,452.1563 Q419.1563,452.3125 419.7188,452.625 L419.7188,455.4219 Q419.0938,454.8594 418.5,454.5938 Q417.9063,454.3125 417.2813,454.3125 Q415.9375,454.3125 415.25,455.375 Q414.5625,456.4375 414.5625,458.5 Q414.5625,460.5781 415.25,461.6406 Q415.9375,462.6875 417.2813,462.6875 Q417.9063,462.6875 418.5,462.4219 Q419.0938,462.1563 419.7188,461.5781 L419.7188,464.375 Z " fill="#000000"/><text fill="#000000" font-family="sans-serif" font-size="12" lengthAdjust="spacing" textLength="124" x="437.75" y="462.6543">DatabaseConnection</text><line style="stroke:#A80036;stroke-width:1.5;" x1="336.5" x2="630.5" y1="474.5" y2="474.5"/><rect fill="none" height="6" style="stroke:#C82930;stroke-width:1.0;" width="6" x="343.5" y="482.5"/><text fill="#000000" font-family="sans-serif" font-size="11" lengthAdjust="spacing" textLength="61" x="355.5" y="488.7104">connection</text><rect fill="none" height="6" style="stroke:#C82930;stroke-width:1.0;" width="6" x="343.5" y="495.3047"/><text fill="#000000" font-family="sans-serif" font-size="11" lengthAdjust="spacing" textLength="29" x="355.5" y="501.5151">error</text><line style="stroke:#A80036;stroke-width:1.5;" x1="336.5" x2="630.5" y1="508.1094" y2="508.1094"/><ellipse cx="346.5" cy="519.1094" fill="#84BE84" rx="3" ry="3" style="stroke:#038048;stroke-width:1.0;"/><text fill="#000000" font-family="sans-serif" font-size="11" lengthAdjust="spacing" textLength="270" x="355.5" y="522.3198">DatabaseConnection(url,  username, password)</text><ellipse cx="346.5" cy="531.9141" fill="#84BE84" rx="3" ry="3" style="stroke:#038048;stroke-width:1.0;"/><text fill="#000000" font-family="sans-serif" font-size="11" lengthAdjust="spacing" textLength="89" x="355.5" y="535.1245">getConnection()</text><ellipse cx="346.5" cy="544.7188" fill="#84BE84" rx="3" ry="3" style="stroke:#038048;stroke-width:1.0;"/><text fill="#000000" font-family="sans-serif" font-size="11" lengthAdjust="spacing" textLength="110" x="355.5" y="547.9292">registerError(error)</text><ellipse cx="346.5" cy="557.5234" fill="#84BE84" rx="3" ry="3" style="stroke:#038048;stroke-width:1.0;"/><text fill="#000000" font-family="sans-serif" font-size="11" lengthAdjust="spacing" textLength="78" x="355.5" y="560.7339">getLastError()</text><!--MD5=[92056bd06ae6bd8999d4c104ca594197]
link App to ContainerStatusController--><path codeLine="63" d="M356.5,170.02 C356.5,188.38 356.5,207.7 356.5,225.42 " fill="none" id="App-to-ContainerStatusController" style="stroke:#A80036;stroke-width:1.0;stroke-dasharray:7.0,7.0;"/><polygon fill="#A80036" points="356.5,230.87,360.5,221.87,356.5,225.87,352.5,221.87,356.5,230.87" style="stroke:#A80036;stroke-width:1.0;"/><!--MD5=[c2d80cb1be961a4355a52a6419af496b]
link ContainerStatusController to Company--><path codeLine="64" d="M319.08,356.22 C308.4,373.84 296.53,393.42 285.02,412.42 " fill="none" id="ContainerStatusController-to-Company" style="stroke:#A80036;stroke-width:1.0;stroke-dasharray:7.0,7.0;"/><polygon fill="#A80036" points="282.41,416.72,290.5063,411.112,285.0097,412.449,283.6727,406.9524,282.41,416.72" style="stroke:#A80036;stroke-width:1.0;"/><!--MD5=[e0599f9507ff217f6cc3b7e03b1376c8]
link ContainerStatusController to DatabaseConnection--><path codeLine="65" d="M393.92,356.22 C409.48,381.9 427.57,411.74 443.41,437.86 " fill="none" id="ContainerStatusController-to-DatabaseConnection" style="stroke:#A80036;stroke-width:1.0;stroke-dasharray:7.0,7.0;"/><polygon fill="#A80036" points="446.13,442.36,444.8817,432.5906,443.5366,438.0852,438.042,436.74,446.13,442.36" style="stroke:#A80036;stroke-width:1.0;"/><!--MD5=[4546f9ecd2c2e8ec56683289b93f5556]
link Company to ContainerStore--><path codeLine="66" d="M229.5,593.27 C229.5,616.58 229.5,641.65 229.5,664.51 " fill="none" id="Company-to-ContainerStore" style="stroke:#A80036;stroke-width:1.0;"/><polygon fill="#A80036" points="229.5,669.66,233.5,660.66,229.5,664.66,225.5,660.66,229.5,669.66" style="stroke:#A80036;stroke-width:1.0;"/><text fill="#000000" font-family="sans-serif" font-size="13" lengthAdjust="spacing" textLength="42" x="230.5" y="636.0669">knows</text><text fill="#000000" font-family="sans-serif" font-size="13" lengthAdjust="spacing" textLength="8" x="221.1813" y="612.972">1</text><text fill="#000000" font-family="sans-serif" font-size="13" lengthAdjust="spacing" textLength="8" x="221.1188" y="658.8167">1</text><!--MD5=[d0374df2ee8a2d239d6b65e09b50dae2]
@startuml
'https://plantuml.com/class-diagram

class ContainerStatusController{
-DatabaseConnection databaseConnection;
    - company;
    - store;
    +ContainerStatusController(databaseConnection)

    + containerStatus(containerID)

}

class App{
-bootstrap()
- singleton
- company;
- authFacade;
-App()
+  getCompany()
+  getCurrentUserSession()
 + doLogin(email, pwd)
 + doLogout()
}


      class Company {
      -shipStore
      -authFacade
      -portStore
      -containerStore
      -databaseConnection

      +Company()
      +getShipStore()
      +getAuthFacade()
        +getPortStore()
        +getContainerStore()



      }

class ContainerStore{
-containerList
+ContainerStore()
+getContainerList()
+getContainerStatus(containerID, databaseConnection)
-executeSQLQuery(query, databaseConnection)
+getCargoManifestIDs(containerID, databaseConnection)
+getTheMostRecentCargoManifest(cargos_manifestid, databaseConnection)
+getTypeOfManifest(id, databaseConnection)
}

class DatabaseConnection{
-connection
-error
+DatabaseConnection(url,  username, password)
+getConnection()
+registerError(error)
+getLastError()

}
App  ..>ContainerStatusController
ContainerStatusController ..> Company
ContainerStatusController ..> DatabaseConnection
Company "1" - ->"1" ContainerStore : "knows"


@enduml

@startuml

class ContainerStatusController{
-DatabaseConnection databaseConnection;
    - company;
    - store;
    +ContainerStatusController(databaseConnection)

    + containerStatus(containerID)

}

class App{
-bootstrap()
- singleton
- company;
- authFacade;
-App()
+  getCompany()
+  getCurrentUserSession()
 + doLogin(email, pwd)
 + doLogout()
}


      class Company {
      -shipStore
      -authFacade
      -portStore
      -containerStore
      -databaseConnection

      +Company()
      +getShipStore()
      +getAuthFacade()
        +getPortStore()
        +getContainerStore()



      }

class ContainerStore{
-containerList
+ContainerStore()
+getContainerList()
+getContainerStatus(containerID, databaseConnection)
-executeSQLQuery(query, databaseConnection)
+getCargoManifestIDs(containerID, databaseConnection)
+getTheMostRecentCargoManifest(cargos_manifestid, databaseConnection)
+getTypeOfManifest(id, databaseConnection)
}

class DatabaseConnection{
-connection
-error
+DatabaseConnection(url,  username, password)
+getConnection()
+registerError(error)
+getLastError()

}
App  ..>ContainerStatusController
ContainerStatusController ..> Company
ContainerStatusController ..> DatabaseConnection
Company "1" - ->"1" ContainerStore : "knows"


@enduml

PlantUML version 1.2021.16(Wed Dec 08 17:25:22 WET 2021)
(GPL source distribution)
Java Runtime: OpenJDK Runtime Environment
JVM: OpenJDK 64-Bit Server VM
Default Encoding: UTF-8
Language: pt
Country: PT
--></g></svg>