<?xml version="1.0" encoding="UTF-8" standalone="no"?><svg xmlns="http://www.w3.org/2000/svg" xmlns:xlink="http://www.w3.org/1999/xlink" contentScriptType="application/ecmascript" contentStyleType="text/css" height="883px" preserveAspectRatio="none" style="width:1844px;height:883px;background:#FCF9EA;" version="1.1" viewBox="0 0 1844 883" width="1844px" zoomAndPan="magnify"><defs><filter height="300%" id="f10957vfoypkf8" width="300%" x="-1" y="-1"><feGaussianBlur result="blurOut" stdDeviation="2.0"/><feColorMatrix in="blurOut" result="blurOut2" type="matrix" values="0 0 0 0 0 0 0 0 0 0 0 0 0 0 0 0 0 0 .4 0"/><feOffset dx="4.0" dy="4.0" in="blurOut2" result="blurOut3"/><feBlend in="SourceGraphic" in2="blurOut3" mode="normal"/></filter></defs><g><text fill="#888888" font-family="sans-serif" font-size="10" lengthAdjust="spacing" textLength="0" x="917" y="10.3809"/><text fill="#888888" font-family="sans-serif" font-size="10" lengthAdjust="spacing" textLength="0" x="917" y="22.959"/><text fill="#000000" font-family="sans-serif" font-size="15" font-weight="bold" lengthAdjust="spacing" textLength="143" x="844" y="40.7275">Built by JAVArdice ©</text><text fill="#F8A978" font-family="Arial Black" font-size="30" font-weight="bold" lengthAdjust="spacing" textLength="276" x="777.5" y="77.041">DOMAIN MODEL</text><text fill="#F8A978" font-family="Arial Black" font-size="30" lengthAdjust="spacing" textLength="0" x="920.5" y="119.3457"/><!--MD5=[69572fb95abd67c79d5ad5db921e8728]
class Messages--><rect codeLine="28" fill="#BADFDB" filter="url(#f10957vfoypkf8)" height="136.8516" id="Messages" rx="10" ry="10" style="stroke:#FFFFFF;stroke-width:1.5;" width="104" x="396" y="732.6328"/><ellipse cx="417.3" cy="748.6328" fill="#FFC5A1" rx="11" ry="11" style="stroke:#FFFFFF;stroke-width:1.0;"/><path d="M419.3,745.1328 Q419.5031,744.6328 419.7375,744.3828 Q419.9719,744.1328 420.2375,744.1328 Q420.7063,744.1328 421.0031,744.4141 Q421.3,744.6953 421.3,745.3516 L421.3,746.9141 Q421.3,747.5703 421.0188,747.8516 Q420.7375,748.1328 420.3,748.1328 Q419.9094,748.1328 419.6594,747.9609 Q419.4094,747.7891 419.3,747.3359 Q419.2531,747.0234 419.0813,746.8516 Q418.7688,746.5234 418.2063,746.3359 Q417.6438,746.1328 417.0813,746.1328 Q416.3781,746.1328 415.7844,746.4141 Q415.2063,746.6953 414.7531,747.3203 Q414.3,747.9453 414.3,748.8047 L414.3,749.7266 Q414.3,750.7578 415.1438,751.4453 Q415.9875,752.1328 417.4875,752.1328 Q418.3781,752.1328 419.0031,751.9297 Q419.3625,751.8203 419.7688,751.4609 Q420.0344,751.2578 420.175,751.1953 Q420.3156,751.1328 420.4875,751.1328 Q420.8156,751.1328 421.05,751.3984 Q421.3,751.6484 421.3,752.0078 Q421.3,752.3516 420.9563,752.7578 Q420.4563,753.3516 419.6594,753.6797 Q418.6125,754.1328 417.3313,754.1328 Q415.8313,754.1328 414.6281,753.5391 Q413.6594,753.0703 412.9719,752.0547 Q412.3,751.0391 412.3,749.8359 L412.3,748.7422 Q412.3,747.4922 412.8938,746.3984 Q413.5031,745.3047 414.55,744.7266 Q415.6125,744.1328 416.8,744.1328 Q417.5188,744.1328 418.1438,744.3828 Q418.7688,744.6328 419.3,745.1328 Z " fill="#000000"/><text fill="#000000" font-family="sans-serif" font-size="12" lengthAdjust="spacing" textLength="58" x="432.7" y="753.543">Messages</text><line style="stroke:#FFFFFF;stroke-width:1.5;" x1="397" x2="499" y1="764.6328" y2="764.6328"/><text fill="#000000" font-family="sans-serif" font-size="11" lengthAdjust="spacing" textLength="42" x="402" y="780.0518">-Latitude</text><text fill="#000000" font-family="sans-serif" font-size="11" lengthAdjust="spacing" textLength="47" x="402" y="793.8877">-longitude</text><text fill="#000000" font-family="sans-serif" font-size="11" lengthAdjust="spacing" textLength="27" x="402" y="807.7236">-SOG</text><text fill="#000000" font-family="sans-serif" font-size="11" lengthAdjust="spacing" textLength="27" x="402" y="821.5596">-COG</text><text fill="#000000" font-family="sans-serif" font-size="11" lengthAdjust="spacing" textLength="43" x="402" y="835.3955">-Heading</text><text fill="#000000" font-family="sans-serif" font-size="11" lengthAdjust="spacing" textLength="41" x="402" y="849.2314">-Position</text><text fill="#000000" font-family="sans-serif" font-size="11" lengthAdjust="spacing" textLength="92" x="402" y="863.0674">-Transceiver Class</text><!--MD5=[0dc7f2ddb409b58bcf52b12238c25399]
class Ship--><rect codeLine="37" fill="#BADFDB" filter="url(#f10957vfoypkf8)" height="192.1953" id="Ship" rx="10" ry="10" style="stroke:#FFFFFF;stroke-width:1.5;" width="109" x="540.5" y="462.6328"/><ellipse cx="578.9" cy="478.6328" fill="#FFC5A1" rx="11" ry="11" style="stroke:#FFFFFF;stroke-width:1.0;"/><path d="M580.9,475.1328 Q581.1031,474.6328 581.3375,474.3828 Q581.5719,474.1328 581.8375,474.1328 Q582.3063,474.1328 582.6031,474.4141 Q582.9,474.6953 582.9,475.3516 L582.9,476.9141 Q582.9,477.5703 582.6188,477.8516 Q582.3375,478.1328 581.9,478.1328 Q581.5094,478.1328 581.2594,477.9609 Q581.0094,477.7891 580.9,477.3359 Q580.8531,477.0234 580.6813,476.8516 Q580.3688,476.5234 579.8063,476.3359 Q579.2438,476.1328 578.6813,476.1328 Q577.9781,476.1328 577.3844,476.4141 Q576.8063,476.6953 576.3531,477.3203 Q575.9,477.9453 575.9,478.8047 L575.9,479.7266 Q575.9,480.7578 576.7438,481.4453 Q577.5875,482.1328 579.0875,482.1328 Q579.9781,482.1328 580.6031,481.9297 Q580.9625,481.8203 581.3688,481.4609 Q581.6344,481.2578 581.775,481.1953 Q581.9156,481.1328 582.0875,481.1328 Q582.4156,481.1328 582.65,481.3984 Q582.9,481.6484 582.9,482.0078 Q582.9,482.3516 582.5563,482.7578 Q582.0563,483.3516 581.2594,483.6797 Q580.2125,484.1328 578.9313,484.1328 Q577.4313,484.1328 576.2281,483.5391 Q575.2594,483.0703 574.5719,482.0547 Q573.9,481.0391 573.9,479.8359 L573.9,478.7422 Q573.9,477.4922 574.4938,476.3984 Q575.1031,475.3047 576.15,474.7266 Q577.2125,474.1328 578.4,474.1328 Q579.1188,474.1328 579.7438,474.3828 Q580.3688,474.6328 580.9,475.1328 Z " fill="#000000"/><text fill="#000000" font-family="sans-serif" font-size="12" lengthAdjust="spacing" textLength="25" x="598.1" y="483.543">Ship</text><line style="stroke:#FFFFFF;stroke-width:1.5;" x1="541.5" x2="648.5" y1="494.6328" y2="494.6328"/><text fill="#000000" font-family="sans-serif" font-size="11" lengthAdjust="spacing" textLength="22" x="546.5" y="510.0518">-IMO</text><text fill="#000000" font-family="sans-serif" font-size="11" lengthAdjust="spacing" textLength="29" x="546.5" y="523.8877">-MMSI</text><text fill="#000000" font-family="sans-serif" font-size="11" lengthAdjust="spacing" textLength="45" x="546.5" y="537.7236">-Call Sign</text><text fill="#000000" font-family="sans-serif" font-size="11" lengthAdjust="spacing" textLength="31" x="546.5" y="551.5596">-Name</text><text fill="#000000" font-family="sans-serif" font-size="11" lengthAdjust="spacing" textLength="63" x="546.5" y="565.3955">-vessel Type</text><text fill="#000000" font-family="sans-serif" font-size="11" lengthAdjust="spacing" textLength="37" x="546.5" y="579.2314">-Lenght</text><text fill="#000000" font-family="sans-serif" font-size="11" lengthAdjust="spacing" textLength="31" x="546.5" y="593.0674">-Width</text><text fill="#000000" font-family="sans-serif" font-size="11" lengthAdjust="spacing" textLength="97" x="546.5" y="606.9033">-Number generators</text><text fill="#000000" font-family="sans-serif" font-size="11" lengthAdjust="spacing" textLength="94" x="546.5" y="620.7393">-Generators power</text><text fill="#000000" font-family="sans-serif" font-size="11" lengthAdjust="spacing" textLength="46" x="546.5" y="634.5752">-Capacity</text><text fill="#000000" font-family="sans-serif" font-size="11" lengthAdjust="spacing" textLength="28" x="546.5" y="648.4111">-Draft</text><!--MD5=[e9a58730c562b34349daa605d1ed6662]
class Container--><rect codeLine="51" fill="#BADFDB" filter="url(#f10957vfoypkf8)" height="81.5078" id="Container" rx="10" ry="10" style="stroke:#FFFFFF;stroke-width:1.5;" width="86" x="1299" y="274.1328"/><ellipse cx="1314" cy="290.1328" fill="#FFC5A1" rx="11" ry="11" style="stroke:#FFFFFF;stroke-width:1.0;"/><path d="M1316,286.6328 Q1316.2031,286.1328 1316.4375,285.8828 Q1316.6719,285.6328 1316.9375,285.6328 Q1317.4063,285.6328 1317.7031,285.9141 Q1318,286.1953 1318,286.8516 L1318,288.4141 Q1318,289.0703 1317.7188,289.3516 Q1317.4375,289.6328 1317,289.6328 Q1316.6094,289.6328 1316.3594,289.4609 Q1316.1094,289.2891 1316,288.8359 Q1315.9531,288.5234 1315.7813,288.3516 Q1315.4688,288.0234 1314.9063,287.8359 Q1314.3438,287.6328 1313.7813,287.6328 Q1313.0781,287.6328 1312.4844,287.9141 Q1311.9063,288.1953 1311.4531,288.8203 Q1311,289.4453 1311,290.3047 L1311,291.2266 Q1311,292.2578 1311.8438,292.9453 Q1312.6875,293.6328 1314.1875,293.6328 Q1315.0781,293.6328 1315.7031,293.4297 Q1316.0625,293.3203 1316.4688,292.9609 Q1316.7344,292.7578 1316.875,292.6953 Q1317.0156,292.6328 1317.1875,292.6328 Q1317.5156,292.6328 1317.75,292.8984 Q1318,293.1484 1318,293.5078 Q1318,293.8516 1317.6563,294.2578 Q1317.1563,294.8516 1316.3594,295.1797 Q1315.3125,295.6328 1314.0313,295.6328 Q1312.5313,295.6328 1311.3281,295.0391 Q1310.3594,294.5703 1309.6719,293.5547 Q1309,292.5391 1309,291.3359 L1309,290.2422 Q1309,288.9922 1309.5938,287.8984 Q1310.2031,286.8047 1311.25,286.2266 Q1312.3125,285.6328 1313.5,285.6328 Q1314.2188,285.6328 1314.8438,285.8828 Q1315.4688,286.1328 1316,286.6328 Z " fill="#000000"/><text fill="#000000" font-family="sans-serif" font-size="12" lengthAdjust="spacing" textLength="54" x="1328" y="295.043">Container</text><line style="stroke:#FFFFFF;stroke-width:1.5;" x1="1300" x2="1384" y1="306.1328" y2="306.1328"/><text fill="#000000" font-family="sans-serif" font-size="11" lengthAdjust="spacing" textLength="42" x="1305" y="321.5518">-payload</text><text fill="#000000" font-family="sans-serif" font-size="11" lengthAdjust="spacing" textLength="23" x="1305" y="335.3877">-tare</text><text fill="#000000" font-family="sans-serif" font-size="11" lengthAdjust="spacing" textLength="32" x="1305" y="349.2236">-gross</text><!--MD5=[f65cf4e6c3422ee25fb08b800eae9c36]
class ContainerRefrigerated--><rect codeLine="58" fill="#BADFDB" filter="url(#f10957vfoypkf8)" height="95.3438" id="ContainerRefrigerated" rx="10" ry="10" style="stroke:#FFFFFF;stroke-width:1.5;" width="154" x="1676" y="267.6328"/><ellipse cx="1691" cy="283.6328" fill="#FFC5A1" rx="11" ry="11" style="stroke:#FFFFFF;stroke-width:1.0;"/><path d="M1693,280.1328 Q1693.2031,279.6328 1693.4375,279.3828 Q1693.6719,279.1328 1693.9375,279.1328 Q1694.4063,279.1328 1694.7031,279.4141 Q1695,279.6953 1695,280.3516 L1695,281.9141 Q1695,282.5703 1694.7188,282.8516 Q1694.4375,283.1328 1694,283.1328 Q1693.6094,283.1328 1693.3594,282.9609 Q1693.1094,282.7891 1693,282.3359 Q1692.9531,282.0234 1692.7813,281.8516 Q1692.4688,281.5234 1691.9063,281.3359 Q1691.3438,281.1328 1690.7813,281.1328 Q1690.0781,281.1328 1689.4844,281.4141 Q1688.9063,281.6953 1688.4531,282.3203 Q1688,282.9453 1688,283.8047 L1688,284.7266 Q1688,285.7578 1688.8438,286.4453 Q1689.6875,287.1328 1691.1875,287.1328 Q1692.0781,287.1328 1692.7031,286.9297 Q1693.0625,286.8203 1693.4688,286.4609 Q1693.7344,286.2578 1693.875,286.1953 Q1694.0156,286.1328 1694.1875,286.1328 Q1694.5156,286.1328 1694.75,286.3984 Q1695,286.6484 1695,287.0078 Q1695,287.3516 1694.6563,287.7578 Q1694.1563,288.3516 1693.3594,288.6797 Q1692.3125,289.1328 1691.0313,289.1328 Q1689.5313,289.1328 1688.3281,288.5391 Q1687.3594,288.0703 1686.6719,287.0547 Q1686,286.0391 1686,284.8359 L1686,283.7422 Q1686,282.4922 1686.5938,281.3984 Q1687.2031,280.3047 1688.25,279.7266 Q1689.3125,279.1328 1690.5,279.1328 Q1691.2188,279.1328 1691.8438,279.3828 Q1692.4688,279.6328 1693,280.1328 Z " fill="#000000"/><text fill="#000000" font-family="sans-serif" font-size="12" lengthAdjust="spacing" textLength="122" x="1705" y="288.543">ContainerRefrigerated</text><line style="stroke:#FFFFFF;stroke-width:1.5;" x1="1677" x2="1829" y1="299.6328" y2="299.6328"/><text fill="#000000" font-family="sans-serif" font-size="11" lengthAdjust="spacing" textLength="42" x="1682" y="315.0518">-payload</text><text fill="#000000" font-family="sans-serif" font-size="11" lengthAdjust="spacing" textLength="23" x="1682" y="328.8877">-tare</text><text fill="#000000" font-family="sans-serif" font-size="11" lengthAdjust="spacing" textLength="32" x="1682" y="342.7236">-gross</text><text fill="#000000" font-family="sans-serif" font-size="11" lengthAdjust="spacing" textLength="62" x="1682" y="356.5596">-temperature</text><!--MD5=[76bef78c20971d0fcd96a5526b5af5e6]
class LoadingCargoManifest--><rect codeLine="65" fill="#BADFDB" filter="url(#f10957vfoypkf8)" height="95.3438" id="LoadingCargoManifest" rx="10" ry="10" style="stroke:#FFFFFF;stroke-width:1.5;" width="157" x="751.5" y="753.6328"/><ellipse cx="766.5" cy="769.6328" fill="#FFC5A1" rx="11" ry="11" style="stroke:#FFFFFF;stroke-width:1.0;"/><path d="M768.5,766.1328 Q768.7031,765.6328 768.9375,765.3828 Q769.1719,765.1328 769.4375,765.1328 Q769.9063,765.1328 770.2031,765.4141 Q770.5,765.6953 770.5,766.3516 L770.5,767.9141 Q770.5,768.5703 770.2188,768.8516 Q769.9375,769.1328 769.5,769.1328 Q769.1094,769.1328 768.8594,768.9609 Q768.6094,768.7891 768.5,768.3359 Q768.4531,768.0234 768.2813,767.8516 Q767.9688,767.5234 767.4063,767.3359 Q766.8438,767.1328 766.2813,767.1328 Q765.5781,767.1328 764.9844,767.4141 Q764.4063,767.6953 763.9531,768.3203 Q763.5,768.9453 763.5,769.8047 L763.5,770.7266 Q763.5,771.7578 764.3438,772.4453 Q765.1875,773.1328 766.6875,773.1328 Q767.5781,773.1328 768.2031,772.9297 Q768.5625,772.8203 768.9688,772.4609 Q769.2344,772.2578 769.375,772.1953 Q769.5156,772.1328 769.6875,772.1328 Q770.0156,772.1328 770.25,772.3984 Q770.5,772.6484 770.5,773.0078 Q770.5,773.3516 770.1563,773.7578 Q769.6563,774.3516 768.8594,774.6797 Q767.8125,775.1328 766.5313,775.1328 Q765.0313,775.1328 763.8281,774.5391 Q762.8594,774.0703 762.1719,773.0547 Q761.5,772.0391 761.5,770.8359 L761.5,769.7422 Q761.5,768.4922 762.0938,767.3984 Q762.7031,766.3047 763.75,765.7266 Q764.8125,765.1328 766,765.1328 Q766.7188,765.1328 767.3438,765.3828 Q767.9688,765.6328 768.5,766.1328 Z " fill="#000000"/><text fill="#000000" font-family="sans-serif" font-size="12" lengthAdjust="spacing" textLength="125" x="780.5" y="774.543">LoadingCargoManifest</text><line style="stroke:#FFFFFF;stroke-width:1.5;" x1="752.5" x2="907.5" y1="785.6328" y2="785.6328"/><text fill="#000000" font-family="sans-serif" font-size="11" lengthAdjust="spacing" textLength="57" x="757.5" y="801.0518">-containerId</text><text fill="#000000" font-family="sans-serif" font-size="11" lengthAdjust="spacing" textLength="61" x="757.5" y="814.8877">-coordinates</text><text fill="#000000" font-family="sans-serif" font-size="11" lengthAdjust="spacing" textLength="32" x="757.5" y="828.7236">-gross</text><text fill="#000000" font-family="sans-serif" font-size="11" lengthAdjust="spacing" textLength="25" x="757.5" y="842.5596">-type</text><!--MD5=[174c0e4036b9b8ac640de066b1712445]
class UnloadingCargoManifest--><rect codeLine="71" fill="#BADFDB" filter="url(#f10957vfoypkf8)" height="95.3438" id="UnloadingCargoManifest" rx="10" ry="10" style="stroke:#FFFFFF;stroke-width:1.5;" width="169" x="543.5" y="753.6328"/><ellipse cx="558.5" cy="769.6328" fill="#FFC5A1" rx="11" ry="11" style="stroke:#FFFFFF;stroke-width:1.0;"/><path d="M560.5,766.1328 Q560.7031,765.6328 560.9375,765.3828 Q561.1719,765.1328 561.4375,765.1328 Q561.9063,765.1328 562.2031,765.4141 Q562.5,765.6953 562.5,766.3516 L562.5,767.9141 Q562.5,768.5703 562.2188,768.8516 Q561.9375,769.1328 561.5,769.1328 Q561.1094,769.1328 560.8594,768.9609 Q560.6094,768.7891 560.5,768.3359 Q560.4531,768.0234 560.2813,767.8516 Q559.9688,767.5234 559.4063,767.3359 Q558.8438,767.1328 558.2813,767.1328 Q557.5781,767.1328 556.9844,767.4141 Q556.4063,767.6953 555.9531,768.3203 Q555.5,768.9453 555.5,769.8047 L555.5,770.7266 Q555.5,771.7578 556.3438,772.4453 Q557.1875,773.1328 558.6875,773.1328 Q559.5781,773.1328 560.2031,772.9297 Q560.5625,772.8203 560.9688,772.4609 Q561.2344,772.2578 561.375,772.1953 Q561.5156,772.1328 561.6875,772.1328 Q562.0156,772.1328 562.25,772.3984 Q562.5,772.6484 562.5,773.0078 Q562.5,773.3516 562.1563,773.7578 Q561.6563,774.3516 560.8594,774.6797 Q559.8125,775.1328 558.5313,775.1328 Q557.0313,775.1328 555.8281,774.5391 Q554.8594,774.0703 554.1719,773.0547 Q553.5,772.0391 553.5,770.8359 L553.5,769.7422 Q553.5,768.4922 554.0938,767.3984 Q554.7031,766.3047 555.75,765.7266 Q556.8125,765.1328 558,765.1328 Q558.7188,765.1328 559.3438,765.3828 Q559.9688,765.6328 560.5,766.1328 Z " fill="#000000"/><text fill="#000000" font-family="sans-serif" font-size="12" lengthAdjust="spacing" textLength="137" x="572.5" y="774.543">UnloadingCargoManifest</text><line style="stroke:#FFFFFF;stroke-width:1.5;" x1="544.5" x2="711.5" y1="785.6328" y2="785.6328"/><text fill="#000000" font-family="sans-serif" font-size="11" lengthAdjust="spacing" textLength="57" x="549.5" y="801.0518">-containerId</text><text fill="#000000" font-family="sans-serif" font-size="11" lengthAdjust="spacing" textLength="61" x="549.5" y="814.8877">-coordinates</text><text fill="#000000" font-family="sans-serif" font-size="11" lengthAdjust="spacing" textLength="32" x="549.5" y="828.7236">-gross</text><text fill="#000000" font-family="sans-serif" font-size="11" lengthAdjust="spacing" textLength="25" x="549.5" y="842.5596">-type</text><!--MD5=[a0bfe97ac0a38e6e74cc1c7c7b744b71]
class Port--><rect codeLine="77" fill="#BADFDB" filter="url(#f10957vfoypkf8)" height="123.0156" id="Port" rx="10" ry="10" style="stroke:#FFFFFF;stroke-width:1.5;" width="60" x="706" y="497.1328"/><ellipse cx="723.7" cy="513.1328" fill="#FFC5A1" rx="11" ry="11" style="stroke:#FFFFFF;stroke-width:1.0;"/><path d="M725.7,509.6328 Q725.9031,509.1328 726.1375,508.8828 Q726.3719,508.6328 726.6375,508.6328 Q727.1063,508.6328 727.4031,508.9141 Q727.7,509.1953 727.7,509.8516 L727.7,511.4141 Q727.7,512.0703 727.4188,512.3516 Q727.1375,512.6328 726.7,512.6328 Q726.3094,512.6328 726.0594,512.4609 Q725.8094,512.2891 725.7,511.8359 Q725.6531,511.5234 725.4813,511.3516 Q725.1688,511.0234 724.6063,510.8359 Q724.0438,510.6328 723.4813,510.6328 Q722.7781,510.6328 722.1844,510.9141 Q721.6063,511.1953 721.1531,511.8203 Q720.7,512.4453 720.7,513.3047 L720.7,514.2266 Q720.7,515.2578 721.5438,515.9453 Q722.3875,516.6328 723.8875,516.6328 Q724.7781,516.6328 725.4031,516.4297 Q725.7625,516.3203 726.1688,515.9609 Q726.4344,515.7578 726.575,515.6953 Q726.7156,515.6328 726.8875,515.6328 Q727.2156,515.6328 727.45,515.8984 Q727.7,516.1484 727.7,516.5078 Q727.7,516.8516 727.3563,517.2578 Q726.8563,517.8516 726.0594,518.1797 Q725.0125,518.6328 723.7313,518.6328 Q722.2313,518.6328 721.0281,518.0391 Q720.0594,517.5703 719.3719,516.5547 Q718.7,515.5391 718.7,514.3359 L718.7,513.2422 Q718.7,511.9922 719.2938,510.8984 Q719.9031,509.8047 720.95,509.2266 Q722.0125,508.6328 723.2,508.6328 Q723.9188,508.6328 724.5438,508.8828 Q725.1688,509.1328 725.7,509.6328 Z " fill="#000000"/><text fill="#000000" font-family="sans-serif" font-size="12" lengthAdjust="spacing" textLength="22" x="738.3" y="518.043">Port</text><line style="stroke:#FFFFFF;stroke-width:1.5;" x1="707" x2="765" y1="529.1328" y2="529.1328"/><text fill="#000000" font-family="sans-serif" font-size="11" lengthAdjust="spacing" textLength="12" x="712" y="544.5518">-id</text><text fill="#000000" font-family="sans-serif" font-size="11" lengthAdjust="spacing" textLength="31" x="712" y="558.3877">-Name</text><text fill="#000000" font-family="sans-serif" font-size="11" lengthAdjust="spacing" textLength="48" x="712" y="572.2236">-continent</text><text fill="#000000" font-family="sans-serif" font-size="11" lengthAdjust="spacing" textLength="41" x="712" y="586.0596">-country</text><text fill="#000000" font-family="sans-serif" font-size="11" lengthAdjust="spacing" textLength="38" x="712" y="599.8955">-latitude</text><text fill="#000000" font-family="sans-serif" font-size="11" lengthAdjust="spacing" textLength="47" x="712" y="613.7314">-longitude</text><!--MD5=[a0f87e6025691183c0426e05dd01b081]
class WareHouses--><rect codeLine="86" fill="#BADFDB" filter="url(#f10957vfoypkf8)" height="123.0156" id="WareHouses" rx="10" ry="10" style="stroke:#FFFFFF;stroke-width:1.5;" width="105" x="1561.5" y="497.1328"/><ellipse cx="1576.5" cy="513.1328" fill="#FFC5A1" rx="11" ry="11" style="stroke:#FFFFFF;stroke-width:1.0;"/><path d="M1578.5,509.6328 Q1578.7031,509.1328 1578.9375,508.8828 Q1579.1719,508.6328 1579.4375,508.6328 Q1579.9063,508.6328 1580.2031,508.9141 Q1580.5,509.1953 1580.5,509.8516 L1580.5,511.4141 Q1580.5,512.0703 1580.2188,512.3516 Q1579.9375,512.6328 1579.5,512.6328 Q1579.1094,512.6328 1578.8594,512.4609 Q1578.6094,512.2891 1578.5,511.8359 Q1578.4531,511.5234 1578.2813,511.3516 Q1577.9688,511.0234 1577.4063,510.8359 Q1576.8438,510.6328 1576.2813,510.6328 Q1575.5781,510.6328 1574.9844,510.9141 Q1574.4063,511.1953 1573.9531,511.8203 Q1573.5,512.4453 1573.5,513.3047 L1573.5,514.2266 Q1573.5,515.2578 1574.3438,515.9453 Q1575.1875,516.6328 1576.6875,516.6328 Q1577.5781,516.6328 1578.2031,516.4297 Q1578.5625,516.3203 1578.9688,515.9609 Q1579.2344,515.7578 1579.375,515.6953 Q1579.5156,515.6328 1579.6875,515.6328 Q1580.0156,515.6328 1580.25,515.8984 Q1580.5,516.1484 1580.5,516.5078 Q1580.5,516.8516 1580.1563,517.2578 Q1579.6563,517.8516 1578.8594,518.1797 Q1577.8125,518.6328 1576.5313,518.6328 Q1575.0313,518.6328 1573.8281,518.0391 Q1572.8594,517.5703 1572.1719,516.5547 Q1571.5,515.5391 1571.5,514.3359 L1571.5,513.2422 Q1571.5,511.9922 1572.0938,510.8984 Q1572.7031,509.8047 1573.75,509.2266 Q1574.8125,508.6328 1576,508.6328 Q1576.7188,508.6328 1577.3438,508.8828 Q1577.9688,509.1328 1578.5,509.6328 Z " fill="#000000"/><text fill="#000000" font-family="sans-serif" font-size="12" lengthAdjust="spacing" textLength="73" x="1590.5" y="518.043">WareHouses</text><line style="stroke:#FFFFFF;stroke-width:1.5;" x1="1562.5" x2="1665.5" y1="529.1328" y2="529.1328"/><text fill="#000000" font-family="sans-serif" font-size="11" lengthAdjust="spacing" textLength="12" x="1567.5" y="544.5518">-id</text><text fill="#000000" font-family="sans-serif" font-size="11" lengthAdjust="spacing" textLength="31" x="1567.5" y="558.3877">-Name</text><text fill="#000000" font-family="sans-serif" font-size="11" lengthAdjust="spacing" textLength="48" x="1567.5" y="572.2236">-continent</text><text fill="#000000" font-family="sans-serif" font-size="11" lengthAdjust="spacing" textLength="41" x="1567.5" y="586.0596">-country</text><text fill="#000000" font-family="sans-serif" font-size="11" lengthAdjust="spacing" textLength="38" x="1567.5" y="599.8955">-latitude</text><text fill="#000000" font-family="sans-serif" font-size="11" lengthAdjust="spacing" textLength="47" x="1567.5" y="613.7314">-longitude</text><!--MD5=[02e4b9b7573f1156f41e60aa5b4e25a4]
class Company--><rect codeLine="94" fill="#BADFDB" filter="url(#f10957vfoypkf8)" height="53.8359" id="Company" rx="10" ry="10" style="stroke:#FFFFFF;stroke-width:1.5;" width="85" x="706.5" y="135.6328"/><ellipse cx="721.5" cy="151.6328" fill="#FFC5A1" rx="11" ry="11" style="stroke:#FFFFFF;stroke-width:1.0;"/><path d="M723.5,148.1328 Q723.7031,147.6328 723.9375,147.3828 Q724.1719,147.1328 724.4375,147.1328 Q724.9063,147.1328 725.2031,147.4141 Q725.5,147.6953 725.5,148.3516 L725.5,149.9141 Q725.5,150.5703 725.2188,150.8516 Q724.9375,151.1328 724.5,151.1328 Q724.1094,151.1328 723.8594,150.9609 Q723.6094,150.7891 723.5,150.3359 Q723.4531,150.0234 723.2813,149.8516 Q722.9688,149.5234 722.4063,149.3359 Q721.8438,149.1328 721.2813,149.1328 Q720.5781,149.1328 719.9844,149.4141 Q719.4063,149.6953 718.9531,150.3203 Q718.5,150.9453 718.5,151.8047 L718.5,152.7266 Q718.5,153.7578 719.3438,154.4453 Q720.1875,155.1328 721.6875,155.1328 Q722.5781,155.1328 723.2031,154.9297 Q723.5625,154.8203 723.9688,154.4609 Q724.2344,154.2578 724.375,154.1953 Q724.5156,154.1328 724.6875,154.1328 Q725.0156,154.1328 725.25,154.3984 Q725.5,154.6484 725.5,155.0078 Q725.5,155.3516 725.1563,155.7578 Q724.6563,156.3516 723.8594,156.6797 Q722.8125,157.1328 721.5313,157.1328 Q720.0313,157.1328 718.8281,156.5391 Q717.8594,156.0703 717.1719,155.0547 Q716.5,154.0391 716.5,152.8359 L716.5,151.7422 Q716.5,150.4922 717.0938,149.3984 Q717.7031,148.3047 718.75,147.7266 Q719.8125,147.1328 721,147.1328 Q721.7188,147.1328 722.3438,147.3828 Q722.9688,147.6328 723.5,148.1328 Z " fill="#000000"/><text fill="#000000" font-family="sans-serif" font-size="12" lengthAdjust="spacing" textLength="53" x="735.5" y="156.543">Company</text><line style="stroke:#FFFFFF;stroke-width:1.5;" x1="707.5" x2="790.5" y1="167.6328" y2="167.6328"/><text fill="#000000" font-family="sans-serif" font-size="11" lengthAdjust="spacing" textLength="59" x="712.5" y="183.0518">-designation</text><!--MD5=[f2ba7f6ab60af8dd0d3e354f91729b14]
class Truck--><rect codeLine="97" fill="#BADFDB" filter="url(#f10957vfoypkf8)" height="40" id="Truck" rx="10" ry="10" style="stroke:#FFFFFF;stroke-width:1.5;" width="62" x="1030" y="538.6328"/><ellipse cx="1045" cy="554.6328" fill="#FFC5A1" rx="11" ry="11" style="stroke:#FFFFFF;stroke-width:1.0;"/><path d="M1047,551.1328 Q1047.2031,550.6328 1047.4375,550.3828 Q1047.6719,550.1328 1047.9375,550.1328 Q1048.4063,550.1328 1048.7031,550.4141 Q1049,550.6953 1049,551.3516 L1049,552.9141 Q1049,553.5703 1048.7188,553.8516 Q1048.4375,554.1328 1048,554.1328 Q1047.6094,554.1328 1047.3594,553.9609 Q1047.1094,553.7891 1047,553.3359 Q1046.9531,553.0234 1046.7813,552.8516 Q1046.4688,552.5234 1045.9063,552.3359 Q1045.3438,552.1328 1044.7813,552.1328 Q1044.0781,552.1328 1043.4844,552.4141 Q1042.9063,552.6953 1042.4531,553.3203 Q1042,553.9453 1042,554.8047 L1042,555.7266 Q1042,556.7578 1042.8438,557.4453 Q1043.6875,558.1328 1045.1875,558.1328 Q1046.0781,558.1328 1046.7031,557.9297 Q1047.0625,557.8203 1047.4688,557.4609 Q1047.7344,557.2578 1047.875,557.1953 Q1048.0156,557.1328 1048.1875,557.1328 Q1048.5156,557.1328 1048.75,557.3984 Q1049,557.6484 1049,558.0078 Q1049,558.3516 1048.6563,558.7578 Q1048.1563,559.3516 1047.3594,559.6797 Q1046.3125,560.1328 1045.0313,560.1328 Q1043.5313,560.1328 1042.3281,559.5391 Q1041.3594,559.0703 1040.6719,558.0547 Q1040,557.0391 1040,555.8359 L1040,554.7422 Q1040,553.4922 1040.5938,552.3984 Q1041.2031,551.3047 1042.25,550.7266 Q1043.3125,550.1328 1044.5,550.1328 Q1045.2188,550.1328 1045.8438,550.3828 Q1046.4688,550.6328 1047,551.1328 Z " fill="#000000"/><text fill="#000000" font-family="sans-serif" font-size="12" lengthAdjust="spacing" textLength="30" x="1059" y="559.543">Truck</text><line style="stroke:#FFFFFF;stroke-width:1.5;" x1="1031" x2="1091" y1="570.6328" y2="570.6328"/><!--MD5=[ed6624c6556d5e7b1bd23032162d20b7]
class Client--><rect codeLine="98" fill="#BADFDB" filter="url(#f10957vfoypkf8)" height="40" id="Client" rx="10" ry="10" style="stroke:#FFFFFF;stroke-width:1.5;" width="64" x="7" y="392.6328"/><ellipse cx="22" cy="408.6328" fill="#FFC5A1" rx="11" ry="11" style="stroke:#FFFFFF;stroke-width:1.0;"/><path d="M24,405.1328 Q24.2031,404.6328 24.4375,404.3828 Q24.6719,404.1328 24.9375,404.1328 Q25.4063,404.1328 25.7031,404.4141 Q26,404.6953 26,405.3516 L26,406.9141 Q26,407.5703 25.7188,407.8516 Q25.4375,408.1328 25,408.1328 Q24.6094,408.1328 24.3594,407.9609 Q24.1094,407.7891 24,407.3359 Q23.9531,407.0234 23.7813,406.8516 Q23.4688,406.5234 22.9063,406.3359 Q22.3438,406.1328 21.7813,406.1328 Q21.0781,406.1328 20.4844,406.4141 Q19.9063,406.6953 19.4531,407.3203 Q19,407.9453 19,408.8047 L19,409.7266 Q19,410.7578 19.8438,411.4453 Q20.6875,412.1328 22.1875,412.1328 Q23.0781,412.1328 23.7031,411.9297 Q24.0625,411.8203 24.4688,411.4609 Q24.7344,411.2578 24.875,411.1953 Q25.0156,411.1328 25.1875,411.1328 Q25.5156,411.1328 25.75,411.3984 Q26,411.6484 26,412.0078 Q26,412.3516 25.6563,412.7578 Q25.1563,413.3516 24.3594,413.6797 Q23.3125,414.1328 22.0313,414.1328 Q20.5313,414.1328 19.3281,413.5391 Q18.3594,413.0703 17.6719,412.0547 Q17,411.0391 17,409.8359 L17,408.7422 Q17,407.4922 17.5938,406.3984 Q18.2031,405.3047 19.25,404.7266 Q20.3125,404.1328 21.5,404.1328 Q22.2188,404.1328 22.8438,404.3828 Q23.4688,404.6328 24,405.1328 Z " fill="#000000"/><text fill="#000000" font-family="sans-serif" font-size="12" lengthAdjust="spacing" textLength="32" x="36" y="413.543">Client</text><line style="stroke:#FFFFFF;stroke-width:1.5;" x1="8" x2="70" y1="424.6328" y2="424.6328"/><!--MD5=[bc6b894e3d18da8d9f25806dc8286ece]
class Cargo--><rect codeLine="99" fill="#BADFDB" filter="url(#f10957vfoypkf8)" height="40" id="Cargo" rx="10" ry="10" style="stroke:#FFFFFF;stroke-width:1.5;" width="66" x="801" y="538.6328"/><ellipse cx="816" cy="554.6328" fill="#FFC5A1" rx="11" ry="11" style="stroke:#FFFFFF;stroke-width:1.0;"/><path d="M818,551.1328 Q818.2031,550.6328 818.4375,550.3828 Q818.6719,550.1328 818.9375,550.1328 Q819.4063,550.1328 819.7031,550.4141 Q820,550.6953 820,551.3516 L820,552.9141 Q820,553.5703 819.7188,553.8516 Q819.4375,554.1328 819,554.1328 Q818.6094,554.1328 818.3594,553.9609 Q818.1094,553.7891 818,553.3359 Q817.9531,553.0234 817.7813,552.8516 Q817.4688,552.5234 816.9063,552.3359 Q816.3438,552.1328 815.7813,552.1328 Q815.0781,552.1328 814.4844,552.4141 Q813.9063,552.6953 813.4531,553.3203 Q813,553.9453 813,554.8047 L813,555.7266 Q813,556.7578 813.8438,557.4453 Q814.6875,558.1328 816.1875,558.1328 Q817.0781,558.1328 817.7031,557.9297 Q818.0625,557.8203 818.4688,557.4609 Q818.7344,557.2578 818.875,557.1953 Q819.0156,557.1328 819.1875,557.1328 Q819.5156,557.1328 819.75,557.3984 Q820,557.6484 820,558.0078 Q820,558.3516 819.6563,558.7578 Q819.1563,559.3516 818.3594,559.6797 Q817.3125,560.1328 816.0313,560.1328 Q814.5313,560.1328 813.3281,559.5391 Q812.3594,559.0703 811.6719,558.0547 Q811,557.0391 811,555.8359 L811,554.7422 Q811,553.4922 811.5938,552.3984 Q812.2031,551.3047 813.25,550.7266 Q814.3125,550.1328 815.5,550.1328 Q816.2188,550.1328 816.8438,550.3828 Q817.4688,550.6328 818,551.1328 Z " fill="#000000"/><text fill="#000000" font-family="sans-serif" font-size="12" lengthAdjust="spacing" textLength="34" x="830" y="559.543">Cargo</text><line style="stroke:#FFFFFF;stroke-width:1.5;" x1="802" x2="866" y1="570.6328" y2="570.6328"/><!--MD5=[019a73386217e12d5bb8e34bf0b46b9e]
class FleetManager--><rect codeLine="100" fill="#BADFDB" filter="url(#f10957vfoypkf8)" height="40" id="FleetManager" rx="10" ry="10" style="stroke:#FFFFFF;stroke-width:1.5;" width="107" x="695.5" y="295.1328"/><ellipse cx="710.5" cy="311.1328" fill="#FFC5A1" rx="11" ry="11" style="stroke:#FFFFFF;stroke-width:1.0;"/><path d="M712.5,307.6328 Q712.7031,307.1328 712.9375,306.8828 Q713.1719,306.6328 713.4375,306.6328 Q713.9063,306.6328 714.2031,306.9141 Q714.5,307.1953 714.5,307.8516 L714.5,309.4141 Q714.5,310.0703 714.2188,310.3516 Q713.9375,310.6328 713.5,310.6328 Q713.1094,310.6328 712.8594,310.4609 Q712.6094,310.2891 712.5,309.8359 Q712.4531,309.5234 712.2813,309.3516 Q711.9688,309.0234 711.4063,308.8359 Q710.8438,308.6328 710.2813,308.6328 Q709.5781,308.6328 708.9844,308.9141 Q708.4063,309.1953 707.9531,309.8203 Q707.5,310.4453 707.5,311.3047 L707.5,312.2266 Q707.5,313.2578 708.3438,313.9453 Q709.1875,314.6328 710.6875,314.6328 Q711.5781,314.6328 712.2031,314.4297 Q712.5625,314.3203 712.9688,313.9609 Q713.2344,313.7578 713.375,313.6953 Q713.5156,313.6328 713.6875,313.6328 Q714.0156,313.6328 714.25,313.8984 Q714.5,314.1484 714.5,314.5078 Q714.5,314.8516 714.1563,315.2578 Q713.6563,315.8516 712.8594,316.1797 Q711.8125,316.6328 710.5313,316.6328 Q709.0313,316.6328 707.8281,316.0391 Q706.8594,315.5703 706.1719,314.5547 Q705.5,313.5391 705.5,312.3359 L705.5,311.2422 Q705.5,309.9922 706.0938,308.8984 Q706.7031,307.8047 707.75,307.2266 Q708.8125,306.6328 710,306.6328 Q710.7188,306.6328 711.3438,306.8828 Q711.9688,307.1328 712.5,307.6328 Z " fill="#000000"/><text fill="#000000" font-family="sans-serif" font-size="12" lengthAdjust="spacing" textLength="75" x="724.5" y="316.043">FleetManager</text><line style="stroke:#FFFFFF;stroke-width:1.5;" x1="696.5" x2="801.5" y1="327.1328" y2="327.1328"/><!--MD5=[ddaf6f62b0bc30921877ec9fb9463c9f]
class TrafficManager--><rect codeLine="101" fill="#BADFDB" filter="url(#f10957vfoypkf8)" height="40" id="TrafficManager" rx="10" ry="10" style="stroke:#FFFFFF;stroke-width:1.5;" width="113" x="411.5" y="295.1328"/><ellipse cx="426.5" cy="311.1328" fill="#FFC5A1" rx="11" ry="11" style="stroke:#FFFFFF;stroke-width:1.0;"/><path d="M428.5,307.6328 Q428.7031,307.1328 428.9375,306.8828 Q429.1719,306.6328 429.4375,306.6328 Q429.9063,306.6328 430.2031,306.9141 Q430.5,307.1953 430.5,307.8516 L430.5,309.4141 Q430.5,310.0703 430.2188,310.3516 Q429.9375,310.6328 429.5,310.6328 Q429.1094,310.6328 428.8594,310.4609 Q428.6094,310.2891 428.5,309.8359 Q428.4531,309.5234 428.2813,309.3516 Q427.9688,309.0234 427.4063,308.8359 Q426.8438,308.6328 426.2813,308.6328 Q425.5781,308.6328 424.9844,308.9141 Q424.4063,309.1953 423.9531,309.8203 Q423.5,310.4453 423.5,311.3047 L423.5,312.2266 Q423.5,313.2578 424.3438,313.9453 Q425.1875,314.6328 426.6875,314.6328 Q427.5781,314.6328 428.2031,314.4297 Q428.5625,314.3203 428.9688,313.9609 Q429.2344,313.7578 429.375,313.6953 Q429.5156,313.6328 429.6875,313.6328 Q430.0156,313.6328 430.25,313.8984 Q430.5,314.1484 430.5,314.5078 Q430.5,314.8516 430.1563,315.2578 Q429.6563,315.8516 428.8594,316.1797 Q427.8125,316.6328 426.5313,316.6328 Q425.0313,316.6328 423.8281,316.0391 Q422.8594,315.5703 422.1719,314.5547 Q421.5,313.5391 421.5,312.3359 L421.5,311.2422 Q421.5,309.9922 422.0938,308.8984 Q422.7031,307.8047 423.75,307.2266 Q424.8125,306.6328 426,306.6328 Q426.7188,306.6328 427.3438,306.8828 Q427.9688,307.1328 428.5,307.6328 Z " fill="#000000"/><text fill="#000000" font-family="sans-serif" font-size="12" lengthAdjust="spacing" textLength="81" x="440.5" y="316.043">TrafficManager</text><line style="stroke:#FFFFFF;stroke-width:1.5;" x1="412.5" x2="523.5" y1="327.1328" y2="327.1328"/><!--MD5=[7fcbedb88579745280c367cebf31fce2]
class WarehouseStaff--><rect codeLine="102" fill="#BADFDB" filter="url(#f10957vfoypkf8)" height="40" id="WarehouseStaff" rx="10" ry="10" style="stroke:#FFFFFF;stroke-width:1.5;" width="120" x="1454" y="295.1328"/><ellipse cx="1469" cy="311.1328" fill="#FFC5A1" rx="11" ry="11" style="stroke:#FFFFFF;stroke-width:1.0;"/><path d="M1471,307.6328 Q1471.2031,307.1328 1471.4375,306.8828 Q1471.6719,306.6328 1471.9375,306.6328 Q1472.4063,306.6328 1472.7031,306.9141 Q1473,307.1953 1473,307.8516 L1473,309.4141 Q1473,310.0703 1472.7188,310.3516 Q1472.4375,310.6328 1472,310.6328 Q1471.6094,310.6328 1471.3594,310.4609 Q1471.1094,310.2891 1471,309.8359 Q1470.9531,309.5234 1470.7813,309.3516 Q1470.4688,309.0234 1469.9063,308.8359 Q1469.3438,308.6328 1468.7813,308.6328 Q1468.0781,308.6328 1467.4844,308.9141 Q1466.9063,309.1953 1466.4531,309.8203 Q1466,310.4453 1466,311.3047 L1466,312.2266 Q1466,313.2578 1466.8438,313.9453 Q1467.6875,314.6328 1469.1875,314.6328 Q1470.0781,314.6328 1470.7031,314.4297 Q1471.0625,314.3203 1471.4688,313.9609 Q1471.7344,313.7578 1471.875,313.6953 Q1472.0156,313.6328 1472.1875,313.6328 Q1472.5156,313.6328 1472.75,313.8984 Q1473,314.1484 1473,314.5078 Q1473,314.8516 1472.6563,315.2578 Q1472.1563,315.8516 1471.3594,316.1797 Q1470.3125,316.6328 1469.0313,316.6328 Q1467.5313,316.6328 1466.3281,316.0391 Q1465.3594,315.5703 1464.6719,314.5547 Q1464,313.5391 1464,312.3359 L1464,311.2422 Q1464,309.9922 1464.5938,308.8984 Q1465.2031,307.8047 1466.25,307.2266 Q1467.3125,306.6328 1468.5,306.6328 Q1469.2188,306.6328 1469.8438,306.8828 Q1470.4688,307.1328 1471,307.6328 Z " fill="#000000"/><text fill="#000000" font-family="sans-serif" font-size="12" lengthAdjust="spacing" textLength="88" x="1483" y="316.043">WarehouseStaff</text><line style="stroke:#FFFFFF;stroke-width:1.5;" x1="1455" x2="1573" y1="327.1328" y2="327.1328"/><!--MD5=[a0e14dc1c5f22798a4d68a7546a0e1d4]
class PortStaff--><rect codeLine="103" fill="#BADFDB" filter="url(#f10957vfoypkf8)" height="40" id="PortStaff" rx="10" ry="10" style="stroke:#FFFFFF;stroke-width:1.5;" width="78" x="838" y="295.1328"/><ellipse cx="853" cy="311.1328" fill="#FFC5A1" rx="11" ry="11" style="stroke:#FFFFFF;stroke-width:1.0;"/><path d="M855,307.6328 Q855.2031,307.1328 855.4375,306.8828 Q855.6719,306.6328 855.9375,306.6328 Q856.4063,306.6328 856.7031,306.9141 Q857,307.1953 857,307.8516 L857,309.4141 Q857,310.0703 856.7188,310.3516 Q856.4375,310.6328 856,310.6328 Q855.6094,310.6328 855.3594,310.4609 Q855.1094,310.2891 855,309.8359 Q854.9531,309.5234 854.7813,309.3516 Q854.4688,309.0234 853.9063,308.8359 Q853.3438,308.6328 852.7813,308.6328 Q852.0781,308.6328 851.4844,308.9141 Q850.9063,309.1953 850.4531,309.8203 Q850,310.4453 850,311.3047 L850,312.2266 Q850,313.2578 850.8438,313.9453 Q851.6875,314.6328 853.1875,314.6328 Q854.0781,314.6328 854.7031,314.4297 Q855.0625,314.3203 855.4688,313.9609 Q855.7344,313.7578 855.875,313.6953 Q856.0156,313.6328 856.1875,313.6328 Q856.5156,313.6328 856.75,313.8984 Q857,314.1484 857,314.5078 Q857,314.8516 856.6563,315.2578 Q856.1563,315.8516 855.3594,316.1797 Q854.3125,316.6328 853.0313,316.6328 Q851.5313,316.6328 850.3281,316.0391 Q849.3594,315.5703 848.6719,314.5547 Q848,313.5391 848,312.3359 L848,311.2422 Q848,309.9922 848.5938,308.8984 Q849.2031,307.8047 850.25,307.2266 Q851.3125,306.6328 852.5,306.6328 Q853.2188,306.6328 853.8438,306.8828 Q854.4688,307.1328 855,307.6328 Z " fill="#000000"/><text fill="#000000" font-family="sans-serif" font-size="12" lengthAdjust="spacing" textLength="46" x="867" y="316.043">PortStaff</text><line style="stroke:#FFFFFF;stroke-width:1.5;" x1="839" x2="915" y1="327.1328" y2="327.1328"/><!--MD5=[5e1deb958606d83ef5f4988eb2b8f966]
class WarehouseManager--><rect codeLine="104" fill="#BADFDB" filter="url(#f10957vfoypkf8)" height="40" id="WarehouseManager" rx="10" ry="10" style="stroke:#FFFFFF;stroke-width:1.5;" width="144" x="827" y="142.6328"/><ellipse cx="842" cy="158.6328" fill="#FFC5A1" rx="11" ry="11" style="stroke:#FFFFFF;stroke-width:1.0;"/><path d="M844,155.1328 Q844.2031,154.6328 844.4375,154.3828 Q844.6719,154.1328 844.9375,154.1328 Q845.4063,154.1328 845.7031,154.4141 Q846,154.6953 846,155.3516 L846,156.9141 Q846,157.5703 845.7188,157.8516 Q845.4375,158.1328 845,158.1328 Q844.6094,158.1328 844.3594,157.9609 Q844.1094,157.7891 844,157.3359 Q843.9531,157.0234 843.7813,156.8516 Q843.4688,156.5234 842.9063,156.3359 Q842.3438,156.1328 841.7813,156.1328 Q841.0781,156.1328 840.4844,156.4141 Q839.9063,156.6953 839.4531,157.3203 Q839,157.9453 839,158.8047 L839,159.7266 Q839,160.7578 839.8438,161.4453 Q840.6875,162.1328 842.1875,162.1328 Q843.0781,162.1328 843.7031,161.9297 Q844.0625,161.8203 844.4688,161.4609 Q844.7344,161.2578 844.875,161.1953 Q845.0156,161.1328 845.1875,161.1328 Q845.5156,161.1328 845.75,161.3984 Q846,161.6484 846,162.0078 Q846,162.3516 845.6563,162.7578 Q845.1563,163.3516 844.3594,163.6797 Q843.3125,164.1328 842.0313,164.1328 Q840.5313,164.1328 839.3281,163.5391 Q838.3594,163.0703 837.6719,162.0547 Q837,161.0391 837,159.8359 L837,158.7422 Q837,157.4922 837.5938,156.3984 Q838.2031,155.3047 839.25,154.7266 Q840.3125,154.1328 841.5,154.1328 Q842.2188,154.1328 842.8438,154.3828 Q843.4688,154.6328 844,155.1328 Z " fill="#000000"/><text fill="#000000" font-family="sans-serif" font-size="12" lengthAdjust="spacing" textLength="112" x="856" y="163.543">WarehouseManager</text><line style="stroke:#FFFFFF;stroke-width:1.5;" x1="828" x2="970" y1="174.6328" y2="174.6328"/><!--MD5=[99d8f1361a72f685c413d1fd21efef1c]
class PortManager--><rect codeLine="105" fill="#BADFDB" filter="url(#f10957vfoypkf8)" height="40" id="PortManager" rx="10" ry="10" style="stroke:#FFFFFF;stroke-width:1.5;" width="102" x="1006" y="142.6328"/><ellipse cx="1021" cy="158.6328" fill="#FFC5A1" rx="11" ry="11" style="stroke:#FFFFFF;stroke-width:1.0;"/><path d="M1023,155.1328 Q1023.2031,154.6328 1023.4375,154.3828 Q1023.6719,154.1328 1023.9375,154.1328 Q1024.4063,154.1328 1024.7031,154.4141 Q1025,154.6953 1025,155.3516 L1025,156.9141 Q1025,157.5703 1024.7188,157.8516 Q1024.4375,158.1328 1024,158.1328 Q1023.6094,158.1328 1023.3594,157.9609 Q1023.1094,157.7891 1023,157.3359 Q1022.9531,157.0234 1022.7813,156.8516 Q1022.4688,156.5234 1021.9063,156.3359 Q1021.3438,156.1328 1020.7813,156.1328 Q1020.0781,156.1328 1019.4844,156.4141 Q1018.9063,156.6953 1018.4531,157.3203 Q1018,157.9453 1018,158.8047 L1018,159.7266 Q1018,160.7578 1018.8438,161.4453 Q1019.6875,162.1328 1021.1875,162.1328 Q1022.0781,162.1328 1022.7031,161.9297 Q1023.0625,161.8203 1023.4688,161.4609 Q1023.7344,161.2578 1023.875,161.1953 Q1024.0156,161.1328 1024.1875,161.1328 Q1024.5156,161.1328 1024.75,161.3984 Q1025,161.6484 1025,162.0078 Q1025,162.3516 1024.6563,162.7578 Q1024.1563,163.3516 1023.3594,163.6797 Q1022.3125,164.1328 1021.0313,164.1328 Q1019.5313,164.1328 1018.3281,163.5391 Q1017.3594,163.0703 1016.6719,162.0547 Q1016,161.0391 1016,159.8359 L1016,158.7422 Q1016,157.4922 1016.5938,156.3984 Q1017.2031,155.3047 1018.25,154.7266 Q1019.3125,154.1328 1020.5,154.1328 Q1021.2188,154.1328 1021.8438,154.3828 Q1022.4688,154.6328 1023,155.1328 Z " fill="#000000"/><text fill="#000000" font-family="sans-serif" font-size="12" lengthAdjust="spacing" textLength="70" x="1035" y="163.543">PortManager</text><line style="stroke:#FFFFFF;stroke-width:1.5;" x1="1007" x2="1107" y1="174.6328" y2="174.6328"/><!--MD5=[e6b394b930674b2255938b8afe6bb7b4]
class ShipCaptain--><rect codeLine="106" fill="#BADFDB" filter="url(#f10957vfoypkf8)" height="40" id="ShipCaptain" rx="10" ry="10" style="stroke:#FFFFFF;stroke-width:1.5;" width="100" x="276" y="295.1328"/><ellipse cx="291" cy="311.1328" fill="#FFC5A1" rx="11" ry="11" style="stroke:#FFFFFF;stroke-width:1.0;"/><path d="M293,307.6328 Q293.2031,307.1328 293.4375,306.8828 Q293.6719,306.6328 293.9375,306.6328 Q294.4063,306.6328 294.7031,306.9141 Q295,307.1953 295,307.8516 L295,309.4141 Q295,310.0703 294.7188,310.3516 Q294.4375,310.6328 294,310.6328 Q293.6094,310.6328 293.3594,310.4609 Q293.1094,310.2891 293,309.8359 Q292.9531,309.5234 292.7813,309.3516 Q292.4688,309.0234 291.9063,308.8359 Q291.3438,308.6328 290.7813,308.6328 Q290.0781,308.6328 289.4844,308.9141 Q288.9063,309.1953 288.4531,309.8203 Q288,310.4453 288,311.3047 L288,312.2266 Q288,313.2578 288.8438,313.9453 Q289.6875,314.6328 291.1875,314.6328 Q292.0781,314.6328 292.7031,314.4297 Q293.0625,314.3203 293.4688,313.9609 Q293.7344,313.7578 293.875,313.6953 Q294.0156,313.6328 294.1875,313.6328 Q294.5156,313.6328 294.75,313.8984 Q295,314.1484 295,314.5078 Q295,314.8516 294.6563,315.2578 Q294.1563,315.8516 293.3594,316.1797 Q292.3125,316.6328 291.0313,316.6328 Q289.5313,316.6328 288.3281,316.0391 Q287.3594,315.5703 286.6719,314.5547 Q286,313.5391 286,312.3359 L286,311.2422 Q286,309.9922 286.5938,308.8984 Q287.2031,307.8047 288.25,307.2266 Q289.3125,306.6328 290.5,306.6328 Q291.2188,306.6328 291.8438,306.8828 Q292.4688,307.1328 293,307.6328 Z " fill="#000000"/><text fill="#000000" font-family="sans-serif" font-size="12" lengthAdjust="spacing" textLength="68" x="305" y="316.043">ShipCaptain</text><line style="stroke:#FFFFFF;stroke-width:1.5;" x1="277" x2="375" y1="327.1328" y2="327.1328"/><!--MD5=[d14076b1fa5ff6fc34e7abc31c5e1daa]
class ShipChiefElectricalEngineer--><rect codeLine="107" fill="#BADFDB" filter="url(#f10957vfoypkf8)" height="40" id="ShipChiefElectricalEngineer" rx="10" ry="10" style="stroke:#FFFFFF;stroke-width:1.5;" width="186" x="55" y="295.1328"/><ellipse cx="70" cy="311.1328" fill="#FFC5A1" rx="11" ry="11" style="stroke:#FFFFFF;stroke-width:1.0;"/><path d="M72,307.6328 Q72.2031,307.1328 72.4375,306.8828 Q72.6719,306.6328 72.9375,306.6328 Q73.4063,306.6328 73.7031,306.9141 Q74,307.1953 74,307.8516 L74,309.4141 Q74,310.0703 73.7188,310.3516 Q73.4375,310.6328 73,310.6328 Q72.6094,310.6328 72.3594,310.4609 Q72.1094,310.2891 72,309.8359 Q71.9531,309.5234 71.7813,309.3516 Q71.4688,309.0234 70.9063,308.8359 Q70.3438,308.6328 69.7813,308.6328 Q69.0781,308.6328 68.4844,308.9141 Q67.9063,309.1953 67.4531,309.8203 Q67,310.4453 67,311.3047 L67,312.2266 Q67,313.2578 67.8438,313.9453 Q68.6875,314.6328 70.1875,314.6328 Q71.0781,314.6328 71.7031,314.4297 Q72.0625,314.3203 72.4688,313.9609 Q72.7344,313.7578 72.875,313.6953 Q73.0156,313.6328 73.1875,313.6328 Q73.5156,313.6328 73.75,313.8984 Q74,314.1484 74,314.5078 Q74,314.8516 73.6563,315.2578 Q73.1563,315.8516 72.3594,316.1797 Q71.3125,316.6328 70.0313,316.6328 Q68.5313,316.6328 67.3281,316.0391 Q66.3594,315.5703 65.6719,314.5547 Q65,313.5391 65,312.3359 L65,311.2422 Q65,309.9922 65.5938,308.8984 Q66.2031,307.8047 67.25,307.2266 Q68.3125,306.6328 69.5,306.6328 Q70.2188,306.6328 70.8438,306.8828 Q71.4688,307.1328 72,307.6328 Z " fill="#000000"/><text fill="#000000" font-family="sans-serif" font-size="12" lengthAdjust="spacing" textLength="154" x="84" y="316.043">ShipChiefElectricalEngineer</text><line style="stroke:#FFFFFF;stroke-width:1.5;" x1="56" x2="240" y1="327.1328" y2="327.1328"/><!--MD5=[a93a86a91abc8796b23cdcc7cc3b17ff]
class TruckDriver--><rect codeLine="108" fill="#BADFDB" filter="url(#f10957vfoypkf8)" height="40" id="TruckDriver" rx="10" ry="10" style="stroke:#FFFFFF;stroke-width:1.5;" width="94" x="951" y="295.1328"/><ellipse cx="966" cy="311.1328" fill="#FFC5A1" rx="11" ry="11" style="stroke:#FFFFFF;stroke-width:1.0;"/><path d="M968,307.6328 Q968.2031,307.1328 968.4375,306.8828 Q968.6719,306.6328 968.9375,306.6328 Q969.4063,306.6328 969.7031,306.9141 Q970,307.1953 970,307.8516 L970,309.4141 Q970,310.0703 969.7188,310.3516 Q969.4375,310.6328 969,310.6328 Q968.6094,310.6328 968.3594,310.4609 Q968.1094,310.2891 968,309.8359 Q967.9531,309.5234 967.7813,309.3516 Q967.4688,309.0234 966.9063,308.8359 Q966.3438,308.6328 965.7813,308.6328 Q965.0781,308.6328 964.4844,308.9141 Q963.9063,309.1953 963.4531,309.8203 Q963,310.4453 963,311.3047 L963,312.2266 Q963,313.2578 963.8438,313.9453 Q964.6875,314.6328 966.1875,314.6328 Q967.0781,314.6328 967.7031,314.4297 Q968.0625,314.3203 968.4688,313.9609 Q968.7344,313.7578 968.875,313.6953 Q969.0156,313.6328 969.1875,313.6328 Q969.5156,313.6328 969.75,313.8984 Q970,314.1484 970,314.5078 Q970,314.8516 969.6563,315.2578 Q969.1563,315.8516 968.3594,316.1797 Q967.3125,316.6328 966.0313,316.6328 Q964.5313,316.6328 963.3281,316.0391 Q962.3594,315.5703 961.6719,314.5547 Q961,313.5391 961,312.3359 L961,311.2422 Q961,309.9922 961.5938,308.8984 Q962.2031,307.8047 963.25,307.2266 Q964.3125,306.6328 965.5,306.6328 Q966.2188,306.6328 966.8438,306.8828 Q967.4688,307.1328 968,307.6328 Z " fill="#000000"/><text fill="#000000" font-family="sans-serif" font-size="12" lengthAdjust="spacing" textLength="62" x="980" y="316.043">TruckDriver</text><line style="stroke:#FFFFFF;stroke-width:1.5;" x1="952" x2="1044" y1="327.1328" y2="327.1328"/><!--MD5=[29c1b41b591d7005abc8ae780b236fc5]
class ShipChiefEletricalEngeneer--><rect fill="#BADFDB" filter="url(#f10957vfoypkf8)" height="40" id="ShipChiefEletricalEngeneer" rx="10" ry="10" style="stroke:#FFFFFF;stroke-width:1.5;" width="184" x="1080" y="295.1328"/><ellipse cx="1095" cy="311.1328" fill="#FFC5A1" rx="11" ry="11" style="stroke:#FFFFFF;stroke-width:1.0;"/><path d="M1097,307.6328 Q1097.2031,307.1328 1097.4375,306.8828 Q1097.6719,306.6328 1097.9375,306.6328 Q1098.4063,306.6328 1098.7031,306.9141 Q1099,307.1953 1099,307.8516 L1099,309.4141 Q1099,310.0703 1098.7188,310.3516 Q1098.4375,310.6328 1098,310.6328 Q1097.6094,310.6328 1097.3594,310.4609 Q1097.1094,310.2891 1097,309.8359 Q1096.9531,309.5234 1096.7813,309.3516 Q1096.4688,309.0234 1095.9063,308.8359 Q1095.3438,308.6328 1094.7813,308.6328 Q1094.0781,308.6328 1093.4844,308.9141 Q1092.9063,309.1953 1092.4531,309.8203 Q1092,310.4453 1092,311.3047 L1092,312.2266 Q1092,313.2578 1092.8438,313.9453 Q1093.6875,314.6328 1095.1875,314.6328 Q1096.0781,314.6328 1096.7031,314.4297 Q1097.0625,314.3203 1097.4688,313.9609 Q1097.7344,313.7578 1097.875,313.6953 Q1098.0156,313.6328 1098.1875,313.6328 Q1098.5156,313.6328 1098.75,313.8984 Q1099,314.1484 1099,314.5078 Q1099,314.8516 1098.6563,315.2578 Q1098.1563,315.8516 1097.3594,316.1797 Q1096.3125,316.6328 1095.0313,316.6328 Q1093.5313,316.6328 1092.3281,316.0391 Q1091.3594,315.5703 1090.6719,314.5547 Q1090,313.5391 1090,312.3359 L1090,311.2422 Q1090,309.9922 1090.5938,308.8984 Q1091.2031,307.8047 1092.25,307.2266 Q1093.3125,306.6328 1094.5,306.6328 Q1095.2188,306.6328 1095.8438,306.8828 Q1096.4688,307.1328 1097,307.6328 Z " fill="#000000"/><text fill="#000000" font-family="sans-serif" font-size="12" lengthAdjust="spacing" textLength="152" x="1109" y="316.043">ShipChiefEletricalEngeneer</text><line style="stroke:#FFFFFF;stroke-width:1.5;" x1="1081" x2="1263" y1="327.1328" y2="327.1328"/><!--MD5=[37a14a5de6d6fd738aee271300f4b5c8]
link Company to Ship--><path codeLine="109" d="M706.23,183.7028 C674.5,201.0928 633.35,229.4728 613,267.6328 C581.37,326.9428 577.79,403.0828 581.63,462.4528 " fill="none" id="Company-Ship" style="stroke:#FFC5A1;stroke-width:1.0;"/><polygon fill="#000000" points="615.9596,319.8733,622.3338,312.815,616.9676,310.4163,615.9596,319.8733" style="stroke:#000000;stroke-width:1.0;"/><text fill="#000000" font-family="sans-serif" font-size="13" lengthAdjust="spacing" textLength="50" x="627" y="320.6279">operates</text><text fill="#000000" font-family="sans-serif" font-size="13" lengthAdjust="spacing" textLength="7" x="691.5665" y="183.4053">1</text><text fill="#000000" font-family="sans-serif" font-size="13" lengthAdjust="spacing" textLength="5" x="575.3654" y="451.6523">*</text><!--MD5=[b19a23dc9ffe75f516bf57fdefa9f71f]
link Company to WarehouseStaff--><path codeLine="110" d="M791.77,183.6928 C797.8,185.9728 803.99,188.0428 810,189.6328 C924.61,219.8528 957.46,204.3828 1075,219.6328 C1221.11,238.5928 1261.05,228.1928 1403,267.6328 C1427.76,274.5128 1454.35,285.5128 1475.3,295.0928 " fill="none" id="Company-WarehouseStaff" style="stroke:#FFC5A1;stroke-width:1.0;"/><polygon fill="#000000" points="1260.9349,229.6129,1252.4803,225.2573,1251.5348,231.0586,1260.9349,229.6129" style="stroke:#000000;stroke-width:1.0;"/><text fill="#000000" font-family="sans-serif" font-size="13" lengthAdjust="spacing" textLength="37" x="1265" y="234.1279">knows</text><text fill="#000000" font-family="sans-serif" font-size="13" lengthAdjust="spacing" textLength="7" x="799.4335" y="183.3937">1</text><text fill="#000000" font-family="sans-serif" font-size="13" lengthAdjust="spacing" textLength="5" x="1458.1975" y="284.4028">*</text><!--MD5=[6eee883fdf517d3604e8bd0f2058e9aa]
link Company to Client--><path codeLine="111" d="M706.31,162.9428 C566.2,161.6628 124.41,165.8928 37,267.6328 C7.02,302.5228 21.17,361.6528 31.5,392.1528 " fill="none" id="Company-Client" style="stroke:#FFC5A1;stroke-width:1.0;"/><polygon fill="#000000" points="120.2657,230.4167,129.7754,230.2904,127.885,224.7248,120.2657,230.4167" style="stroke:#000000;stroke-width:1.0;"/><text fill="#000000" font-family="sans-serif" font-size="13" lengthAdjust="spacing" textLength="37" x="134" y="234.1279">knows</text><text fill="#000000" font-family="sans-serif" font-size="13" lengthAdjust="spacing" textLength="7" x="691.3711" y="159.1605">1</text><text fill="#000000" font-family="sans-serif" font-size="13" lengthAdjust="spacing" textLength="5" x="23.6875" y="381.6874">*</text><!--MD5=[23ef25626787ef5c742e19a78aab0fad]
link Company to PortStaff--><path codeLine="112" d="M779.42,189.8828 C789.26,198.9228 799.96,209.3628 809,219.6328 C830.5,244.0628 851.85,275.1428 864.74,294.8428 " fill="none" id="Company-PortStaff" style="stroke:#FFC5A1;stroke-width:1.0;"/><polygon fill="#000000" points="831.1539,232.6884,827.729,223.8159,823.168,227.5235,831.1539,232.6884" style="stroke:#000000;stroke-width:1.0;"/><text fill="#000000" font-family="sans-serif" font-size="13" lengthAdjust="spacing" textLength="37" x="837" y="234.1279">knows</text><text fill="#000000" font-family="sans-serif" font-size="13" lengthAdjust="spacing" textLength="7" x="778.3087" y="211.1453">1</text><text fill="#000000" font-family="sans-serif" font-size="13" lengthAdjust="spacing" textLength="5" x="855.5888" y="284.4308">*</text><!--MD5=[d610a6b5b1fb5ef87fa30cd6846718af]
link Ship to Messages--><path codeLine="114" d="M540.47,648.8428 C523.56,676.5128 505.21,706.5428 489.34,732.4928 " fill="none" id="Ship-Messages" style="stroke:#FFC5A1;stroke-width:1.0;"/><polygon fill="#000000" points="519.3924,698.0748,526.6172,691.8899,521.602,688.8245,519.3924,698.0748" style="stroke:#000000;stroke-width:1.0;"/><text fill="#000000" font-family="sans-serif" font-size="13" lengthAdjust="spacing" textLength="35" x="531" y="699.1279">sends</text><text fill="#000000" font-family="sans-serif" font-size="13" lengthAdjust="spacing" textLength="7" x="525.6722" y="657.3954">1</text><text fill="#000000" font-family="sans-serif" font-size="13" lengthAdjust="spacing" textLength="5" x="488.5881" y="721.6328">*</text><!--MD5=[6fe5c4e8ba181c282026bb5d7a71de3c]
link Ship to LoadingCargoManifest--><path codeLine="115" d="M649.51,641.5728 C665.04,662.4528 682.73,684.1928 701,702.6328 C718.98,720.7828 740.48,738.3428 760.72,753.4528 " fill="none" id="Ship-LoadingCargoManifest" style="stroke:#FFC5A1;stroke-width:1.0;"/><polygon fill="#000000" points="709.5249,697.3547,705.2327,688.8678,701.0639,693.0116,709.5249,697.3547" style="stroke:#000000;stroke-width:1.0;"/><text fill="#000000" font-family="sans-serif" font-size="13" lengthAdjust="spacing" textLength="21" x="715" y="699.1279">has</text><text fill="#000000" font-family="sans-serif" font-size="13" lengthAdjust="spacing" textLength="7" x="657.6677" y="649.6174">1</text><text fill="#000000" font-family="sans-serif" font-size="13" lengthAdjust="spacing" textLength="7" x="743.0304" y="742.7705">1</text><!--MD5=[aaad8e211f76846ad6437cbdfe2314dc]
link Ship to UnloadingCargoManifest--><path codeLine="116" d="M589.71,655.0028 C590.14,670.9828 591.41,687.3328 594,702.6328 C596.87,719.6028 602.37,737.5528 608.13,753.3628 " fill="none" id="Ship-UnloadingCargoManifest" style="stroke:#FFC5A1;stroke-width:1.0;"/><polygon fill="#000000" points="599.9204,698.7232,601.1441,689.2917,595.3667,690.3736,599.9204,698.7232" style="stroke:#000000;stroke-width:1.0;"/><text fill="#000000" font-family="sans-serif" font-size="13" lengthAdjust="spacing" textLength="21" x="608" y="699.1279">has</text><text fill="#000000" font-family="sans-serif" font-size="13" lengthAdjust="spacing" textLength="7" x="582.0645" y="676.1683">1</text><text fill="#000000" font-family="sans-serif" font-size="13" lengthAdjust="spacing" textLength="7" x="597.6975" y="742.6673">1</text><!--MD5=[525ac7a671a9a663c8ecc36309d09162]
link Company to FleetManager--><path codeLine="117" d="M749,189.8528 C749,219.8328 749,268.2028 749,294.9028 " fill="none" id="Company-FleetManager" style="stroke:#FFC5A1;stroke-width:1.0;"/><polygon fill="#000000" points="754,233.8086,756.9389,224.7635,751.0611,224.7635,754,233.8086" style="stroke:#000000;stroke-width:1.0;"/><text fill="#000000" font-family="sans-serif" font-size="13" lengthAdjust="spacing" textLength="37" x="763" y="234.1279">knows</text><text fill="#000000" font-family="sans-serif" font-size="13" lengthAdjust="spacing" textLength="5" x="743.4531" y="211.1087">*</text><text fill="#000000" font-family="sans-serif" font-size="13" lengthAdjust="spacing" textLength="7" x="740.9719" y="284.157">1</text><!--MD5=[683ea96df93176af8455607a7c1d2a32]
link Company to TrafficManager--><path codeLine="118" d="M706.37,163.6528 C656.06,165.8128 572.28,176.3128 517,219.6328 C492.56,238.7828 479.1,273.4928 472.73,295.1028 " fill="none" id="Company-TrafficManager" style="stroke:#FFC5A1;stroke-width:1.0;"/><polygon fill="#000000" points="517.6423,231.2603,526.9665,229.3865,524.0843,224.2638,517.6423,231.2603" style="stroke:#000000;stroke-width:1.0;"/><text fill="#000000" font-family="sans-serif" font-size="13" lengthAdjust="spacing" textLength="37" x="531" y="234.1279">knows</text><text fill="#000000" font-family="sans-serif" font-size="13" lengthAdjust="spacing" textLength="5" x="693.6133" y="178.7426">*</text><text fill="#000000" font-family="sans-serif" font-size="13" lengthAdjust="spacing" textLength="7" x="466.0913" y="284.4158">1</text><!--MD5=[093ea406c154f63b4aabd83707fdfe6f]
link Company to ShipCaptain--><path codeLine="119" d="M706.38,164.6728 C645.01,167.6228 529.39,178.6828 441,219.6328 C401.61,237.8828 364.39,272.8728 343.46,294.7828 " fill="none" id="Company-ShipCaptain" style="stroke:#FFC5A1;stroke-width:1.0;"/><polygon fill="#000000" points="441.2933,230.496,450.7996,230.21,448.816,224.677,441.2933,230.496" style="stroke:#000000;stroke-width:1.0;"/><text fill="#000000" font-family="sans-serif" font-size="13" lengthAdjust="spacing" textLength="37" x="455" y="234.1279">knows</text><text fill="#000000" font-family="sans-serif" font-size="13" lengthAdjust="spacing" textLength="5" x="693.625" y="161.1879">*</text><text fill="#000000" font-family="sans-serif" font-size="13" lengthAdjust="spacing" textLength="7" x="340.3862" y="284.3539">1</text><!--MD5=[597724f867937c9ee068c131ddd52177]
link Company to ShipChiefEletricalEngeneer--><path codeLine="120" d="M791.56,183.1528 C797.67,185.5528 803.94,187.7928 810,189.6328 C879.24,210.6028 901.13,197.4628 970,219.6328 C1031.55,239.4428 1098.76,273.6228 1138.05,294.9928 " fill="none" id="Company-ShipChiefEletricalEngeneer" style="stroke:#FFC5A1;stroke-width:1.0;"/><polygon fill="#000000" points="1024.7583,230.3445,1017.0532,224.7692,1015.2477,230.3629,1024.7583,230.3445" style="stroke:#000000;stroke-width:1.0;"/><text fill="#000000" font-family="sans-serif" font-size="13" lengthAdjust="spacing" textLength="37" x="1029" y="234.1279">knows</text><text fill="#000000" font-family="sans-serif" font-size="13" lengthAdjust="spacing" textLength="5" x="799.3291" y="205.8209">*</text><text fill="#000000" font-family="sans-serif" font-size="13" lengthAdjust="spacing" textLength="7" x="1120.0491" y="284.2734">1</text><!--MD5=[cb2e89c8bac41424e02dcd803fa5e02e]
link Company to TruckDriver--><path codeLine="121" d="M791.63,181.8828 C797.79,184.5028 804.05,187.1428 810,189.6328 C842.36,203.1728 852.89,201.6328 883,219.6328 C919.6,241.5128 956.79,274.4428 978.61,295.0928 " fill="none" id="Company-TruckDriver" style="stroke:#FFC5A1;stroke-width:1.0;"/><polygon fill="#000000" points="919.2771,231.3982,913.0619,224.1995,910.0176,229.2276,919.2771,231.3982" style="stroke:#000000;stroke-width:1.0;"/><text fill="#000000" font-family="sans-serif" font-size="13" lengthAdjust="spacing" textLength="37" x="924" y="234.1279">knows</text><text fill="#000000" font-family="sans-serif" font-size="13" lengthAdjust="spacing" textLength="5" x="799.3867" y="200.1058">*</text><text fill="#000000" font-family="sans-serif" font-size="13" lengthAdjust="spacing" textLength="7" x="964.8861" y="284.4028">1</text><!--MD5=[6254345fd9dacb1857d22b54f9e53236]
link TruckDriver to Truck--><path codeLine="122" d="M1004.4,335.1928 C1009.47,350.6028 1016.58,372.9028 1022,392.6328 C1036.34,444.8628 1050.22,507.2528 1056.88,538.2128 " fill="none" id="TruckDriver-Truck" style="stroke:#FFC5A1;stroke-width:1.0;"/><polygon fill="#000000" points="1037.2514,417.6495,1037.833,408.1567,1032.1422,409.6278,1037.2514,417.6495" style="stroke:#000000;stroke-width:1.0;"/><text fill="#000000" font-family="sans-serif" font-size="13" lengthAdjust="spacing" textLength="50" x="1045" y="418.1279">operates</text><text fill="#000000" font-family="sans-serif" font-size="13" lengthAdjust="spacing" textLength="5" x="1000.4969" y="356.6292">*</text><text fill="#000000" font-family="sans-serif" font-size="13" lengthAdjust="spacing" textLength="5" x="1050.0181" y="527.7642">*</text><!--MD5=[f065240a342e449619d6d797ab4a538f]
link ShipCaptain to Ship--><path codeLine="123" d="M350.76,335.2228 C385.66,362.4228 450.87,414.4228 503,462.6328 C515.39,474.0928 528.25,486.8028 540.28,499.1028 " fill="none" id="ShipCaptain-Ship" style="stroke:#FFC5A1;stroke-width:1.0;"/><polygon fill="#000000" points="473.7821,416.079,468.8625,407.9397,465.0179,412.3858,473.7821,416.079" style="stroke:#000000;stroke-width:1.0;"/><text fill="#000000" font-family="sans-serif" font-size="13" lengthAdjust="spacing" textLength="50" x="479" y="418.1279">operates</text><text fill="#000000" font-family="sans-serif" font-size="13" lengthAdjust="spacing" textLength="5" x="352.0206" y="356.6677">*</text><text fill="#000000" font-family="sans-serif" font-size="13" lengthAdjust="spacing" textLength="5" x="527.5911" y="487.5341">*</text><!--MD5=[c5ef8141e8a198f4a84e54199c61ab67]
link ShipChiefElectricalEngineer to Ship--><path codeLine="124" d="M177.92,335.2128 C219.33,360.8328 297.16,406.1928 369,432.6328 C426.27,453.7128 449.76,432.7928 503,462.6328 C516.32,470.0928 528.93,480.0928 540.29,490.8028 " fill="none" id="ShipChiefElectricalEngineer-Ship" style="stroke:#FFC5A1;stroke-width:1.0;"/><polygon fill="#000000" points="378.5944,414.7813,371.4426,408.5121,369.1235,413.9132,378.5944,414.7813" style="stroke:#000000;stroke-width:1.0;"/><text fill="#000000" font-family="sans-serif" font-size="13" lengthAdjust="spacing" textLength="34" x="383" y="418.1279">works</text><text fill="#000000" font-family="sans-serif" font-size="13" lengthAdjust="spacing" textLength="5" x="180.6319" y="356.6549">*</text><text fill="#000000" font-family="sans-serif" font-size="13" lengthAdjust="spacing" textLength="5" x="527.6024" y="478.1188">*</text><!--MD5=[468ddd4b70c80a28a8ccd89867b6518f]
link FleetManager to Ship--><path codeLine="125" d="M732.31,335.2928 C719.51,350.3828 701.77,372.2128 688,392.6328 C673.2,414.5828 658.52,439.0428 645.33,462.2628 " fill="none" id="FleetManager-Ship" style="stroke:#FFC5A1;stroke-width:1.0;"/><polygon fill="#000000" points="690.1742,416.9335,697.7107,411.1324,692.8615,407.8105,690.1742,416.9335" style="stroke:#000000;stroke-width:1.0;"/><text fill="#000000" font-family="sans-serif" font-size="13" lengthAdjust="spacing" textLength="37" x="702" y="418.1279">knows</text><text fill="#000000" font-family="sans-serif" font-size="13" lengthAdjust="spacing" textLength="15" x="710.5066" y="356.7574">1..</text><text fill="#000000" font-family="sans-serif" font-size="13" lengthAdjust="spacing" textLength="5" x="643.992" y="451.7731">*</text><!--MD5=[ae950acd48e0def00fc2e9cce236db57]
link FleetManager to Truck--><path codeLine="126" d="M774.24,335.1528 C787.58,344.4828 804.57,355.2728 821,362.6328 C866.86,383.1628 888.09,364.9228 930,392.6328 C930.96,393.2728 1011.57,495.1228 1045.85,538.4728 " fill="none" id="FleetManager-Truck" style="stroke:#FFC5A1;stroke-width:1.0;"/><polygon fill="#000000" points="967.0027,415.8049,961.5229,408.0317,958.0005,412.7373,967.0027,415.8049" style="stroke:#000000;stroke-width:1.0;"/><text fill="#000000" font-family="sans-serif" font-size="13" lengthAdjust="spacing" textLength="37" x="972" y="418.1279">knows</text><text fill="#000000" font-family="sans-serif" font-size="13" lengthAdjust="spacing" textLength="15" x="764.2294" y="356.578">1..</text><text fill="#000000" font-family="sans-serif" font-size="13" lengthAdjust="spacing" textLength="5" x="1035.6653" y="527.7476">*</text><!--MD5=[4518205d9aead393619c8be86683750a]
link PortStaff to Port--><path codeLine="127" d="M855.48,335.1428 C845.08,343.9428 832.23,354.2728 820,362.6328 C797.66,377.9128 782.74,370.6128 767,392.6328 C745.47,422.7428 737.67,463.5828 735.28,497.1028 " fill="none" id="PortStaff-Port" style="stroke:#FFC5A1;stroke-width:1.0;"/><polygon fill="#000000" points="769.0202,416.8237,776.7707,411.3118,772.0507,407.8089,769.0202,416.8237" style="stroke:#000000;stroke-width:1.0;"/><text fill="#000000" font-family="sans-serif" font-size="13" lengthAdjust="spacing" textLength="34" x="781" y="418.1279">works</text><text fill="#000000" font-family="sans-serif" font-size="13" lengthAdjust="spacing" textLength="5" x="843.7244" y="356.5652">*</text><text fill="#000000" font-family="sans-serif" font-size="13" lengthAdjust="spacing" textLength="7" x="727.7657" y="486.1444">1</text><!--MD5=[8119704b18fddfeda28e5fa90ac45f06]
link PortStaff to Cargo--><path codeLine="128" d="M861.49,335.2128 C850.58,349.9128 836.93,371.2828 831,392.6328 C816.83,443.7028 824.71,507.1328 830.17,538.3828 " fill="none" id="PortStaff-Cargo" style="stroke:#FFC5A1;stroke-width:1.0;"/><polygon fill="#000000" points="835.2382,417.7502,839.5209,409.2585,833.7117,408.363,835.2382,417.7502" style="stroke:#000000;stroke-width:1.0;"/><text fill="#000000" font-family="sans-serif" font-size="13" lengthAdjust="spacing" textLength="80" x="845" y="418.1279">loads/unloads</text><text fill="#000000" font-family="sans-serif" font-size="13" lengthAdjust="spacing" textLength="5" x="851.4247" y="356.6549">*</text><text fill="#000000" font-family="sans-serif" font-size="13" lengthAdjust="spacing" textLength="7" x="821.0168" y="527.6311">1</text><!--MD5=[af331b6b53f796d85577a64092f254d7]
link Cargo to LoadingCargoManifest--><path codeLine="129" d="M833.68,578.9028 C833.05,616.4728 831.66,700.4228 830.78,753.4328 " fill="none" id="Cargo-LoadingCargoManifest" style="stroke:#FFC5A1;stroke-width:1.0;"/><polygon fill="#000000" points="835.9169,698.8079,839.0057,689.8129,833.1287,689.7152,835.9169,698.8079" style="stroke:#000000;stroke-width:1.0;"/><text fill="#000000" font-family="sans-serif" font-size="13" lengthAdjust="spacing" textLength="21" x="845" y="699.1279">has</text><text fill="#000000" font-family="sans-serif" font-size="13" lengthAdjust="spacing" textLength="7" x="825.6534" y="600.0427">1</text><text fill="#000000" font-family="sans-serif" font-size="13" lengthAdjust="spacing" textLength="7" x="823.3805" y="742.7476">1</text><!--MD5=[ecebe066bb126ea765c66538fc453fd5]
link Cargo to UnloadingCargoManifest--><path codeLine="130" d="M826.14,578.9428 C817.48,598.9728 802.33,630.6428 784,654.6328 C756.01,691.2728 718.35,726.6928 687.04,753.4028 " fill="none" id="Cargo-UnloadingCargoManifest" style="stroke:#FFC5A1;stroke-width:1.0;"/><polygon fill="#000000" points="758.8829,697.718,766.8197,692.478,762.2238,688.8136,758.8829,697.718" style="stroke:#000000;stroke-width:1.0;"/><text fill="#000000" font-family="sans-serif" font-size="13" lengthAdjust="spacing" textLength="21" x="771" y="699.1279">has</text><text fill="#000000" font-family="sans-serif" font-size="13" lengthAdjust="spacing" textLength="7" x="816.087" y="600.0935">1</text><text fill="#000000" font-family="sans-serif" font-size="13" lengthAdjust="spacing" textLength="7" x="688.1974" y="742.7132">1</text><!--MD5=[d42627f25d5f998f16ff5389ef5934e0]
link Client to Messages--><path codeLine="131" d="M59.28,432.8028 C120.45,490.6028 304.5,664.5328 395.66,750.6728 " fill="none" id="Client-Messages" style="stroke:#FFC5A1;stroke-width:1.0;"/><polygon fill="#000000" points="295.6341,562.2427,291.0785,553.8942,287.0414,558.1664,295.6341,562.2427" style="stroke:#000000;stroke-width:1.0;"/><text fill="#000000" font-family="sans-serif" font-size="13" lengthAdjust="spacing" textLength="47" x="301" y="564.1279">receives</text><text fill="#000000" font-family="sans-serif" font-size="13" lengthAdjust="spacing" textLength="7" x="56.9994" y="454.2702">1</text><text fill="#000000" font-family="sans-serif" font-size="13" lengthAdjust="spacing" textLength="5" x="382.9481" y="739.9821">*</text><!--MD5=[6d5dd08da3e475f33945cfb0fe057df9]
link Container to Ship--><path codeLine="132" d="M1298.82,352.9028 C1293.37,356.5328 1287.7,359.8828 1282,362.6328 C1231.31,387.0728 1210.05,368.9728 1159,392.6328 C1131.58,405.3428 1132.39,422.2528 1104,432.6328 C930.32,496.1228 856.98,385.3028 689,462.6328 C674.77,469.1828 661.51,478.8828 649.7,489.6128 " fill="none" id="Container-Ship" style="stroke:#FFC5A1;stroke-width:1.0;"/><polygon fill="#000000" points="1159.1073,413.839,1168.5639,414.8508,1167.3526,409.0991,1159.1073,413.839" style="stroke:#000000;stroke-width:1.0;"/><text fill="#000000" font-family="sans-serif" font-size="13" lengthAdjust="spacing" textLength="83" x="1173" y="418.1279">transported by</text><text fill="#000000" font-family="sans-serif" font-size="13" lengthAdjust="spacing" textLength="5" x="1285.9688" y="355.5872">*</text><text fill="#000000" font-family="sans-serif" font-size="13" lengthAdjust="spacing" textLength="7" x="657.5206" y="476.7689">1</text><!--MD5=[1753b429a3eeefbafc6a787aac0fb609]
link Container to Truck--><path codeLine="133" d="M1321.35,356.2728 C1307.62,380.3428 1287.93,410.4828 1265,432.6328 C1212.13,483.7228 1134.85,523.9228 1092.19,543.8628 " fill="none" id="Container-Truck" style="stroke:#FFC5A1;stroke-width:1.0;"/><polygon fill="#000000" points="1297.131,415.9757,1305.9917,412.5205,1302.2685,407.9722,1297.131,415.9757" style="stroke:#000000;stroke-width:1.0;"/><text fill="#000000" font-family="sans-serif" font-size="13" lengthAdjust="spacing" textLength="83" x="1310" y="418.1279">transported by</text><text fill="#000000" font-family="sans-serif" font-size="13" lengthAdjust="spacing" textLength="7" x="1310.803" y="377.0473">1</text><text fill="#000000" font-family="sans-serif" font-size="13" lengthAdjust="spacing" textLength="7" x="1100.2121" y="536.133">1</text><!--MD5=[2dace71e9d16b4c49169769a46248ae2]
link Container to WareHouses--><path codeLine="134" d="M1379.87,356.3528 C1402.04,379.3328 1430.92,408.3228 1458,432.6328 C1491.19,462.4228 1530.36,493.8028 1561.15,517.6728 " fill="none" id="Container-WareHouses" style="stroke:#FFC5A1;stroke-width:1.0;"/><polygon fill="#000000" points="1466.7352,416.1325,1461.9319,407.924,1458.0244,412.315,1466.7352,416.1325" style="stroke:#000000;stroke-width:1.0;"/><text fill="#000000" font-family="sans-serif" font-size="13" lengthAdjust="spacing" textLength="50" x="1472" y="418.1279">stored in</text><text fill="#000000" font-family="sans-serif" font-size="13" lengthAdjust="spacing" textLength="5" x="1380.065" y="377.1391">*</text><text fill="#000000" font-family="sans-serif" font-size="13" lengthAdjust="spacing" textLength="7" x="1546.578" y="508.6115">1</text><!--MD5=[c1747a54b578eb86676f7996ff3a9c61]
link ContainerRefrigerated to WareHouses--><path codeLine="135" d="M1758.94,362.8428 C1759.8,384.9328 1757.91,411.1228 1748,432.6328 C1730.64,470.3428 1696.15,502.0928 1666.52,524.1528 " fill="none" id="ContainerRefrigerated-WareHouses" style="stroke:#FFC5A1;stroke-width:1.0;"/><polygon fill="#000000" points="1760.5144,417.147,1767.561,410.7598,1762.4609,407.8377,1760.5144,417.147" style="stroke:#000000;stroke-width:1.0;"/><text fill="#000000" font-family="sans-serif" font-size="13" lengthAdjust="spacing" textLength="50" x="1772" y="418.1279">stored in</text><text fill="#000000" font-family="sans-serif" font-size="13" lengthAdjust="spacing" textLength="5" x="1754.4453" y="384.5209">*</text><text fill="#000000" font-family="sans-serif" font-size="13" lengthAdjust="spacing" textLength="7" x="1674.3978" y="515.6978">1</text><!--MD5=[c1747a54b578eb86676f7996ff3a9c61]
link ContainerRefrigerated to WareHouses--><path codeLine="136" d="M1699.12,362.6328 C1690.28,371.9528 1681.8,382.1228 1675,392.6328 C1654.33,424.5528 1639.34,464.4428 1629.39,497.0128 " fill="none" id="ContainerRefrigerated-WareHouses-1" style="stroke:#FFC5A1;stroke-width:1.0;"/><polygon fill="#000000" points="1677.6971,417.2467,1684.4717,410.5717,1679.2545,407.8645,1677.6971,417.2467" style="stroke:#000000;stroke-width:1.0;"/><text fill="#000000" font-family="sans-serif" font-size="13" lengthAdjust="spacing" textLength="50" x="1689" y="418.1279">stored in</text><text fill="#000000" font-family="sans-serif" font-size="13" lengthAdjust="spacing" textLength="5" x="1685.4868" y="384.627">*</text><text fill="#000000" font-family="sans-serif" font-size="13" lengthAdjust="spacing" textLength="7" x="1623.7648" y="486.4775">1</text><!--MD5=[cc4a75af8b50228d9d81209a28029ce8]
link WarehouseStaff to WareHouses--><path codeLine="137" d="M1517.33,335.1728 C1521.79,358.6428 1530.71,399.4828 1544,432.6328 C1552.7,454.3328 1564.45,476.9528 1575.83,496.8828 " fill="none" id="WarehouseStaff-WareHouses" style="stroke:#FFC5A1;stroke-width:1.0;"/><polygon fill="#000000" points="1550.7009,417.5104,1550.3876,408.005,1544.8603,410.0045,1550.7009,417.5104" style="stroke:#000000;stroke-width:1.0;"/><text fill="#000000" font-family="sans-serif" font-size="13" lengthAdjust="spacing" textLength="80" x="1558" y="418.1279">loads/unloads</text><text fill="#000000" font-family="sans-serif" font-size="13" lengthAdjust="spacing" textLength="5" x="1512.5634" y="356.6036">*</text><text fill="#000000" font-family="sans-serif" font-size="13" lengthAdjust="spacing" textLength="7" x="1564.0119" y="486.3325">1</text><!--MD5=[c38e1860615b76d53920ea5e4b56a70f]
@startuml
'https://plantuml.com/use-case-diagram
hide methods
' ======= layout =========
skinparam backgroundColor #fcf9ea
skinparam titleBorderRoundCorner 15
skinparam titleFontSize 30
skinparam classAttributeIconSize 0
skinparam titleFontName Arial Black
skinparam titleFontColor #f8a978
skinparam roundcorner 20
skinparam stereotypeCBackgroundColor ffc5a1
skinparam class {

ArrowColor ffc5a1
BorderColor White
BackgroundColor badfdb
}


' ======= title =========
center header


<font color=Black size=15><b>Built by JAVArdice ©</font>
endheader
title <b>DOMAIN MODEL\n

class Messages{
-Latitude
-longitude
-SOG
-COG
-Heading
-Position
-Transceiver Class
}
class Ship {
-IMO
-MMSI
-Call Sign
-Name
-vessel Type
-Lenght
-Width
-Number generators
-Generators power
-Capacity
-Draft

}
class Container {
-payload
-tare
-gross


}
class ContainerRefrigerated {
-payload
-tare
-gross
-temperature

}
class LoadingCargoManifest{
-containerId
-coordinates
-gross
-type
}
class UnloadingCargoManifest{
-containerId
-coordinates
-gross
-type
}
class Port{
-id
-Name
-continent
-country
-latitude
-longitude
}

class WareHouses{
-id
-Name
-continent
-country
-latitude
-longitude
}
class Company{
-designation
}
class Truck
  class Client
  class Cargo
 class FleetManager
class TrafficManager
class WarehouseStaff
class PortStaff
class WarehouseManager
class PortManager
class ShipCaptain
class ShipChiefElectricalEngineer
class TruckDriver
Company "1" - - "*" Ship: operates >
Company "1" - - "*" WarehouseStaff: knows >
Company "1" - - "*" Client: knows >
Company "1" - - "*" PortStaff: knows >

Ship "1" - - "*" Messages: sends >
Ship "1" - - "1" LoadingCargoManifest: has >
Ship "1" - - "1" UnloadingCargoManifest: has >
Company "*" - - "1" FleetManager: knows >
Company "*" - - "1" TrafficManager: knows >
Company "*" - - "1" ShipCaptain: knows >
Company "*" - - "1" ShipChiefEletricalEngeneer: knows >
Company "*" - - "1" TruckDriver: knows >
TruckDriver "*" - - "*" Truck: operates >
ShipCaptain "*" - - "*" Ship: operates >
ShipChiefElectricalEngineer "*" - - "*" Ship: works >
FleetManager "1.." - - "*" Ship: knows >
FleetManager "1.." - - "*" Truck: knows >
PortStaff "*" - - "1" Port: works >
PortStaff "*" - - "1" Cargo: loads/unloads >
Cargo "1" - - "1" LoadingCargoManifest: has >
Cargo "1" - - "1" UnloadingCargoManifest: has >
Client "1" - - "*" Messages: receives >
Container "*" - - "1" Ship: transported by >
Container "1" - - "1" Truck: transported by >
Container "*" - - "1" WareHouses: stored in >
ContainerRefrigerated "*" - - "1" WareHouses: stored in >
ContainerRefrigerated "*" - - "1" WareHouses: stored in >
WarehouseStaff "*" - - "1" WareHouses: loads/unloads >




@enduml

@startuml
hide methods
skinparam backgroundColor #fcf9ea
skinparam titleBorderRoundCorner 15
skinparam titleFontSize 30
skinparam classAttributeIconSize 0
skinparam titleFontName Arial Black
skinparam titleFontColor #f8a978
skinparam roundcorner 20
skinparam stereotypeCBackgroundColor ffc5a1
skinparam class {

ArrowColor ffc5a1
BorderColor White
BackgroundColor badfdb
}


center header


<font color=Black size=15><b>Built by JAVArdice ©</font>
endheader
title <b>DOMAIN MODEL\n

class Messages{
-Latitude
-longitude
-SOG
-COG
-Heading
-Position
-Transceiver Class
}
class Ship {
-IMO
-MMSI
-Call Sign
-Name
-vessel Type
-Lenght
-Width
-Number generators
-Generators power
-Capacity
-Draft

}
class Container {
-payload
-tare
-gross


}
class ContainerRefrigerated {
-payload
-tare
-gross
-temperature

}
class LoadingCargoManifest{
-containerId
-coordinates
-gross
-type
}
class UnloadingCargoManifest{
-containerId
-coordinates
-gross
-type
}
class Port{
-id
-Name
-continent
-country
-latitude
-longitude
}

class WareHouses{
-id
-Name
-continent
-country
-latitude
-longitude
}
class Company{
-designation
}
class Truck
  class Client
  class Cargo
 class FleetManager
class TrafficManager
class WarehouseStaff
class PortStaff
class WarehouseManager
class PortManager
class ShipCaptain
class ShipChiefElectricalEngineer
class TruckDriver
Company "1" - - "*" Ship: operates >
Company "1" - - "*" WarehouseStaff: knows >
Company "1" - - "*" Client: knows >
Company "1" - - "*" PortStaff: knows >

Ship "1" - - "*" Messages: sends >
Ship "1" - - "1" LoadingCargoManifest: has >
Ship "1" - - "1" UnloadingCargoManifest: has >
Company "*" - - "1" FleetManager: knows >
Company "*" - - "1" TrafficManager: knows >
Company "*" - - "1" ShipCaptain: knows >
Company "*" - - "1" ShipChiefEletricalEngeneer: knows >
Company "*" - - "1" TruckDriver: knows >
TruckDriver "*" - - "*" Truck: operates >
ShipCaptain "*" - - "*" Ship: operates >
ShipChiefElectricalEngineer "*" - - "*" Ship: works >
FleetManager "1.." - - "*" Ship: knows >
FleetManager "1.." - - "*" Truck: knows >
PortStaff "*" - - "1" Port: works >
PortStaff "*" - - "1" Cargo: loads/unloads >
Cargo "1" - - "1" LoadingCargoManifest: has >
Cargo "1" - - "1" UnloadingCargoManifest: has >
Client "1" - - "*" Messages: receives >
Container "*" - - "1" Ship: transported by >
Container "1" - - "1" Truck: transported by >
Container "*" - - "1" WareHouses: stored in >
ContainerRefrigerated "*" - - "1" WareHouses: stored in >
ContainerRefrigerated "*" - - "1" WareHouses: stored in >
WarehouseStaff "*" - - "1" WareHouses: loads/unloads >




@enduml

PlantUML version 1.2021.11(Sat Oct 02 14:26:11 BST 2021)
(GPL source distribution)
Java Runtime: OpenJDK Runtime Environment
JVM: OpenJDK 64-Bit Server VM
Default Encoding: Cp1252
Language: pt
Country: PT
--></g></svg>