<?xml version="1.0" encoding="UTF-8" standalone="no"?><svg xmlns="http://www.w3.org/2000/svg" xmlns:xlink="http://www.w3.org/1999/xlink" contentScriptType="application/ecmascript" contentStyleType="text/css" height="634px" preserveAspectRatio="none" style="width:342px;height:634px;background:#FFFFFF;" version="1.1" viewBox="0 0 342 634" width="342px" zoomAndPan="magnify"><defs><filter height="300%" id="flvkf3ijodwec" width="300%" x="-1" y="-1"><feGaussianBlur result="blurOut" stdDeviation="2.0"/><feColorMatrix in="blurOut" result="blurOut2" type="matrix" values="0 0 0 0 0 0 0 0 0 0 0 0 0 0 0 0 0 0 .4 0"/><feOffset dx="4.0" dy="4.0" in="blurOut2" result="blurOut3"/><feBlend in="SourceGraphic" in2="blurOut3" mode="normal"/></filter></defs><g><text fill="#000000" font-family="sans-serif" font-size="18" font-weight="bold" lengthAdjust="spacing" textLength="152" x="88.75" y="18.6855">CLASS DIAGRAM</text><text fill="#000000" font-family="sans-serif" font-size="18" lengthAdjust="spacing" textLength="0" x="167.25" y="41.3262"/><!--MD5=[a5060deb6d59cc61592f8ab03ae49efc]
class PositionController--><rect codeLine="4" fill="#FEFECE" filter="url(#flvkf3ijodwec)" height="131.0156" id="PositionController" style="stroke:#A80036;stroke-width:1.5;" width="248" x="32" y="52.2813"/><ellipse cx="102.25" cy="68.2813" fill="#ADD1B2" rx="11" ry="11" style="stroke:#A80036;stroke-width:1.0;"/><path d="M104.25,64.7813 Q104.4531,64.2813 104.6875,64.0313 Q104.9219,63.7813 105.1875,63.7813 Q105.6563,63.7813 105.9531,64.0625 Q106.25,64.3438 106.25,65 L106.25,66.5625 Q106.25,67.2188 105.9688,67.5 Q105.6875,67.7813 105.25,67.7813 Q104.8594,67.7813 104.6094,67.6094 Q104.3594,67.4375 104.25,66.9844 Q104.2031,66.6719 104.0313,66.5 Q103.7188,66.1719 103.1563,65.9844 Q102.5938,65.7813 102.0313,65.7813 Q101.3281,65.7813 100.7344,66.0625 Q100.1563,66.3438 99.7031,66.9688 Q99.25,67.5938 99.25,68.4531 L99.25,69.375 Q99.25,70.4063 100.0938,71.0938 Q100.9375,71.7813 102.4375,71.7813 Q103.3281,71.7813 103.9531,71.5781 Q104.3125,71.4688 104.7188,71.1094 Q104.9844,70.9063 105.125,70.8438 Q105.2656,70.7813 105.4375,70.7813 Q105.7656,70.7813 106,71.0469 Q106.25,71.2969 106.25,71.6563 Q106.25,72 105.9063,72.4063 Q105.4063,73 104.6094,73.3281 Q103.5625,73.7813 102.2813,73.7813 Q100.7813,73.7813 99.5781,73.1875 Q98.6094,72.7188 97.9219,71.7031 Q97.25,70.6875 97.25,69.4844 L97.25,68.3906 Q97.25,67.1406 97.8438,66.0469 Q98.4531,64.9531 99.5,64.375 Q100.5625,63.7813 101.75,63.7813 Q102.4688,63.7813 103.0938,64.0313 Q103.7188,64.2813 104.25,64.7813 Z " fill="#000000"/><text fill="#000000" font-family="sans-serif" font-size="12" lengthAdjust="spacing" textLength="99" x="122.75" y="73.1914">PositionController</text><line style="stroke:#A80036;stroke-width:1.5;" x1="33" x2="279" y1="84.2813" y2="84.2813"/><line style="stroke:#A80036;stroke-width:1.5;" x1="33" x2="279" y1="92.2813" y2="92.2813"/><ellipse cx="43" cy="103.2813" fill="#84BE84" rx="3" ry="3" style="stroke:#038048;stroke-width:1.0;"/><text fill="#000000" font-family="sans-serif" font-size="11" lengthAdjust="spacing" textLength="145" x="52" y="107.7002">DatePosition(Date, Hour, Ship)</text><ellipse cx="43" cy="117.1172" fill="#84BE84" rx="3" ry="3" style="stroke:#038048;stroke-width:1.0;"/><text fill="#000000" font-family="sans-serif" font-size="11" lengthAdjust="spacing" textLength="222" x="52" y="121.5361">PeriodPosition(Date, Hour, Date1, Hour1, Ship)</text><ellipse cx="43" cy="130.9531" fill="#84BE84" rx="3" ry="3" style="stroke:#038048;stroke-width:1.0;"/><text fill="#000000" font-family="sans-serif" font-size="11" lengthAdjust="spacing" textLength="73" x="52" y="135.3721">dateTime(Date)</text><ellipse cx="43" cy="144.7891" fill="#84BE84" rx="3" ry="3" style="stroke:#038048;stroke-width:1.0;"/><text fill="#000000" font-family="sans-serif" font-size="11" lengthAdjust="spacing" textLength="81" x="52" y="149.208">checkDate(Date)</text><ellipse cx="43" cy="158.625" fill="#84BE84" rx="3" ry="3" style="stroke:#038048;stroke-width:1.0;"/><text fill="#000000" font-family="sans-serif" font-size="11" lengthAdjust="spacing" textLength="83" x="52" y="163.0439">checkHour(Hour)</text><ellipse cx="43" cy="172.4609" fill="#84BE84" rx="3" ry="3" style="stroke:#038048;stroke-width:1.0;"/><text fill="#000000" font-family="sans-serif" font-size="11" lengthAdjust="spacing" textLength="123" x="52" y="176.8799">checkPeriod(Date, Date1)</text><!--MD5=[02e4b9b7573f1156f41e60aa5b4e25a4]
class Company--><rect codeLine="13" fill="#FEFECE" filter="url(#flvkf3ijodwec)" height="61.8359" id="Company" style="stroke:#A80036;stroke-width:1.5;" width="96" x="7" y="284.7813"/><ellipse cx="26.95" cy="300.7813" fill="#ADD1B2" rx="11" ry="11" style="stroke:#A80036;stroke-width:1.0;"/><path d="M28.95,297.2813 Q29.1531,296.7813 29.3875,296.5313 Q29.6219,296.2813 29.8875,296.2813 Q30.3563,296.2813 30.6531,296.5625 Q30.95,296.8438 30.95,297.5 L30.95,299.0625 Q30.95,299.7188 30.6688,300 Q30.3875,300.2813 29.95,300.2813 Q29.5594,300.2813 29.3094,300.1094 Q29.0594,299.9375 28.95,299.4844 Q28.9031,299.1719 28.7313,299 Q28.4188,298.6719 27.8563,298.4844 Q27.2938,298.2813 26.7313,298.2813 Q26.0281,298.2813 25.4344,298.5625 Q24.8563,298.8438 24.4031,299.4688 Q23.95,300.0938 23.95,300.9531 L23.95,301.875 Q23.95,302.9063 24.7938,303.5938 Q25.6375,304.2813 27.1375,304.2813 Q28.0281,304.2813 28.6531,304.0781 Q29.0125,303.9688 29.4188,303.6094 Q29.6844,303.4063 29.825,303.3438 Q29.9656,303.2813 30.1375,303.2813 Q30.4656,303.2813 30.7,303.5469 Q30.95,303.7969 30.95,304.1563 Q30.95,304.5 30.6063,304.9063 Q30.1063,305.5 29.3094,305.8281 Q28.2625,306.2813 26.9813,306.2813 Q25.4813,306.2813 24.2781,305.6875 Q23.3094,305.2188 22.6219,304.2031 Q21.95,303.1875 21.95,301.9844 L21.95,300.8906 Q21.95,299.6406 22.5438,298.5469 Q23.1531,297.4531 24.2,296.875 Q25.2625,296.2813 26.45,296.2813 Q27.1688,296.2813 27.7938,296.5313 Q28.4188,296.7813 28.95,297.2813 Z " fill="#000000"/><text fill="#000000" font-family="sans-serif" font-size="12" lengthAdjust="spacing" textLength="53" x="42.05" y="305.6914">Company</text><line style="stroke:#A80036;stroke-width:1.5;" x1="8" x2="102" y1="316.7813" y2="316.7813"/><line style="stroke:#A80036;stroke-width:1.5;" x1="8" x2="102" y1="324.7813" y2="324.7813"/><ellipse cx="18" cy="335.7813" fill="#84BE84" rx="3" ry="3" style="stroke:#038048;stroke-width:1.0;"/><text fill="#000000" font-family="sans-serif" font-size="11" lengthAdjust="spacing" textLength="70" x="27" y="340.2002">getShipStore()</text><!--MD5=[ea2206eefe09474e90beb17e18e6b3d8]
class ShipStore--><rect codeLine="17" fill="#FEFECE" filter="url(#flvkf3ijodwec)" height="172.5234" id="ShipStore" style="stroke:#A80036;stroke-width:1.5;" width="150" x="30" y="448.2813"/><ellipse cx="73.8" cy="464.2813" fill="#ADD1B2" rx="11" ry="11" style="stroke:#A80036;stroke-width:1.0;"/><path d="M75.8,460.7813 Q76.0031,460.2813 76.2375,460.0313 Q76.4719,459.7813 76.7375,459.7813 Q77.2063,459.7813 77.5031,460.0625 Q77.8,460.3438 77.8,461 L77.8,462.5625 Q77.8,463.2188 77.5188,463.5 Q77.2375,463.7813 76.8,463.7813 Q76.4094,463.7813 76.1594,463.6094 Q75.9094,463.4375 75.8,462.9844 Q75.7531,462.6719 75.5813,462.5 Q75.2688,462.1719 74.7063,461.9844 Q74.1438,461.7813 73.5813,461.7813 Q72.8781,461.7813 72.2844,462.0625 Q71.7063,462.3438 71.2531,462.9688 Q70.8,463.5938 70.8,464.4531 L70.8,465.375 Q70.8,466.4063 71.6438,467.0938 Q72.4875,467.7813 73.9875,467.7813 Q74.8781,467.7813 75.5031,467.5781 Q75.8625,467.4688 76.2688,467.1094 Q76.5344,466.9063 76.675,466.8438 Q76.8156,466.7813 76.9875,466.7813 Q77.3156,466.7813 77.55,467.0469 Q77.8,467.2969 77.8,467.6563 Q77.8,468 77.4563,468.4063 Q76.9563,469 76.1594,469.3281 Q75.1125,469.7813 73.8313,469.7813 Q72.3313,469.7813 71.1281,469.1875 Q70.1594,468.7188 69.4719,467.7031 Q68.8,466.6875 68.8,465.4844 L68.8,464.3906 Q68.8,463.1406 69.3938,462.0469 Q70.0031,460.9531 71.05,460.375 Q72.1125,459.7813 73.3,459.7813 Q74.0188,459.7813 74.6438,460.0313 Q75.2688,460.2813 75.8,460.7813 Z " fill="#000000"/><text fill="#000000" font-family="sans-serif" font-size="12" lengthAdjust="spacing" textLength="54" x="94.2" y="469.1914">ShipStore</text><line style="stroke:#A80036;stroke-width:1.5;" x1="31" x2="179" y1="480.2813" y2="480.2813"/><line style="stroke:#A80036;stroke-width:1.5;" x1="31" x2="179" y1="488.2813" y2="488.2813"/><ellipse cx="41" cy="499.2813" fill="#84BE84" rx="3" ry="3" style="stroke:#038048;stroke-width:1.0;"/><text fill="#000000" font-family="sans-serif" font-size="11" lengthAdjust="spacing" textLength="55" x="50" y="503.7002">ShipStore()</text><ellipse cx="41" cy="513.1172" fill="#84BE84" rx="3" ry="3" style="stroke:#038048;stroke-width:1.0;"/><text fill="#000000" font-family="sans-serif" font-size="11" lengthAdjust="spacing" textLength="39" x="50" y="517.5361">getBst()</text><ellipse cx="41" cy="526.9531" fill="#84BE84" rx="3" ry="3" style="stroke:#038048;stroke-width:1.0;"/><text fill="#000000" font-family="sans-serif" font-size="11" lengthAdjust="spacing" textLength="61" x="50" y="531.3721">getShipList()</text><ellipse cx="41" cy="540.7891" fill="#84BE84" rx="3" ry="3" style="stroke:#038048;stroke-width:1.0;"/><text fill="#000000" font-family="sans-serif" font-size="11" lengthAdjust="spacing" textLength="67" x="50" y="545.208">addShip(ship)</text><ellipse cx="41" cy="554.625" fill="#84BE84" rx="3" ry="3" style="stroke:#038048;stroke-width:1.0;"/><text fill="#000000" font-family="sans-serif" font-size="11" lengthAdjust="spacing" textLength="99" x="50" y="559.0439">containsMMSI(MMSI)</text><ellipse cx="41" cy="568.4609" fill="#84BE84" rx="3" ry="3" style="stroke:#038048;stroke-width:1.0;"/><text fill="#000000" font-family="sans-serif" font-size="11" lengthAdjust="spacing" textLength="85" x="50" y="572.8799">containsIMO(IMO)</text><ellipse cx="41" cy="582.2969" fill="#84BE84" rx="3" ry="3" style="stroke:#038048;stroke-width:1.0;"/><text fill="#000000" font-family="sans-serif" font-size="11" lengthAdjust="spacing" textLength="124" x="50" y="586.7158">containsCallSign(callSign)</text><ellipse cx="41" cy="596.1328" fill="#84BE84" rx="3" ry="3" style="stroke:#038048;stroke-width:1.0;"/><text fill="#000000" font-family="sans-serif" font-size="11" lengthAdjust="spacing" textLength="68" x="50" y="600.5518">getShip(code)</text><ellipse cx="41" cy="609.9688" fill="#84BE84" rx="3" ry="3" style="stroke:#038048;stroke-width:1.0;"/><text fill="#000000" font-family="sans-serif" font-size="11" lengthAdjust="spacing" textLength="97" x="50" y="614.3877">shipSummary(code)</text><!--MD5=[bea5b0d46523efab5ea1c1d339f396f0]
class Message--><rect codeLine="29" fill="#FEFECE" filter="url(#flvkf3ijodwec)" height="144.8516" id="Message" style="stroke:#A80036;stroke-width:1.5;" width="119" x="209.5" y="243.2813"/><ellipse cx="240.7" cy="259.2813" fill="#ADD1B2" rx="11" ry="11" style="stroke:#A80036;stroke-width:1.0;"/><path d="M242.7,255.7813 Q242.9031,255.2813 243.1375,255.0313 Q243.3719,254.7813 243.6375,254.7813 Q244.1063,254.7813 244.4031,255.0625 Q244.7,255.3438 244.7,256 L244.7,257.5625 Q244.7,258.2188 244.4188,258.5 Q244.1375,258.7813 243.7,258.7813 Q243.3094,258.7813 243.0594,258.6094 Q242.8094,258.4375 242.7,257.9844 Q242.6531,257.6719 242.4813,257.5 Q242.1688,257.1719 241.6063,256.9844 Q241.0438,256.7813 240.4813,256.7813 Q239.7781,256.7813 239.1844,257.0625 Q238.6063,257.3438 238.1531,257.9688 Q237.7,258.5938 237.7,259.4531 L237.7,260.375 Q237.7,261.4063 238.5438,262.0938 Q239.3875,262.7813 240.8875,262.7813 Q241.7781,262.7813 242.4031,262.5781 Q242.7625,262.4688 243.1688,262.1094 Q243.4344,261.9063 243.575,261.8438 Q243.7156,261.7813 243.8875,261.7813 Q244.2156,261.7813 244.45,262.0469 Q244.7,262.2969 244.7,262.6563 Q244.7,263 244.3563,263.4063 Q243.8563,264 243.0594,264.3281 Q242.0125,264.7813 240.7313,264.7813 Q239.2313,264.7813 238.0281,264.1875 Q237.0594,263.7188 236.3719,262.7031 Q235.7,261.6875 235.7,260.4844 L235.7,259.3906 Q235.7,258.1406 236.2938,257.0469 Q236.9031,255.9531 237.95,255.375 Q239.0125,254.7813 240.2,254.7813 Q240.9188,254.7813 241.5438,255.0313 Q242.1688,255.2813 242.7,255.7813 Z " fill="#000000"/><text fill="#000000" font-family="sans-serif" font-size="12" lengthAdjust="spacing" textLength="51" x="258.3" y="264.1914">Message</text><line style="stroke:#A80036;stroke-width:1.5;" x1="210.5" x2="327.5" y1="275.2813" y2="275.2813"/><line style="stroke:#A80036;stroke-width:1.5;" x1="210.5" x2="327.5" y1="283.2813" y2="283.2813"/><ellipse cx="220.5" cy="294.2813" fill="#84BE84" rx="3" ry="3" style="stroke:#038048;stroke-width:1.0;"/><text fill="#000000" font-family="sans-serif" font-size="11" lengthAdjust="spacing" textLength="93" x="229.5" y="298.7002">getLocalDateTime()</text><ellipse cx="220.5" cy="308.1172" fill="#84BE84" rx="3" ry="3" style="stroke:#038048;stroke-width:1.0;"/><text fill="#000000" font-family="sans-serif" font-size="11" lengthAdjust="spacing" textLength="42" x="229.5" y="312.5361">getCog()</text><ellipse cx="220.5" cy="321.9531" fill="#84BE84" rx="3" ry="3" style="stroke:#038048;stroke-width:1.0;"/><text fill="#000000" font-family="sans-serif" font-size="11" lengthAdjust="spacing" textLength="62" x="229.5" y="326.3721">getHeading()</text><ellipse cx="220.5" cy="335.7891" fill="#84BE84" rx="3" ry="3" style="stroke:#038048;stroke-width:1.0;"/><text fill="#000000" font-family="sans-serif" font-size="11" lengthAdjust="spacing" textLength="61" x="229.5" y="340.208">getLatitude()</text><ellipse cx="220.5" cy="349.625" fill="#84BE84" rx="3" ry="3" style="stroke:#038048;stroke-width:1.0;"/><text fill="#000000" font-family="sans-serif" font-size="11" lengthAdjust="spacing" textLength="70" x="229.5" y="354.0439">getLongitude()</text><ellipse cx="220.5" cy="363.4609" fill="#84BE84" rx="3" ry="3" style="stroke:#038048;stroke-width:1.0;"/><text fill="#000000" font-family="sans-serif" font-size="11" lengthAdjust="spacing" textLength="42" x="229.5" y="367.8799">getSog()</text><ellipse cx="220.5" cy="377.2969" fill="#84BE84" rx="3" ry="3" style="stroke:#038048;stroke-width:1.0;"/><text fill="#000000" font-family="sans-serif" font-size="11" lengthAdjust="spacing" textLength="81" x="229.5" y="381.7158">getTransceiver()</text><!--MD5=[0afb048d3d755fad87fb799b03d025fb]
link PositionController to Company--><path codeLine="39" d="M122.65,183.5013 C106.03,215.7613 86.59,253.4713 72.83,280.1813 " fill="none" id="PositionController-to-Company" style="stroke:#A80036;stroke-width:1.0;stroke-dasharray:7.0,7.0;"/><polygon fill="#A80036" points="70.5,284.7013,78.1742,278.5282,72.7874,280.2551,71.0604,274.8683,70.5,284.7013" style="stroke:#A80036;stroke-width:1.0;"/><!--MD5=[6b4a94d80660e97c6833bde801bd4c89]
link Company to ShipStore--><path codeLine="40" d="M61.95,346.9513 C67.71,371.9313 76.19,408.7613 84.11,443.1313 " fill="none" id="Company-to-ShipStore" style="stroke:#A80036;stroke-width:1.0;stroke-dasharray:7.0,7.0;"/><polygon fill="#A80036" points="85.28,448.1813,87.1725,438.5159,84.1651,443.3071,79.3739,440.2998,85.28,448.1813" style="stroke:#A80036;stroke-width:1.0;"/><!--MD5=[f702b5ccb3cbade1626d36bda038a8f2]
link PositionController to ShipStore--><path codeLine="41" d="M148.03,183.6212 C139.46,253.3313 125.78,364.6713 116.15,443.0513 " fill="none" id="PositionController-to-ShipStore" style="stroke:#A80036;stroke-width:1.0;stroke-dasharray:7.0,7.0;"/><polygon fill="#A80036" points="115.52,448.1713,120.5935,439.7297,116.1332,443.209,112.6539,438.7487,115.52,448.1713" style="stroke:#A80036;stroke-width:1.0;"/><!--MD5=[5580bc3a39e814f4d9c5caf9f61fbafd]
link PositionController to Message--><path codeLine="42" d="M193.31,183.5013 C203.45,201.0813 214.52,220.2813 224.98,238.4312 " fill="none" id="PositionController-to-Message" style="stroke:#A80036;stroke-width:1.0;stroke-dasharray:7.0,7.0;"/><polygon fill="#A80036" points="227.63,243.0213,226.5926,233.2272,225.1293,238.6915,219.665,237.2283,227.63,243.0213" style="stroke:#A80036;stroke-width:1.0;"/><!--MD5=[abf1ab9485b6d4362889ee13df2724cb]
@startuml

title <b>CLASS DIAGRAM\n

class PositionController{
+ DatePosition(Date, Hour, Ship)
+ PeriodPosition(Date, Hour, Date1, Hour1, Ship)
+ dateTime(Date)
+ checkDate(Date)
+ checkHour(Hour)
+ checkPeriod(Date, Date1)
}

class Company{
+ getShipStore()
}

class ShipStore{
+ShipStore()
+getBst()
+getShipList()
+addShip(ship)
+containsMMSI(MMSI)
+containsIMO(IMO)
+containsCallSign(callSign)
+getShip(code)
+shipSummary(code)
}

class Message {
+ getLocalDateTime()
+ getCog()
+ getHeading()
+ getLatitude()
+ getLongitude()
+ getSog()
+ getTransceiver()
}

PositionController ..> Company
Company ..> ShipStore
PositionController ..> ShipStore
PositionController ..> Message

@enduml

PlantUML version 1.2021.11(Sat Oct 02 14:26:11 BST 2021)
(GPL source distribution)
Java Runtime: OpenJDK Runtime Environment
JVM: OpenJDK 64-Bit Server VM
Default Encoding: Cp1252
Language: pt
Country: PT
--></g></svg>